/* XPM */
static const char * AboutIcon_xpm[] = {
"64 64 469 2",
"  	c None",
". 	c #000000",
"+ 	c #FFFFFF",
"@ 	c #FFFEFE",
"# 	c #FFFFFE",
"$ 	c #FDF9F8",
"% 	c #F8F2F3",
"& 	c #F9F2F3",
"* 	c #FAF5F7",
"= 	c #FEFEFE",
"- 	c #FEFEFF",
"; 	c #FEF7EC",
"> 	c #D4A0A6",
", 	c #FDFFFF",
"' 	c #E1ADB3",
") 	c #C78181",
"! 	c #A33C4C",
"~ 	c #9D2A38",
"{ 	c #941A2D",
"] 	c #962236",
"^ 	c #A43C4C",
"/ 	c #B2677B",
"( 	c #D9B9CE",
"_ 	c #FCFBFD",
": 	c #EDF2FC",
"< 	c #FFFFF7",
"[ 	c #910001",
"} 	c #83000C",
"| 	c #800003",
"1 	c #82000C",
"2 	c #840010",
"3 	c #880015",
"4 	c #860010",
"5 	c #83000B",
"6 	c #C096B5",
"7 	c #8675D4",
"8 	c #4852CF",
"9 	c #CADBF8",
"0 	c #FFE7C9",
"a 	c #80000B",
"b 	c #880014",
"c 	c #84000E",
"d 	c #820008",
"e 	c #810007",
"f 	c #860013",
"g 	c #870013",
"h 	c #A86D95",
"i 	c #9586D7",
"j 	c #3541CA",
"k 	c #3F48CB",
"l 	c #7A93E5",
"m 	c #FFF6D9",
"n 	c #83000A",
"o 	c #870015",
"p 	c #880720",
"q 	c #B25A71",
"r 	c #DBBBC4",
"s 	c #DFBAC0",
"t 	c #F5E2DB",
"u 	c #DFBABF",
"v 	c #C57C7F",
"w 	c #B66674",
"x 	c #F3F0F8",
"y 	c #D4C6E9",
"z 	c #4047CB",
"A 	c #3F48CC",
"B 	c #566FDC",
"C 	c #FEFFFF",
"D 	c #FFFFFB",
"E 	c #960007",
"F 	c #830828",
"G 	c #F8F3F6",
"H 	c #F5E9F2",
"I 	c #4643C9",
"J 	c #3E47CC",
"K 	c #394DD2",
"L 	c #FCFFFF",
"M 	c #FFFEFF",
"N 	c #A51E05",
"O 	c #830123",
"P 	c #F0F1F5",
"Q 	c #FEFCFD",
"R 	c #7166D2",
"S 	c #3E48CC",
"T 	c #3F47CB",
"U 	c #3E47CB",
"V 	c #363DC9",
"W 	c #CFEFFF",
"X 	c #A41C05",
"Y 	c #830728",
"Z 	c #CAB7E2",
"` 	c #3E45CB",
" .	c #3442CD",
"..	c #797DD8",
"+.	c #3940C9",
"@.	c #98BBF4",
"#.	c #A21605",
"$.	c #840A2A",
"%.	c #F6EAF2",
"&.	c #3D3AC9",
"*.	c #3C45CB",
"=.	c #96B7F2",
"-.	c #CDBDE6",
";.	c #3D44CA",
">.	c #5D81E4",
",.	c #9A0306",
"'.	c #87102F",
").	c #F8F4F7",
"!.	c #8379D5",
"~.	c #5261D6",
"{.	c #F5FCFE",
"].	c #DED3EF",
"^.	c #4049CC",
"/.	c #4754D2",
"(.	c #F7FFFF",
"_.	c #FFFFF0",
":.	c #8F0008",
"<.	c #8C1837",
"[.	c #F9F6F9",
"}.	c #E2CEE9",
"|.	c #3A40C9",
"1.	c #3742CB",
"2.	c #B8D3F8",
"3.	c #FDF0F7",
"4.	c #434ECE",
"5.	c #E1EDFC",
"6.	c #FFFFE3",
"7.	c #860009",
"8.	c #8F1F41",
"9.	c #FBF4F1",
"0.	c #EFDCDF",
"a.	c #EDD8D8",
"b.	c #DBB0B5",
"c.	c #DAB0B6",
"d.	c #DCB5B6",
"e.	c #B14F57",
"f.	c #AD4F5D",
"g.	c #B26278",
"h.	c #F0EBF8",
"i.	c #FFF6F8",
"j.	c #4A49CB",
"k.	c #3D46CB",
"l.	c #7C9AEA",
"m.	c #6952CC",
"n.	c #3C47CC",
"o.	c #3E4ACD",
"p.	c #C8D6F6",
"q.	c #FFF0D3",
"r.	c #80000A",
"s.	c #880217",
"t.	c #8E0E22",
"u.	c #8D0B1E",
"v.	c #8B071B",
"w.	c #8B061A",
"x.	c #870014",
"y.	c #86000D",
"z.	c #9B5988",
"A.	c #A899DD",
"B.	c #4352D1",
"C.	c #F3FAFF",
"D.	c #E9E6F7",
"E.	c #8D7BD2",
"F.	c #3A45CB",
"G.	c #9FBAF0",
"H.	c #E5AB94",
"I.	c #830010",
"J.	c #830009",
"K.	c #820011",
"L.	c #C4A4C8",
"M.	c #FFF6F6",
"N.	c #4041C9",
"O.	c #9CBBF3",
"P.	c #A8A9E6",
"Q.	c #7872D4",
"R.	c #3B44CB",
"S.	c #6885E3",
"T.	c #E2A28E",
"U.	c #880216",
"V.	c #890318",
"W.	c #8A0418",
"X.	c #8D0D23",
"Y.	c #BF7D8C",
"Z.	c #C5848D",
"`.	c #C5828B",
" +	c #DCC5D6",
".+	c #E6DDF2",
"++	c #6963D0",
"@+	c #3B46CB",
"#+	c #3A42CA",
"$+	c #3943CA",
"%+	c #3958D7",
"&+	c #FFFFFA",
"*+	c #A3C9C3",
"=+	c #5DAFAF",
"-+	c #5FAFAE",
";+	c #9BD1D6",
">+	c #EEFDFF",
",+	c #E8AD98",
"'+	c #82000F",
")+	c #9B364F",
"!+	c #E9D3D8",
"~+	c #F5F1F7",
"{+	c #FFFFF9",
"]+	c #413AC7",
"^+	c #3C46CC",
"/+	c #4851CE",
"(+	c #4F59D1",
"_+	c #454CCC",
":+	c #343ACA",
"<+	c #DDFAFF",
"[+	c #C1D5C6",
"}+	c #007577",
"|+	c #007D7E",
"1+	c #008080",
"2+	c #007D7C",
"3+	c #007978",
"4+	c #37A6B1",
"5+	c #E8F5F6",
"6+	c #E0A08B",
"7+	c #880013",
"8+	c #A34870",
"9+	c #FDFEFF",
"0+	c #FFF7F7",
"a+	c #3F41C9",
"b+	c #3E46CB",
"c+	c #3740C9",
"d+	c #2F3BC8",
"e+	c #6E78DA",
"f+	c #94A4E8",
"g+	c #D1D5F4",
"h+	c #EAECF9",
"i+	c #FAFFFF",
"j+	c #887DD6",
"k+	c #A0BEF4",
"l+	c #6EADA1",
"m+	c #007E7E",
"n+	c #00807F",
"o+	c #007B7B",
"p+	c #007E7D",
"q+	c #008083",
"r+	c #3F6E63",
"s+	c #8E0011",
"t+	c #870012",
"u+	c #A54D7B",
"v+	c #F9E9F0",
"w+	c #3C3CC9",
"x+	c #7489E1",
"y+	c #BFCBF2",
"z+	c #AD9EDF",
"A+	c #3D47CC",
"B+	c #3E45CA",
"C+	c #6887E4",
"D+	c #87B6AB",
"E+	c #007E7F",
"F+	c #24949A",
"G+	c #9CD4D7",
"H+	c #ABD6D2",
"I+	c #479B97",
"J+	c #148683",
"K+	c #008A88",
"L+	c #671113",
"M+	c #880011",
"N+	c #A64E7F",
"O+	c #8175D4",
"P+	c #3C46CB",
"Q+	c #576EDA",
"R+	c #CFBEE7",
"S+	c #3B45CB",
"T+	c #5462D5",
"U+	c #F7FDFF",
"V+	c #B9C7B2",
"W+	c #007C7D",
"X+	c #007A78",
"Y+	c #5FC0D2",
"Z+	c #EFF6F5",
"`+	c #67A79C",
" @	c #007B7C",
".@	c #00746C",
"+@	c #870010",
"@@	c #F3EEF7",
"#@	c #4D50CC",
"$@	c #9BB1EE",
"%@	c #F8E4F2",
"&@	c #3642CB",
"*@	c #4250CF",
"=@	c #E2EDFB",
"-@	c #E9EAE1",
";@	c #007F7F",
">@	c #47B2BF",
",@	c #CEDFDC",
"'@	c #CA8C79",
")@	c #830011",
"!@	c #A54D7D",
"~@	c #C5ACE0",
"{@	c #3840CD",
"]@	c #EFFFFF",
"^@	c #6048CA",
"/@	c #A1C0FA",
"(@	c #639F8C",
"_@	c #007F7E",
":@	c #018B96",
"<@	c #F4FDFF",
"[@	c #E5A994",
"}@	c #FFFFFD",
"|@	c #594BC9",
"1@	c #3A41CA",
"2@	c #93B8F1",
"3@	c #BFA2DC",
"4@	c #3843CB",
"5@	c #3F47CD",
"6@	c #3C69A9",
"7@	c #007E7C",
"8@	c #01858C",
"9@	c #D8F4FC",
"0@	c #F5CCB0",
"a@	c #80000D",
"b@	c #993553",
"c@	c #F6DFEF",
"d@	c #333FCA",
"e@	c #4558D3",
"f@	c #F8F9FD",
"g@	c #F8F8F9",
"h@	c #4E4BCB",
"i@	c #3F49C8",
"j@	c #0C7987",
"k@	c #007F80",
"l@	c #69BFCB",
"m@	c #FFFFF2",
"n@	c #900008",
"o@	c #88071F",
"p@	c #C79EBB",
"q@	c #FAF4F4",
"r@	c #F7EFF1",
"s@	c #F4E1DA",
"t@	c #BE747F",
"u@	c #CEA5B7",
"v@	c #FFFEFD",
"w@	c #8B82D6",
"x@	c #2C32C7",
"y@	c #9FB8EF",
"z@	c #C5B7E5",
"A@	c #2E45B5",
"B@	c #017F7F",
"C@	c #007F89",
"D@	c #E9FBFF",
"E@	c #CE7355",
"F@	c #850012",
"G@	c #85000E",
"H@	c #850010",
"I@	c #800007",
"J@	c #CEC3E6",
"K@	c #9CBCA0",
"L@	c #007C7C",
"M@	c #6ECBDE",
"N@	c #FFF7F3",
"O@	c #A7363C",
"P@	c #8C0718",
"Q@	c #860012",
"R@	c #D2CAEB",
"S@	c #FFFFF6",
"T@	c #127C7A",
"U@	c #00838A",
"V@	c #E9F8FA",
"W@	c #97CCCC",
"X@	c #9ECFCF",
"Y@	c #9DCFCF",
"Z@	c #BAE0E7",
"`@	c #FBE2E0",
" #	c #EBD6DA",
".#	c #BF6D6D",
"+#	c #B5616E",
"@#	c #B45C69",
"##	c #D8C1D5",
"$#	c #EDDBE2",
"%#	c #E9E1D0",
"&#	c #007A7C",
"*#	c #2499A1",
"=#	c #F8FCFE",
"-#	c #FFFCFB",
";#	c #D0E4E1",
">#	c #96C3BC",
",#	c #4DA5A3",
"'#	c #007B7A",
")#	c #007676",
"!#	c #007778",
"~#	c #007472",
"{#	c #99DBED",
"]#	c #ACC5B5",
"^#	c #43AABA",
"/#	c #DFE2D8",
"(#	c #1E8B86",
"_#	c #048181",
":#	c #007C7B",
"<#	c #70C5D6",
"[#	c #7DACA1",
"}#	c #67C2D2",
"|#	c #FFF7EB",
"1#	c #229696",
"2#	c #319899",
"3#	c #65B7BA",
"4#	c #7DBDB9",
"5#	c #15807E",
"6#	c #27A1B0",
"7#	c #F9FFFF",
"8#	c #64A39C",
"9#	c #007C7A",
"0#	c #86D0E0",
"a#	c #FFFFFC",
"b#	c #379186",
"c#	c #0A8687",
"d#	c #6EBDC9",
"e#	c #FFF3E7",
"f#	c #007D81",
"g#	c #ABE5EC",
"h#	c #FFFEFC",
"i#	c #4B9F98",
"j#	c #85D0E0",
"k#	c #D1E6E8",
"l#	c #A6C5B9",
"m#	c #08888B",
"n#	c #E3F4F8",
"o#	c #67A49D",
"p#	c #83CFDF",
"q#	c #3F958A",
"r#	c #2B9EAB",
"s#	c #85AFA2",
"t#	c #54B8C9",
"u#	c #9DB7A6",
"v#	c #00787D",
"w#	c #CAF2FE",
"x#	c #C2CEBD",
"y#	c #007C7E",
"z#	c #309EA8",
"A#	c #BCD0C7",
"B#	c #51B8C6",
"C#	c #FFFCF0",
"D#	c #057A77",
"E#	c #007E82",
"F#	c #98DCE7",
"G#	c #6CAB9F",
"H#	c #027F7F",
"I#	c #008A94",
"J#	c #F0FBFF",
"K#	c #ACC5B4",
"L#	c #007877",
"M#	c #30A0A7",
"N#	c #9ECECE",
"O#	c #9DCECE",
"P#	c #9DCDCC",
"Q#	c #5BACAA",
"R#	c #14837E",
"S#	c #19959E",
"T#	c #EDFCFF",
"U#	c #FFFDFA",
"V#	c #4D998E",
"W#	c #007D7D",
"X#	c #269CA7",
"Y#	c #F5FEFF",
"Z#	c #FFFEFA",
"`#	c #94C3BD",
" $	c #238A83",
".$	c #007979",
"+$	c #3BA3A9",
"@$	c #AADAE0",
"#$	c #EFF2ED",
"$$	c #8BC5C6",
"%$	c #8CC6C6",
"&$	c #8BC5C5",
"*$	c #B6E4ED",
". . . . . . . . . . . . . . . . . . . . . . . . . . . . . . . . . . . . . . . . . . . . . . . . . . . . . . . . . . . . . . . . ",
". + + + + + + + + + + + + + + + + + + + + + + + + + + + + + + + + + + + + + + + + + + + + + + + + + + + + + + + + + + + + + + . ",
". + + + + + + + + + + + + + + + + + + + + + + + + + + + + + + + + + + + + + + + + + + + + + + + + + + + + + + + + + + + + + + . ",
". + + + + + + + + + + + + + + + + + + + + + + + + + + + + + + + + + + + + + + + + + + + + + + + + + + + + + + + + + + + + + + . ",
". + + + + + + + + + + + + + + + + + + + + + + + + + + + + + + + + + + + + + + + + + + + + + + + + + + + + + + + + + + + + + + . ",
". + + + + + + + + + + + + + + + + + + + + + + + + + + + + + + + + + + + + + + + + + + + + + + + + + + + + + + + + + + + + + + . ",
". + + + + + + + + + + + + + + + + + + + + + + + + + + + + + + + + + + + + + + + + + + + + + + + + + + + + + + + + + + + + + + . ",
". + + + + + + + + + + + + + + + + + + + + + + + + + + + + + + + + + + + + + + + + + + + + + + + + + + + + + + + + + + + + + + . ",
". + + + + + + + + + + + + + + + + + + + + + + + + + + + + + + + + + + + + + + + + + + + + + + + + + + + + + + + + + + + + + + . ",
". + + + + + + + + + + + + + + + + + + + + + + + + + + + + + + + + + + + + + + + + + + + + + + + + + + + + + + + + + + + + + + . ",
". + + + + + + + + + + + + + + + + + + + + + + + + + + + + + + + + + + + + + + + + + + + + + + + + + + + + + + + + + + + + + + . ",
". + + + + + + + + + + + + + + + + + + + + + + + + + + + + + + + + + + + + + + + + + + + + + + + + + + + + + + + + + + + + + + . ",
". + + + + + + + + + + + + + + + + + + + + + + + + + + + + + + + + + + + + + + + + + + + + + + + + + + + + + + + + + + + + + + . ",
". + + + + + + + + + + + + + + + + + + + + + + + + + + + + + + + + + + + + + + + + + + + + + + + + + + + + + + + + + + + + + + . ",
". + + + + + + + + + + + + + + + + + + + + + + + + + + + + + + + + + + + + + @ + + # + + + $ % & & & * + + + = + + + + + + + + . ",
". + + + + + + + + + + + + + + + + + + + + + + + + + + + + + + + + + + + + # - ; > , ' ) ! ~ { { { { ] ^ / ( + - + + + + + + + . ",
". + + + + + + + + + + + + + + + # = _ : + + + + + + + + + + + + + + + + + + < [ } | 1 2 3 3 3 3 3 3 3 3 4 5 6 + + + + + + + + . ",
". + + + + + + + + + + + + + + + = + 7 8 9 - + + + + + + + + + + + + + + + + 0 a 3 3 b c c d e e e e 1 c f g h + + + + + + + + . ",
". + + + + + + + + + + + + + + = @ i j k l + + + + + + + + + + + + + + + + + m n o p q r s , + + + + t u v w x = + + + + + + + . ",
". + + + + + + + + + + + + + # + y z A A B + + + + + + + + + + + + + + + + C D E o F G + + + + + + = + + + + + + + + + + + + + . ",
". + + + + + + + + + + + + + + H I J A A K L M + + + + + + + + + + + + + + # + N o O P + + + + + + + + + + + + + + + + + + + + . ",
". + + + + + + + + + + + + - Q R S T U A V W + + + + + + + + + + + + + + + # + X o Y G C + + + + + + + + + + + + + + + + + + + . ",
". + + + + + + + + + + + = + Z ` k  ...U +.@.+ + + + + + + + + + + + + + + + + #.o $.G + + + + + + + + + + + + + + + + + + + + . ",
". + + + + + + + + + + + + %.&.S *.=.-.k ;.>.+ + + + + + + + + + + + + + + M + ,.o '.).+ + + + + + + + + + + + + + + + + + + + . ",
". + + + + + + + + + + @ C !.U k ~.{.].^.T /.(.+ + + + + + + + + + + + + + + _.:.o <.[.+ + + + + # - + + + = + + + + + + + + + . ",
". + + + + + + + + + + + }.|.T 1.2.+ 3.^.A 4.5.+ + + + + + + + + + + + + + C 6.7.o 8.C 9.0.0.a.b.c.d.e.f.g.h.+ + + + + + + + + . ",
". + + + + + + + + + # i.j.U k.l.+ # # m.n.o.p.- + + + + + + + + + + + + + + q.r.3 s.t.u.v.v.w.g x.x.x.x.y.z.+ + + + + + + + + . ",
". + + + + + + + + @ + A.J k B.C.+ + D.E.F.J G.+ + + + + + + + + + + + + + + H.I.3 3 3 3 3 3 x.c c c J.e K.L.+ + + + + + + + + . ",
". + + + + + + + = + M.N.A +.O.P.Q.R.k.U A U S.+ C + + + + @ + + + + + + = + T.I.3 3 U.V.W.W.X.Y.Z.`. ++ + + = + + + + + + + + . ",
". + + + + + + @ + .+++@+A A #+$+*.A A A A U %++ M + + + = + &+*+=+-+;+>++ C ,+'+3 )+!+~++ + + + + + + = + + + + + + + + + + + . ",
". + + + + + + + {+]+U A A A T U k.^+/+(+_+k :+<++ + + C # [+}+|+1+1+2+3+4+5+6+I.7+8+9++ + + + + + + + + + + + + + + + + + + + . ",
". + + + + + + + 0+a+J A b+c+d+e+f+g+h+i+j+A +.k++ + @ + l+m+1+n+o+o+1+1+p+q+r+s+t+u+C + + + + + + + + + + + + + + + + + + + + . ",
". + + + + + + + v+w+S n.x+y++ + + = + C z+A+B+C++ = + D+E+1+m+F+G+H+I+J+m+1+K+L+M+N+C + + + + + + + + + + + + + + + + + + + + . ",
". + + + + + + # O+P+A Q++ + = + + + + M R+S+T T+U++ V+W+1+X+Y+, + + # Z+`+ @.@+@M+N+C + + + + + + + + + + + + + + + + + + + + . ",
". + + + + + - @@#@A b+$@@ + + + + + + + %@&@A *@=@-@;@1+;@>@+ = + + + = + ,@'@)@t+!@C + + + + + + + + + + + + + + + + + + + + . ",
". + + + + + + ~@*.k {@]@- + + + + + + + # ^@A+*./@(@;@_@:@<@@ + + + + + = + [@I.7+8+9++ + + + + + + + + + + + + + + + + + + + . ",
". + + + + C }@|@U 1@2@+ + + + + + + + + + 3@4@5@6@7@1+8@9@+ + + + + + + + + 0@a@3 b@C = + + + + + + + + + = + + + + + + + + + . ",
". + + + + + c@d@k e@f@= + + + + + + + + - g@h@i@j@k@_@l@# + + + + + + + + C m@n@x.o@p@q@r@r@r@r@r@r@s@t@u@C + + + + + + + + + . ",
". + + + + + v@w@x@y@- + + + + + + + + + # @ z@A@B@;@C@D@- + + + + + + + + @ + E@F@x.G@5 5 5 5 5 5 5 } H@I@J@+ + + + + + + + + . ",
". + + + + + = + + + = + + + + + + + + + + = + K@E+L@M@+ + + + + + + @ C + + + N@O@P@H@Q@Q@Q@Q@Q@Q@Q@Q@4 2 R@+ + + + + + + + + . ",
". + + + + + + + + + + + + + + + + + + + + C S@T@;@U@V@# + + = + + + + S@W@X@X@Y@Z@`@ #.#+#+#+#+#+#+#@###$#C @ + + + + + + + + . ",
". + + + + + + + + + + + + + + + + + + + + + %#&#n+*#=#= + -#;#>#,#'#)#!#o+o+o+o+~#{#@ + + + + + + + + + - + + + + + + + + + + . ",
". + + + + + + + + + + + + + + + + + + + + + ]#|+_@^#C + /#(#_#;@;@;@1+1+1+1+1+1+:#<#+ + + + + + + + + + + + + + + + + + + + + . ",
". + + + + + + + + + + + + + + + + + + + + # [#k@2+}#+ |#!#;@;@:#!#1#2#3#4#5#k@_@6#7#+ + + + + + + + + + + + + + + + + + + + + . ",
". + + + + + + + + + + + + + + + + + + + + v@8#1+9#0#+ a#b#1+c#d#+ + + + e#W+1+f#g## + + + + + + + + + + + + + + + + + + + + + . ",
". + + + + + + + + + + + + + + + + + + + + h#i#1+9#j#+ C # k#+ + = C + C l#;@1+m#n#- + + + + + + + + + + + + + + + + + + + + + . ",
". + + + + + + + + + + + + + + + + + + + + v@o#1+:#p#+ + + + + + + + C }@q#1+_@r#L + + + + + + + + + + + + + + + + + + + + + + . ",
". + + + + + + + + + + + + + + + + + + + + # s#k@p+t#+ + + + + + + + + u#W+;@v#w#+ + + + + + + + + + + + + + + + + + + + + + + . ",
". + + + + + + + + + + + + + + + + + + + + + x#y#n+z#, = + + + + + + A#E+1+;@B#+ - + + + + + + + + + + + + + + + + + + + + + + . ",
". + + + + + + + + + + + + + + + + + + + + + C#D#k@E#F#+ = + C + # G#H#;@_@I#J#@ + + + + + + + + + + + + + + + + + + + + + + + . ",
". + + + + + + + + + + + + + + + + + + + + @ + K#m+1+L#M#N#O#P#Q#R#|+1+p+S#T#+ + + + + + + + + + + + + + + + + + + + + + + + + . ",
". + + + + + + + + + + + + + + + + + + + + + C U#V#;@1+;@;@;@;@;@;@1+W#X#Y#+ = + + + + + + + + + + + + + + + + + + + + + + + + . ",
". + + + + + + + + + + + + + + + + + + + + + + + Z#`# $!#o+o+o+.$W++$@$+ @ + + + + + + + + + + + + + + + + + + + + + + + + + + . ",
". + + + + + + + + + + + + + + + + + + + + + + + + + + #$$$%$&$*$+ + = + + + + + + + + + + + + + + + + + + + + + + + + + + + + . ",
". + + + + + + + + + + + + + + + + + + + + + + + + + + + + + + + = + + + + + + + + + + + + + + + + + + + + + + + + + + + + + + . ",
". + + + + + + + + + + + + + + + + + + + + + + + + + + + + + + + + + + + + + + + + + + + + + + + + + + + + + + + + + + + + + + . ",
". + + + + + + + + + + + + + + + + + + + + + + + + + + + + + + + + + + + + + + + + + + + + + + + + + + + + + + + + + + + + + + . ",
". + + + + + + + + + + + + + + + + + + + + + + + + + + + + + + + + + + + + + + + + + + + + + + + + + + + + + + + + + + + + + + . ",
". + + + + + + + + + + + + + + + + + + + + + + + + + + + + + + + + + + + + + + + + + + + + + + + + + + + + + + + + + + + + + + . ",
". + + + + + + + + + + + + + + + + + + + + + + + + + + + + + + + + + + + + + + + + + + + + + + + + + + + + + + + + + + + + + + . ",
". + + + + + + + + + + + + + + + + + + + + + + + + + + + + + + + + + + + + + + + + + + + + + + + + + + + + + + + + + + + + + + . ",
". + + + + + + + + + + + + + + + + + + + + + + + + + + + + + + + + + + + + + + + + + + + + + + + + + + + + + + + + + + + + + + . ",
". + + + + + + + + + + + + + + + + + + + + + + + + + + + + + + + + + + + + + + + + + + + + + + + + + + + + + + + + + + + + + + . ",
". . . . . . . . . . . . . . . . . . . . . . . . . . . . . . . . . . . . . . . . . . . . . . . . . . . . . . . . . . . . . . . . "};
