/* XPM */
static const char *AoK_xpm[] = {
"25 25 455 2",
"  	c None",
". 	c #000000",
"+ 	c #310C00",
"@ 	c #0D0000",
"# 	c #973107",
"$ 	c #7B300E",
"% 	c #921100",
"& 	c #A52601",
"* 	c #742B0D",
"= 	c #C01100",
"- 	c #A81800",
"; 	c #100200",
"> 	c #080809",
", 	c #1A1A1C",
"' 	c #070809",
") 	c #180500",
"! 	c #6E2406",
"~ 	c #AD3F07",
"{ 	c #A21700",
"] 	c #FF1600",
"^ 	c #DA1900",
"/ 	c #B35949",
"( 	c #E93104",
"_ 	c #AA1700",
": 	c #C51700",
"< 	c #C41701",
"[ 	c #111215",
"} 	c #242424",
"| 	c #101215",
"1 	c #121417",
"2 	c #141518",
"3 	c #010101",
"4 	c #AC5613",
"5 	c #BB4406",
"6 	c #D3751D",
"7 	c #D27D22",
"8 	c #DA7110",
"9 	c #D95110",
"0 	c #F84003",
"a 	c #FD0000",
"b 	c #470B00",
"c 	c #B42B00",
"d 	c #B02503",
"e 	c #262626",
"f 	c #343434",
"g 	c #262625",
"h 	c #191A1B",
"i 	c #121316",
"j 	c #131518",
"k 	c #000001",
"l 	c #1F0C01",
"m 	c #6B1900",
"n 	c #481100",
"o 	c #892A00",
"p 	c #A03200",
"q 	c #A31400",
"r 	c #FF0400",
"s 	c #BD1400",
"t 	c #A81200",
"u 	c #611F02",
"v 	c #8E3605",
"w 	c #FE0000",
"x 	c #CB2606",
"y 	c #543E25",
"z 	c #272727",
"A 	c #363636",
"B 	c #272726",
"C 	c #100500",
"D 	c #631700",
"E 	c #942603",
"F 	c #FF0801",
"G 	c #F80400",
"H 	c #A23900",
"I 	c #C22D00",
"J 	c #841B00",
"K 	c #931C01",
"L 	c #501200",
"M 	c #503319",
"N 	c #B56719",
"O 	c #D07411",
"P 	c #F4710B",
"Q 	c #7A766A",
"R 	c #353535",
"S 	c #454545",
"T 	c #333333",
"U 	c #201103",
"V 	c #B75F16",
"W 	c #E94A00",
"X 	c #B13800",
"Y 	c #B93800",
"Z 	c #B43700",
"` 	c #571100",
" .	c #A7541A",
"..	c #6F1900",
"+.	c #661600",
"@.	c #442814",
"#.	c #462B17",
"$.	c #674833",
"%.	c #7B5F1F",
"&.	c #CEB5A5",
"*.	c #545454",
"=.	c #535353",
"-.	c #1A1B1D",
";.	c #240700",
">.	c #771A00",
",.	c #120701",
"'.	c #B53900",
").	c #FF0200",
"!.	c #6E2201",
"~.	c #D74400",
"{.	c #A13600",
"].	c #701B00",
"^.	c #431405",
"/.	c #5B5039",
"(.	c #4D3420",
"_.	c #543A26",
":.	c #5A543E",
"<.	c #6A6867",
"[.	c #DFE0E0",
"}.	c #5A6363",
"|.	c #434343",
"1.	c #444444",
"2.	c #2A2A2A",
"3.	c #252525",
"4.	c #711900",
"5.	c #8D1E00",
"6.	c #6A1D01",
"7.	c #F46C0D",
"8.	c #621600",
"9.	c #6A2201",
"0.	c #5F1D01",
"a.	c #241412",
"b.	c #040405",
"c.	c #506165",
"d.	c #A9A8A0",
"e.	c #616262",
"f.	c #696765",
"g.	c #8D8D80",
"h.	c #BFBEBE",
"i.	c #706A63",
"j.	c #C7C7C7",
"k.	c #DDDDDD",
"l.	c #535252",
"m.	c #393939",
"n.	c #772001",
"o.	c #781F01",
"p.	c #CB2100",
"q.	c #F57F12",
"r.	c #701C00",
"s.	c #926B27",
"t.	c #550B00",
"u.	c #0B0000",
"v.	c #615D58",
"w.	c #787C73",
"x.	c #656564",
"y.	c #626262",
"z.	c #929292",
"A.	c #E1E1E2",
"B.	c #E2E2E2",
"C.	c #E0E0E0",
"D.	c #666666",
"E.	c #A2A295",
"F.	c #68696A",
"G.	c #3A3C3C",
"H.	c #7C1E00",
"I.	c #991900",
"J.	c #FBC825",
"K.	c #7D2600",
"L.	c #540E00",
"M.	c #1B1D20",
"N.	c #676664",
"O.	c #656868",
"P.	c #4A5454",
"Q.	c #6D6A67",
"R.	c #A6A69C",
"S.	c #E4E4E4",
"T.	c #B2B2B1",
"U.	c #BDBDBD",
"V.	c #7C766D",
"W.	c #616161",
"X.	c #1C1D1E",
"Y.	c #1B0900",
"Z.	c #551200",
"`.	c #E6680B",
" +	c #FF0000",
".+	c #B85B12",
"++	c #400500",
"@+	c #270F0E",
"#+	c #3D3F3D",
"$+	c #787979",
"%+	c #374448",
"&+	c #565453",
"*+	c #5E6363",
"=+	c #9D9E9B",
"-+	c #E3E3E3",
";+	c #E1E1E1",
">+	c #8D8D8E",
",+	c #656565",
"'+	c #2D2D2D",
")+	c #272626",
"!+	c #131417",
"~+	c #0D0300",
"{+	c #4E0C00",
"]+	c #7A2301",
"^+	c #9F3500",
"/+	c #9B2F00",
"(+	c #661E01",
"_+	c #090000",
":+	c #3F4445",
"<+	c #646361",
"[+	c #434C4B",
"}+	c #4A5252",
"|+	c #5A5959",
"1+	c #747270",
"2+	c #DBDBDC",
"3+	c #92918F",
"4+	c #6F6B66",
"5+	c #636363",
"6+	c #4A4A49",
"7+	c #0E0100",
"8+	c #540F00",
"9+	c #4B0900",
"0+	c #6C1D00",
"a+	c #742601",
"b+	c #510E00",
"c+	c #474E50",
"d+	c #5C625F",
"e+	c #35474D",
"f+	c #485052",
"g+	c #4C5252",
"h+	c #585D5C",
"i+	c #757670",
"j+	c #C9CACA",
"k+	c #E4D6CC",
"l+	c #DECEC6",
"m+	c #C2B2A9",
"n+	c #C0C0C1",
"o+	c #616060",
"p+	c #616162",
"q+	c #0E0F12",
"r+	c #020303",
"s+	c #791D01",
"t+	c #4E0D00",
"u+	c #4D1000",
"v+	c #983100",
"w+	c #911E00",
"x+	c #771600",
"y+	c #181010",
"z+	c #656E67",
"A+	c #646058",
"B+	c #242C30",
"C+	c #23363F",
"D+	c #343232",
"E+	c #63605C",
"F+	c #CFC2B3",
"G+	c #A9AAAA",
"H+	c #B2B3AA",
"I+	c #B4B6AE",
"J+	c #BCBCBB",
"K+	c #E0E2E2",
"L+	c #ACACA4",
"M+	c #7C7E75",
"N+	c #333535",
"O+	c #170800",
"P+	c #942100",
"Q+	c #AD3300",
"R+	c #892000",
"S+	c #6C1900",
"T+	c #140D0F",
"U+	c #8B8A8A",
"V+	c #9D9D9E",
"W+	c #6C7173",
"X+	c #2A3134",
"Y+	c #3C3C3D",
"Z+	c #202020",
"`+	c #817B74",
" @	c #D3D6D7",
".@	c #C9C9C9",
"+@	c #CACACA",
"@@	c #BDAA9C",
"#@	c #3D4041",
"$@	c #D3CFCB",
"%@	c #450F00",
"&@	c #B41400",
"*@	c #CA1700",
"=@	c #A61D00",
"-@	c #110B0D",
";@	c #A09E93",
">@	c #344748",
",@	c #908881",
"'@	c #878176",
")@	c #1D1E1E",
"!@	c #0A0B0E",
"~@	c #0D0E11",
"{@	c #4A4A4A",
"]@	c #C5C6C7",
"^@	c #730700",
"/@	c #BD1800",
"(@	c #C31700",
"_@	c #CA1500",
":@	c #CF1400",
"<@	c #0B0200",
"[@	c #373939",
"}@	c #435353",
"|@	c #4B5353",
"1@	c #4F5957",
"2@	c #B2AC9C",
"3@	c #6D6964",
"4@	c #0B0B0A",
"5@	c #050405",
"6@	c #1F1F1F",
"7@	c #282829",
"8@	c #ADAAA7",
"9@	c #B11F00",
"0@	c #C61900",
"a@	c #F30200",
"b@	c #CC1500",
"c@	c #F80100",
"d@	c #8E1E00",
"e@	c #120400",
"f@	c #0A090C",
"g@	c #3B4F4F",
"h@	c #485252",
"i@	c #555353",
"j@	c #586363",
"k@	c #7C766E",
"l@	c #FFFFFF",
"m@	c #A3A396",
"n@	c #A8A89B",
"o@	c #747474",
"p@	c #525252",
"q@	c #606060",
"r@	c #DEDFE1",
"s@	c #3F3A31",
"t@	c #2E0C00",
"u@	c #B81900",
"v@	c #8C1F00",
"w@	c #C81600",
"x@	c #6D2201",
"y@	c #4C4D4E",
"z@	c #5E6565",
"A@	c #474747",
"B@	c #575554",
"C@	c #565756",
"D@	c #99998B",
"E@	c #7F7F7F",
"F@	c #7A746D",
"G@	c #F5F5F3",
"H@	c #4B4B47",
"I@	c #0C0C0C",
"J@	c #942200",
"K@	c #DE0500",
"L@	c #C13C00",
"M@	c #6A1A00",
"N@	c #662001",
"O@	c #951E00",
"P@	c #C51600",
"Q@	c #63685D",
"R@	c #565656",
"S@	c #565A5A",
"T@	c #595F5F",
"U@	c #2C2C2C",
"V@	c #2A2A29",
"W@	c #979789",
"X@	c #817C74",
"Y@	c #E5E5E5",
"Z@	c #030304",
"`@	c #050D00",
" #	c #801C00",
".#	c #DB4500",
"+#	c #891F00",
"@#	c #410500",
"##	c #912100",
"$#	c #410600",
"%#	c #070100",
"&#	c #514C47",
"*#	c #303E3F",
"=#	c #3D403B",
"-#	c #5A6060",
";#	c #7E7B78",
">#	c #9A998D",
",#	c #4C3F33",
"'#	c #746F69",
")#	c #B8B8B8",
"!#	c #857F79",
"~#	c #E6E6E6",
"{#	c #828276",
"]#	c #190100",
"^#	c #B63100",
"/#	c #BC3900",
"(#	c #C84100",
"_#	c #490A00",
":#	c #831B00",
"<#	c #460700",
"[#	c #0A0200",
"}#	c #0E0F0F",
"|#	c #727A73",
"1#	c #2E3E45",
"2#	c #323A30",
"3#	c #5C5A59",
"4#	c #A4A499",
"5#	c #99999A",
"6#	c #919082",
"7#	c #F8F8F8",
"8#	c #A6A699",
"9#	c #D3D1CF",
"0#	c #595959",
"a#	c #451500",
"b#	c #E55603",
"c#	c #932500",
"d#	c #3B0300",
"e#	c #3F0600",
"f#	c #501300",
"g#	c #2B2D2C",
"h#	c #727971",
"i#	c #4C5353",
"j#	c #515354",
"k#	c #3F403D",
"l#	c #948F89",
"m#	c #CACACB",
"n#	c #FEFEFE",
"o#	c #CDCDCE",
"p#	c #EDEDEB",
"q#	c #2C2B2B",
"r#	c #692F05",
"s#	c #FE8613",
"t#	c #9B2600",
"u#	c #791900",
"v#	c #721B00",
"w#	c #AC3300",
"x#	c #2B0300",
"y#	c #2E2E2F",
"z#	c #3D3F3F",
"A#	c #5C6060",
"B#	c #596161",
"C#	c #555454",
"D#	c #515151",
"E#	c #4B4B4B",
"F#	c #B2B2B2",
"G#	c #E3D7CA",
"H#	c #F4F3F1",
"I#	c #020203",
"J#	c #050000",
"K#	c #7E2B00",
"L#	c #4B1700",
"M#	c #040201",
"N#	c #390500",
"O#	c #3D0C00",
"P#	c #09090A",
"Q#	c #292A2A",
"R#	c #283031",
"S#	c #393A3A",
"T#	c #323232",
"U#	c #040406",
"V#	c #0E1012",
". . . . . . . . + @ # $ % & * = - ; > , ' . . . . ",
". . . . . . . ) ! ~ { ] ^ / ( _ : < [ } | 1 2 3 . ",
". . . . . . 4 5 6 7 8 9 0 a b c : d e f g h i j k ",
". . . . l m n o p q r s t u v w x y z A z } B i i ",
". . . C D E F G H I J K L M N O P Q R S T R } e [ ",
". . . U V W X Y Z `  ...+.@.#.$.%.&.*.=.S T R } -.",
". . ;.>.,.'.w ).!.~.{.].^./.(._.:.<.[.}.|.1.T 2.3.",
". . 4.5.6.7.8.9.0.a.b.c.d.e.f.g.h.i.j.k.l.*.|.m.T ",
". . n.o.p.q.r.s.t.u.v.w.x.y.z.A.B.C.D.E.F.G.T 2.} ",
". . . H.I.J.K.L.m M.N.O.P.Q.R.S.B.B.T.U.V.W.f } X.",
". . Y.Z.`. +.+++@+#+$+%+&+*+=+-+B.;+B.>+D.,+'+)+!+",
". . ~+{+]+^+/+(+_+:+<+[+}+|+1+2+;+B.B.3+4+5+6+i i ",
". 3 7+8+9+0+a+b+_+c+d+e+f+g+h+i+j+k+l+m+n+o+p+q+r+",
". . s+t+u+v+w+x+y+z+A+B+C+D+E+F+G+H+I+J+K+L+M+N+. ",
". . O+++P+Q+R+S+T+U+V+W+X+R Y+Z+`+ @.@+@@@y.#@$@. ",
". . . %@&@*@ +=@-@y.;@>@,@'@)@. . . !@. . ~@{@]@. ",
". . . ^@/@(@_@:@<@)@[@}@|@1@2@3@4@5@. . . 6@7@8@. ",
". . 9@0@a@b@c@d@e@f@g@h@|@i@j@k@l@m@n@o@p@q@r@s@. ",
". t@ +u@ +v@w@x@. . y@=.=.=.z@A@B@C@D@E@F@G@H@I@. ",
". J@K@L@M@N@O@P@e@. . Q@R@S@T@U@D.V@=.W@X@Y@*.Z@. ",
"`@ #.#+#@###$#%#. . . &#*#=#-#;#>#,#'#)#!#~#{#. . ",
"]#^#/#(#_#:#<#[#. . . }#|#1#2#3#4#5#6#7#8#9#0#. . ",
"a#b#Y c#d#e#f#. . . . g#h#i#j#k#A@l#m#n#o#p#q#. . ",
"r#s#t#u#v#w#x#. . . . k y#z#A#B#C#D#E#F#G#H#I#. . ",
"J#K#L#M#N#O#. . . . . . . . P#Q#R#S#T#U#V#. . . . "};
