/* XPM */
static const char *AppIcon64_xpm[] = {
/* columns rows colors chars-per-pixel */
"64 64 52 1 ",
"  c #443504",
". c #4C3B02",
"X c #584504",
"o c #614D07",
"O c #685203",
"+ c #6D570A",
"@ c #735B04",
"# c #7D6404",
"$ c #7A610D",
"% c #82680C",
"& c #8B7009",
"* c #917401",
"= c #997B0E",
"- c #947815",
"; c #A18209",
": c #A78716",
"> c #B08E10",
", c #BF9B16",
"< c #B1901F",
"1 c #B9981E",
"2 c #BC9C2D",
"3 c #C9A315",
"4 c #D7AF19",
"5 c #E4BA1B",
"6 c #D3AD23",
"7 c #D2AF2F",
"8 c #DFB624",
"9 c #DBB72E",
"0 c #CEAF39",
"q c #DFBD3F",
"w c #E4BD2C",
"e c #E5C138",
"r c #EDC938",
"t c #DDBD4E",
"y c #EFCB43",
"u c #EAC848",
"i c #F2CF50",
"p c #F0CE56",
"a c #F0CF5E",
"s c #ECD15E",
"d c #EFD267",
"f c #F0D16D",
"g c #EFD872",
"h c #F5D578",
"j c #F0DA7B",
"k c #F3D782",
"l c #F0DA81",
"z c #F2DE8B",
"x c #F3DD92",
"c c #F4DD9C",
"v c #F2E19B",
"b c None",
/* pixels */
"bbbbbbbbbbbbbbbbbbbbbbbbbbbbbbbbbbbbbbbbbbbbbbbbbbbbbbbbbbbbbbbb",
"bbbbbbbbbbbbbbbbbbbbbbbbbbbbbbbbbbbbbbbbbbbbbbbbbbbbbbbbbbbbbbbb",
"bbbbbbbbbbbbbbbbbbbbbbbbbbbbbbbbbbbbbbbbbbbbbbbbbbbbbbbbbbbbbbbb",
"bbbbbbbbbbbbbbbbbbbbbbbbbbbbbbbbbbbbbbbbbbbbbbbbbbbbbbbbbbbbbbbb",
"bbbbbbbbbbbbbbbbbbbbbbbbbbbbbbbbbbbbbbbbbbbbbbbbbbbbbbbbbbbbbbbb",
"bbbbbbbbbbbbbbbbbbbbbbbbbbbbbbbbbbbbbbbbbbbbbbbbbbbbbbbbbbbbbbbb",
"bbbbbbbbbbbbbbbbbbbbbbbbbbbbbbbbbbbbbbbbbbbbbbbbbbbbbbbbbbbbbbbb",
"bbbbbbbbbbbbbbbbbbbbbbbbbbbbbbbbbbbbbbbbbbbbbbbbbbbbbbbbbbbbbbbb",
"bbbbbbbbbbbbbbbbbbbbbbbbbbbbbbbbbbbbbbbbbbbbbbbbbbbbbbbbbbbbbbbb",
"bbbbbbbbbbbbbbbbbbbbbbbbbbbbbbbbbbbbbbbbbbbbbbbbbbbbbbbbbbbbbbbb",
"bbbbbbbbbbbbbbbbbbbbbbbbbbbbbbbbbbbbbbbbbbbbbbbbbbbbbbbbbbbbbbbb",
"bbbbbbbbbbbbbbbbbbbbbbbbbbbbbbbbbbbbbbbbbbbbbbbbbbbbbbbbbbbbbbbb",
"bbbbbbbbbbbbbbbbbbbbbbbbbbbbbbbbbbbbbbbbbbbbbbbbbbbbbbbbbbbbbbbb",
"bbbbbbbbbbbbbbbbbbbbbbbbbbbbbbbbbbbbbbbbbbbbbbbbbbbbbbbbbbbbbbbb",
"bbbbbbbbbbbbbbbbbbbbbbbbbbbbbbbbbbbbbbbbbbbbbbbbbbbbbbbbbbbbbbbb",
"bbbbbbbbbbbbbbbbbbbbbbbbbbbbbbbbbbbbbbbbbbbbbbbbbbbbbbbbbbbbbbbb",
"bbbbbbbbbbbbbbbbbbbbbbbbbbbbbbbbbbbbbbbbbbbbbbbbbbbbbbbbbbbbbbbb",
"bbbbbbbbbbbbbbbbbbbbbbbbbbbbbbbbbbbbbbbbbbbbbbbbbbbbbbbbbbbbbbbb",
"bbbbbbbbbbbbbbbbbbbbbbbbbbbbbbbbbbbbbbbbbbbbbbbbbbbbbbbbbbbbbbbb",
"bbbbbbbbbbbbbbbbbbbbbbbbbbbbbbbbbbbbbbbbbbbbbbbbbbbbbbbbbbbbbbbb",
"bbbbbbbbbbbqabbbbbbbbbbbbbbbbbbdpiiipaiyiipbbbbbieyiiipipppipiyb",
"bbbbbbbbbbd*rpbbbbbbbbbbbbbbbu85,=$@++$%-,wbbbbbba<owy6-#$#@@o=p",
"bbbbbbbbbb1=wrbbbbbbbbbbbbbs44;X+-22022:%X4bbbbbbbbX,43qsdgbkt@u",
"bbbbbbbbbb%33ypbbbbbbbbbbbp>4@+0bbbbbbbbb=:bbbbbbbbo,44bbbbbbb-e",
"bbbbbbbbb0@&7eybbbbbbbbbba:3&=bbbbbbbbbbbt&bbbbbbbbo>54bbbbbbb09",
"bbbbbbbbb*&.&wrdbbbbbbbbb>,,>bbbbbbbbbbbbb1bbbbbbbbo>54bbbbbbbbu",
"bbbbbbbbd&32 4yibbbbbbbb7;8>pbbbbbbbbbbbbbbbbbbbbbbO>58bbbbbbbbb",
"bbbbbbbb1=abo&wybbbbbbbb%354bbbbbbbbbbbbbbbbbbbbbbbO>58bbbbbbbbb",
"bbbbbbbb*3bb2.8ysbbbbbbqO55wbbbbbbbbbbbbbbbbbbbbbbbO>58bbbbbb6bb",
"bbbbbbb0&ebbbo=rybbbbbb:%44ybbbbbbbbbbbbbbbbbbbbbbbO>5wfbbbbe3bb",
"bbbbbbb>:bbbb:Xwifbbbbb&=44ubbbbbbbbbbbbbbbbbbbbbbbO>8ue999844bb",
"bbbbbbs&,bbbbt.,eybbbbb#;35pbbbbbbbbbbbbbbbbbbbbbbbO15>%$$#@X>bb",
"bbbbbb<*abbbbb$%8rjbbbb$=34pbbbbbbbbbbbbbbbbbbbbbbbO,w4bbbbb0=bb",
"bbbbbb#8bbbbbb1o4yibbbb%&85ibbbbbbbbbbllllllbbbbbbbo,58bbbbbb3bb",
"bbbbbqX=>1111<=@,6ybbbb-+6rybbbbbbbb,:&-6yy1>6bbbbbo,48bbbbbbdbb",
"bbbbb>*&%%$$$$$@Xwypbbb0.e8rbbbbbbbbbbq&o886bbbbbbbo,58bbbbbbbbb",
"bbbbs&,bbbbbbbbb.<wrbbbbX-8akbbbbbbbbbb2X84ubbbbbbbo3w8bbbbbbbbb",
"bbbb<#qbbbbbbbbb&o5ydbbb2 ,ehzbbbbbbbbb0.55ubbbbbbbo355bbbbbbbb4",
"bbbb#:bbbbbbbbbb0 4yibbbb&.7fkcbbbbbbbbt.54pbbbbbbbO658bbbbbbb73",
"bbb7%6bbbbbbbbbbbo:wylbbbb% :gvxbbbbbbbq.58pbbbbbbt+665bbbbbbb>8",
"bba;:sbbbbbbbbbbb%%9yhbbbbb= o<kldhhbhd6+$&pbbbbbb7$38paddaapw>8",
"u6=++-7uabbbbbiq1$ooO%1ubbbbt$..+-:<:=%$@:tbbbbpe6&@OOOO+++$$#&8",
"buuuuuupbbbbbbppuiuuupaabbbbbbb1-%#%-<0bbbbbbbbbpuuqqqq70777999u",
"bbbbbbbbbbbbbbbbbbbbbbbbbbbbbbbbbbbbbbbbbbbbbbbbbbbbbbbbbbbbbbbb",
"bbbbbbbbbbbbbbbbbbbbbbbbbbbbbbbbbbbbbbbbbbbbbbbbbbbbbbbbbbbbbbbb",
"bbbbbbbbbbbbbbbbbbbbbbbbbbbbbbbbbbbbbbbbbbbbbbbbbbbbbbbbbbbbbbbb",
"bbbbbbbbbbbbbbbbbbbbbbbbbbbbbbbbbbbbbbbbbbbbbbbbbbbbbbbbbbbbbbbb",
"bbbbbbbbbbbbbbbbbbbbbbbbbbbbbbbbbbbbbbbbbbbbbbbbbbbbbbbbbbbbbbbb",
"bbbbbbbbbbbbbbbbbbbbbbbbbbbbbbbbbbbbbbbbbbbbbbbbbbbbbbbbbbbbbbbb",
"bbbbbbbbbbbbbbbbbbbbbbbbbbbbbbbbbbbbbbbbbbbbbbbbbbbbbbbbbbbbbbbb",
"bbbbbbbbbbbbbbbbbbbbbbbbbbbbbbbbbbbbbbbbbbbbbbbbbbbbbbbbbbbbbbbb",
"bbbbbbbbbbbbbbbbbbbbbbbbbbbbbbbbbbbbbbbbbbbbbbbbbbbbbbbbbbbbbbbb",
"bbbbbbbbbbbbbbbbbbbbbbbbbbbbbbbbbbbbbbbbbbbbbbbbbbbbbbbbbbbbbbbb",
"bbbbbbbbbbbbbbbbbbbbbbbbbbbbbbbbbbbbbbbbbbbbbbbbbbbbbbbbbbbbbbbb",
"bbbbbbbbbbbbbbbbbbbbbbbbbbbbbbbbbbbbbbbbbbbbbbbbbbbbbbbbbbbbbbbb",
"bbbbbbbbbbbbbbbbbbbbbbbbbbbbbbbbbbbbbbbbbbbbbbbbbbbbbbbbbbbbbbbb",
"bbbbbbbbbbbbbbbbbbbbbbbbbbbbbbbbbbbbbbbbbbbbbbbbbbbbbbbbbbbbbbbb",
"bbbbbbbbbbbbbbbbbbbbbbbbbbbbbbbbbbbbbbbbbbbbbbbbbbbbbbbbbbbbbbbb",
"bbbbbbbbbbbbbbbbbbbbbbbbbbbbbbbbbbbbbbbbbbbbbbbbbbbbbbbbbbbbbbbb",
"bbbbbbbbbbbbbbbbbbbbbbbbbbbbbbbbbbbbbbbbbbbbbbbbbbbbbbbbbbbbbbbb",
"bbbbbbbbbbbbbbbbbbbbbbbbbbbbbbbbbbbbbbbbbbbbbbbbbbbbbbbbbbbbbbbb",
"bbbbbbbbbbbbbbbbbbbbbbbbbbbbbbbbbbbbbbbbbbbbbbbbbbbbbbbbbbbbbbbb",
"bbbbbbbbbbbbbbbbbbbbbbbbbbbbbbbbbbbbbbbbbbbbbbbbbbbbbbbbbbbbbbbb",
"bbbbbbbbbbbbbbbbbbbbbbbbbbbbbbbbbbbbbbbbbbbbbbbbbbbbbbbbbbbbbbbb"
};
