/* XPM */
static const char * AppIcon32_xpm[] = {
"32 32 146 2",
"  	c None",
". 	c #7F007F",
"+ 	c #049611",
"@ 	c #00A633",
"# 	c #08A42C",
"$ 	c #00A42F",
"% 	c #00A530",
"& 	c #00A52F",
"* 	c #00A431",
"= 	c #00A63F",
"- 	c #88047D",
"; 	c #7F007D",
"> 	c #33980E",
", 	c #00AB52",
"' 	c #00A229",
") 	c #00A840",
"! 	c #A90463",
"~ 	c #7F007B",
"{ 	c #7C0083",
"] 	c #5F00A2",
"^ 	c #4AA20B",
"/ 	c #00B082",
"( 	c #750084",
"_ 	c #5905B7",
": 	c #810096",
"< 	c #00AE7C",
"[ 	c #8B037A",
"} 	c #7A0489",
"| 	c #85007D",
"1 	c #2E970A",
"2 	c #00B78E",
"3 	c #81007D",
"4 	c #830076",
"5 	c #1E9209",
"6 	c #00BA91",
"7 	c #860079",
"8 	c #5C00A0",
"9 	c #7C0080",
"0 	c #71018E",
"a 	c #009E28",
"b 	c #00A638",
"c 	c #00A42E",
"d 	c #04A42E",
"e 	c #01A42E",
"f 	c #00AC57",
"g 	c #A2087E",
"h 	c #790082",
"i 	c #81006E",
"j 	c #7C0081",
"k 	c #7B0081",
"l 	c #7D007F",
"m 	c #7D0080",
"n 	c #72008A",
"o 	c #00A42B",
"p 	c #00A637",
"q 	c #00A533",
"r 	c #00A429",
"s 	c #7E0080",
"t 	c #7E007E",
"u 	c #7E007F",
"v 	c #5C009C",
"w 	c #7A0086",
"x 	c #1308B8",
"y 	c #060BB8",
"z 	c #000BBA",
"A 	c #000CBB",
"B 	c #0B0FBB",
"C 	c #004965",
"D 	c #00B9A2",
"E 	c #82007D",
"F 	c #660093",
"G 	c #A9067F",
"H 	c #3107B8",
"I 	c #0009BB",
"J 	c #0018BE",
"K 	c #000DBB",
"L 	c #030BB9",
"M 	c #0408B4",
"N 	c #0004B9",
"O 	c #008EC8",
"P 	c #850079",
"Q 	c #740093",
"R 	c #3108B0",
"S 	c #0030DD",
"T 	c #007858",
"U 	c #00B9AF",
"V 	c #790083",
"W 	c #070BB8",
"X 	c #0709AE",
"Y 	c #4D009B",
"Z 	c #00A12D",
"` 	c #00C2AE",
" .	c #850072",
"..	c #7B048A",
"+.	c #5304A7",
"@.	c #0000C1",
"#.	c #363283",
"$.	c #88007A",
"%.	c #2B9E0F",
"&.	c #00AD53",
"*.	c #00A430",
"=.	c #00A424",
"-.	c #0A02BB",
";.	c #0059DE",
">.	c #5C7D4A",
",.	c #007659",
"'.	c #008540",
").	c #00AF57",
"!.	c #0013BF",
"~.	c #190AB0",
"{.	c #000BBB",
"].	c #070BB7",
"^.	c #000ABA",
"/.	c #000CBA",
"(.	c #0006C0",
"_.	c #0005C1",
":.	c #001CAD",
"<.	c #0F0CB2",
"[.	c #0014C0",
"}.	c #0909B7",
"|.	c #0013BE",
"1.	c #0009BC",
"2.	c #001EC1",
"3.	c #1208B7",
"4.	c #0003B9",
"5.	c #160AB2",
"6.	c #0014C3",
"7.	c #0706B9",
"8.	c #003ED9",
"9.	c #150AB2",
"0.	c #0014C1",
"a.	c #2201B4",
"b.	c #000DBC",
"c.	c #2201B5",
"d.	c #000DBD",
"e.	c #5001AB",
"f.	c #0017C1",
"g.	c #060ABA",
"h.	c #0000BC",
"i.	c #100AB7",
"j.	c #040CBA",
"k.	c #0008B9",
"l.	c #0006B7",
"m.	c #001DCA",
"n.	c #000CBD",
"o.	c #000FBE",
"                                                                ",
"                                                                ",
"                                                                ",
"                                                                ",
"                                                                ",
"                                                                ",
"                                                                ",
"                    .               + @ # $ % % & * =           ",
"                  - ;               > , ' % % % & % )           ",
"                ! ~ { ]             ^ /                         ",
"                ( _   :             ^ <                         ",
"              [ }     |             1 2                         ",
"              3       4             5 6                         ",
"            7 8     9 ; 0           a b c % d e % c f           ",
"          g h i j k l m n           o b c $ p q % r             ",
"          s t u t v   4 w x y z A B C D                         ",
"          E F         G H I J K L M N O                         ",
"        P Q           R z S         T U                         ",
"        V             W X Y         Z `                         ",
"       ...          +.@.#.$.        %.&.r % *.% % =.            ",
"                    -.;.            >.,.'.c & % % c ).          ",
"                    !.    ~.{.].^./.(._.:.                      ",
"                  <.[.    }.|.1.2.  3.4.                        ",
"                  5.6.              7.8.                        ",
"                  9.0.            a.b.                          ",
"                  c.d.          e./.f.                          ",
"                    g.h.      i.A d.                            ",
"                      j.k.A z l.m.                              ",
"                        n.A o.                                  ",
"                                                                ",
"                                                                ",
"                                                                "};
