/* XPM */
static const char *AppIcon24_xpm[] = {
/* columns rows colors chars-per-pixel */
"24 24 43 1 ",
"  c #83690C",
". c #8C700F",
"X c #997B0E",
"o c #927613",
"O c #9E7F14",
"+ c #A1820A",
"@ c #AF8E0F",
"# c #B8950B",
"$ c #AB8B19",
"% c #A98F1B",
"& c #BE9A15",
"* c #B69419",
"= c #A78A21",
"- c #AD9323",
"; c #B39221",
": c #BE9B22",
"> c #BD9F25",
", c #B59A28",
"< c #CAA417",
"1 c #C09E33",
"2 c #D0AB20",
"3 c #DBB32B",
"4 c #CBAC33",
"5 c #D5B434",
"6 c #DEB93A",
"7 c #E3BD2B",
"8 c #ECC837",
"9 c #E8C53D",
"0 c #CAAB40",
"q c #DCBB43",
"w c #DBBC4B",
"e c #E7C545",
"r c #EECA42",
"t c #E3C34B",
"y c #ECCA4A",
"u c #E6C655",
"i c #ECCA52",
"p c #E4C85D",
"a c #F1CF5E",
"s c #F1D258",
"d c #F0D872",
"f c #EAD580",
"g c None",
/* pixels */
"gggggggggggggggggggggggg",
"gggggggggggggggggggggggg",
"gggggggggggggggggggggggg",
"gggggggggggggggggggggggg",
"gggggggggggggggggggggggg",
"gggggggggggggggggggggggg",
"gggggggggggggggggggggggg",
"gggg5gggggg3$$O*ggi:2>->",
"ggg4*sgggq#Oggg-gggO7gg4",
"ggg* 8ggg&<ggggggggX7ggg",
"ggg&,$dgw@9ggggggggX9gtu",
"gg:6g.yg,#yggggggggO<;Ot",
"ggX=, 3g1$iggp>t5gg+7ggg",
"g4&t00oag aggg0+egg+9ggg",
"g@tgggorg-.fgggXegg+rgg2",
"6$wggi$$wg1 O$;=gg6+$%:<",
"gggggggggggggggggggggggg",
"gggggggggggggggggggggggg",
"gggggggggggggggggggggggg",
"gggggggggggggggggggggggg",
"gggggggggggggggggggggggg",
"gggggggggggggggggggggggg",
"gggggggggggggggggggggggg",
"gggggggggggggggggggggggg"
};
