/* XPM */
static const char *AppIcon48_xpm[] = {
"48 48 222 2",
"  	c None",
". 	c #930066",
"+ 	c #64019F",
"@ 	c #48A305",
"# 	c #00A951",
"$ 	c #00B23E",
"% 	c #2FA41B",
"& 	c #00A531",
"* 	c #00A530",
"= 	c #00A52E",
"- 	c #00A440",
"; 	c #00B873",
"> 	c #890073",
", 	c #7D0080",
"' 	c #7E008C",
") 	c #009006",
"! 	c #00A42F",
"~ 	c #00A52F",
"{ 	c #00A42E",
"] 	c #00A457",
"^ 	c #820080",
"/ 	c #7E0080",
"( 	c #80007C",
"_ 	c #379306",
": 	c #00A840",
"< 	c #00B682",
"[ 	c #8F0072",
"} 	c #80007D",
"| 	c #61A406",
"1 	c #00A32A",
"2 	c #00BBA7",
"3 	c #AF0261",
"4 	c #7C0082",
"5 	c #7F007D",
"6 	c #5F00AC",
"7 	c #5EA306",
"8 	c #00A42B",
"9 	c #00B290",
"0 	c #790083",
"a 	c #80007E",
"b 	c #5B03B7",
"c 	c #7C0080",
"d 	c #8000A2",
"e 	c #98037D",
"f 	c #7D007F",
"g 	c #700090",
"h 	c #810081",
"i 	c #800086",
"j 	c #00B18E",
"k 	c #80007F",
"l 	c #7E0084",
"m 	c #920082",
"n 	c #349306",
"o 	c #00A429",
"p 	c #00BEAB",
"q 	c #910074",
"r 	c #74008A",
"s 	c #96006F",
"t 	c #7E007D",
"u 	c #6204B7",
"v 	c #2F9106",
"w 	c #00C1B2",
"x 	c #790082",
"y 	c #820086",
"z 	c #9F025B",
"A 	c #7A039A",
"B 	c #168F03",
"C 	c #00B373",
"D 	c #29A925",
"E 	c #00A430",
"F 	c #00A52D",
"G 	c #00A864",
"H 	c #4700B2",
"I 	c #7C0081",
"J 	c #81007D",
"K 	c #770085",
"L 	c #00A22D",
"M 	c #00A83F",
"N 	c #A8057F",
"O 	c #7B007F",
"P 	c #7D008D",
"Q 	c #7F0067",
"R 	c #7D0081",
"S 	c #7E007F",
"T 	c #7B0082",
"U 	c #00A431",
"V 	c #00A532",
"W 	c #00A73A",
"X 	c #00A867",
"Y 	c #A20473",
"Z 	c #7D007E",
"` 	c #7E0081",
" .	c #7C0084",
"..	c #3409A8",
"+.	c #000CBB",
"@.	c #000EBD",
"#.	c #0028D1",
"$.	c #5E4983",
"%.	c #00981B",
"&.	c #00A92B",
"*.	c #00B477",
"=.	c #890082",
"-.	c #7F007E",
";.	c #82007A",
">.	c #800081",
",.	c #4505AF",
"'.	c #030ABA",
").	c #000BBA",
"!.	c #000ABD",
"~.	c #001B9D",
"{.	c #007435",
"].	c #00CBDD",
"^.	c #910081",
"/.	c #780084",
"(.	c #A0037D",
"_.	c #5C03AE",
":.	c #000CBC",
"<.	c #000CBA",
"[.	c #0012BE",
"}.	c #010BBA",
"|.	c #050BB9",
"1.	c #000BBC",
"2.	c #001B91",
"3.	c #82007B",
"4.	c #8404AB",
"5.	c #000DBC",
"6.	c #0006C3",
"7.	c #0000C6",
"8.	c #00307F",
"9.	c #6A00A4",
"0.	c #100AB6",
"a.	c #0009B5",
"b.	c #004AEF",
"c.	c #009340",
"d.	c #009A44",
"e.	c #800080",
"f.	c #3B08A8",
"g.	c #000BBB",
"h.	c #170596",
"i.	c #4200AC",
"j.	c #00A33D",
"k.	c #8D017D",
"l.	c #6F0099",
"m.	c #1308B8",
"n.	c #0510A9",
"o.	c #62007C",
"p.	c #830091",
"q.	c #009A1E",
"r.	c #00A326",
"s.	c #00C5CA",
"t.	c #800079",
"u.	c #6100A7",
"v.	c #0004C4",
"w.	c #8B0081",
"x.	c #81007A",
"y.	c #4F9F05",
"z.	c #00A52B",
"A.	c #00A88A",
"B.	c #B1067D",
"C.	c #740186",
"D.	c #1902BA",
"E.	c #0006B8",
"F.	c #0062E5",
"G.	c #6100AF",
"H.	c #92A121",
"I.	c #009440",
"J.	c #00943F",
"K.	c #009637",
"L.	c #00A62E",
"M.	c #00A83C",
"N.	c #0013C6",
"O.	c #3707A7",
"P.	c #0002C4",
"Q.	c #0000C5",
"R.	c #001094",
"S.	c #009824",
"T.	c #00A42C",
"U.	c #00B992",
"V.	c #3700B2",
"W.	c #0039D4",
"X.	c #090BB7",
"Y.	c #0012BC",
"Z.	c #080CB7",
"`.	c #0041D7",
" +	c #3207A9",
".+	c #0016BF",
"++	c #000DBA",
"@+	c #090AB9",
"#+	c #0006B9",
"$+	c #0A0BB7",
"%+	c #000BBD",
"&+	c #0047DD",
"*+	c #3D03A5",
"=+	c #0108B9",
"-+	c #003CD5",
";+	c #4200B1",
">+	c #001ACE",
",+	c #004AE0",
"'+	c #000ABC",
")+	c #0007B7",
"!+	c #005CE8",
"~+	c #0043DB",
"{+	c #2600B6",
"]+	c #000DC2",
"^+	c #000ABB",
"/+	c #0043D9",
"(+	c #020BBA",
"_+	c #0040D6",
":+	c #000DC8",
"<+	c #5F00A9",
"[+	c #0011BE",
"}+	c #000CB9",
"|+	c #0004C2",
"1+	c #0074EE",
"2+	c #4701A9",
"3+	c #0007B9",
"4+	c #000AB9",
"5+	c #0021C6",
"6+	c #3309A9",
"7+	c #0009B9",
"8+	c #0015C9",
"9+	c #0023CE",
"                                                                                                ",
"                                                                                                ",
"                                                                                                ",
"                                                                                                ",
"                                                                                                ",
"                                                                                                ",
"                                                                                                ",
"                                                                                                ",
"                                                                                                ",
"                                                                                                ",
"                              . +                     @ # $ % & * * * * * = - ;                 ",
"                            > , '                     ) & ! * ! * * * * * * ~ { ]               ",
"                            ^ / (                     _ & : { * * * * * * * * { <               ",
"                          [ , / }                     | 1 2                                     ",
"                        3 4 5 4 5 6                   7 8 9                                     ",
"                        0 a b   c d                   7 8 9                                     ",
"                      e f g     h i                   | 8 j                                     ",
"                      k l       m }                   n o p                                     ",
"                    q f r       s t u                 v o w                                     ",
"                    x y         z f A                 B = C         D E * * F G                 ",
"                  k ( H       I J , K                 L * { * * * E E ~ * * * M                 ",
"                N O P Q R S T S / / K                 U E { * * * V W ! * * F X                 ",
"              Y Z / f ` f , } , I ,  .    ..+.+.@.#.$.%.&.*.                                    ",
"              =., , -.S / }       ;.>.,.'.+.).+.).).!.~.{.].                                    ",
"              ^.f /.              (._.:.<.+.[.).}.|.+.1.2.                                      ",
"              x 3.                4.5.<.6.            7.8.                                      ",
"            k t 9.                0.+.a.b.            c.d.                                      ",
"            T e.                f.+.g.h.i.            U j.                                      ",
"          k.Z l.                m.g.n.o.p.            q.r.s.                                    ",
"          t.l                 u.+.v.  w.x.            y.& : { * * * * * * * z.A.                ",
"          B.C.                D.E.F.    G.            H.I.J.K.L.E * * * * * * M.                ",
"                              :.N.            O.+.+.<.P.Q.7.R.S.* * * * * * T.U.                ",
"                            V.).W.      X.+.).+.).+.+.+.+.+.Y.                                  ",
"                            Z.).`.     ++.).<.1..+).++@++.#+                                    ",
"                            $+%+&+    *+=+-+          ;+).>+                                    ",
"                            $+%+,+                    '+)+!+                                    ",
"                            $+1.~+                  {+<.]+                                      ",
"                            Z.^+/+                  (+^+_+                                      ",
"                            {+<.:+              <+).+.[+                                        ",
"                              1.}+|+          @++.).:.1+                                        ",
"                              2+:.<.3++.+.g.g.+.4+5+                                            ",
"                                6+:.).+.+.+.4+7+8+                                              ",
"                                    :.+.+.).9+                                                  ",
"                                                                                                ",
"                                                                                                ",
"                                                                                                ",
"                                                                                                ",
"                                                                                                "};
