/* XPM */
static const char *AppIcon64_xpm[] = {
"64 64 46 1",
" 	c None",
".	c #7E0080",
"+	c #A1B600",
"@	c #00A530",
"#	c #00B59E",
"$	c #6FA400",
"%	c #00A558",
"&	c #6000B3",
"*	c #039000",
"=	c #00C4C0",
"-	c #7E0096",
";	c #00A57B",
">	c #AA0080",
",	c #3A9000",
"'	c #00C8D7",
")	c #950080",
"!	c #B10062",
"~	c #7E00AB",
"{	c #C5BC00",
"]	c #7C0062",
"^	c #000CBB",
"/	c #0039DE",
"(	c #2700B8",
"_	c #00731C",
":	c #00D1FF",
"<	c #7E00A5",
"[	c #00256C",
"}	c #00A32C",
"|	c #003D6A",
"1	c #AA00A5",
"2	c #3D00B8",
"3	c #000CD2",
"4	c #000CA1",
"5	c #008A4B",
"6	c #000CB2",
"7	c #240080",
"8	c #6700A8",
"9	c #0D0089",
"0	c #001CA2",
"a	c #680080",
"b	c #000CC7",
"c	c #0064E8",
"d	c #000C86",
"e	c #00A127",
"f	c #005A35",
"g	c #0072F2",
"                                                                ",
"                                                                ",
"                                                                ",
"                                                                ",
"                                                                ",
"                                                                ",
"                                                                ",
"                                                                ",
"                                                                ",
"                                                                ",
"                                                                ",
"                                                                ",
"                                                                ",
"                     .              +@# $@@@@@@@@@@%            ",
"                    ..&             *@@@@@@@@@@@@@@@@@=         ",
"                   ...-             *@@@@@@@@@@@@@@@@@;         ",
"                  >....             ,@@@@@@@@@@@@@@@@@'         ",
"                  .....             $@@=                        ",
"                 ).....             $@@#                        ",
"                !......&            $@@#                        ",
"                ...& ..~            $@@#                        ",
"               >..-  ..-            $@@#                        ",
"               ...   )..            $@@#                        ",
"              )..~   >..            ,@@=                        ",
"             !...    !..&           ,@@=                        ",
"             ...&     ..~           ,@@'     {@@@@@@;           ",
"            !..-      ...           *@@@@@@@@@@@@@@@@'          ",
"            ...     .....          {@@@@@@@@@@@@@@@@@'          ",
"           >..-].........           @@@@@@@@@@@@@@@@%           ",
"          !..............&   ^^^^/  @@@@@@@@@'                  ",
"         >...............- (^^^^^^^^_@@:                        ",
"         ).........    ..<^^^^^^^^^^^[}:                        ",
"         >....         )<^^^^^^^^^^^^^|                         ",
"         ...           1^^^^^     ^^^^|                         ",
"        !...           2^^^3        ^45                         ",
"        ...&           ^^^6        {@@%                         ",
"        ...           ^^^^7         @@%                         ",
"       )..~          8^^^9.~        @@@:                        ",
"       ...           ^^^0a..        *@@=                        ",
"       ..~          8^^b )..        $@@@@@@@@@@@@@@@;           ",
"       >.           (^^c  .&        {@@@@@@@@@@@@@@@@:          ",
"                    ^^b         ^^^^^^^^de@@@@@@@@@@@:          ",
"                   8^^/     ^^^^^^^^^^^^^f@@@@@@@@@@:           ",
"                   (^^g   ^^^^^^^^^^^^^^^                       ",
"                   ^^^    ^^^^^^^^^^^^^^g                       ",
"                   ^^b    ^^^^^b    8^^b                        ",
"                   ^^3    (^g       (^^/                        ",
"                   ^^3              ^^^g                        ",
"                   ^^b             (^^b                         ",
"                   ^^b            8^^^c                         ",
"                   ^^^g           ^^^b                          ",
"                   (^^3         8^^^^g                          ",
"                    ^^^b      8^^^^^c                           ",
"                    (^^^^^^^^^^^^^^/                            ",
"                     ^^^^^^^^^^^^^c                             ",
"                      ^^^^^^^^^^b                               ",
"                        ^^^^^^/                                 ",
"                                                                ",
"                                                                ",
"                                                                ",
"                                                                ",
"                                                                ",
"                                                                ",
"                                                                "};
