/* XPM */
static const char * AppIcon16_xpm[] = {
"16 16 38 1",
" 	c None",
".	c #06A326",
"+	c #09A32B",
"@	c #00A42F",
"#	c #00A32F",
"$	c #61009A",
"%	c #0EA952",
"&	c #7A0585",
"*	c #89057E",
"=	c #0CAE6F",
"-	c #7F027B",
";	c #840071",
">	c #09AE5D",
",	c #00A433",
"'	c #7C007D",
")	c #780082",
"!	c #7B0079",
"~	c #67008D",
"{	c #0009BA",
"]	c #0A1AA7",
"^	c #049E70",
"/	c #8E1174",
"(	c #090AC2",
"_	c #046DB8",
":	c #76058E",
"<	c #0B00BD",
"[	c #3E1F8A",
"}	c #0BB652",
"|	c #0447D3",
"1	c #0F447D",
"2	c #00834F",
"3	c #00A72D",
"4	c #00A432",
"5	c #011ECB",
"6	c #0A0BB8",
"7	c #0013BD",
"8	c #0102B3",
"9	c #051DC7",
"                ",
"                ",
"                ",
"         .+@#   ",
"     $   %      ",
"    &*   =      ",
"   - ;   >  ,   ",
"   ')!~{]^      ",
"  /   (  _      ",
"  :  <[  }      ",
"     |   1234   ",
"         5      ",
"                ",
"     6789       ",
"                ",
"                "};
