/* XPM */
static const char *AppIcon24_xpm[] = {
"24 24 84 1",
" 	c None",
".	c #880073",
"+	c #00A32E",
"@	c #09A32B",
"#	c #00A42F",
"$	c #00A530",
"%	c #00A436",
"&	c #84017C",
"*	c #4F00A8",
"=	c #06AA52",
"-	c #00A430",
";	c #00A42E",
">	c #00A637",
",	c #870179",
"'	c #7B007B",
")	c #750096",
"!	c #08AD73",
"~	c #920373",
"{	c #76038B",
"]	c #8A037B",
"^	c #05B27D",
"/	c #80017D",
"(	c #840073",
"_	c #02B37A",
":	c #900278",
"<	c #6D0087",
"[	c #7C007F",
"}	c #7D007F",
"|	c #70008B",
"1	c #4AB31B",
"2	c #00A32B",
"3	c #00A431",
"4	c #00A745",
"5	c #7E0080",
"6	c #7E007C",
"7	c #7A0081",
"8	c #810075",
"9	c #730089",
"0	c #0709BA",
"a	c #000AB9",
"b	c #020CBC",
"c	c #0C367D",
"d	c #00AD8B",
"e	c #1D08BD",
"f	c #0014BF",
"g	c #0809AB",
"h	c #007BC4",
"i	c #790083",
"j	c #170AB5",
"k	c #010AB7",
"l	c #3F9B24",
"m	c #00B9A0",
"n	c #88006B",
"o	c #79058C",
"p	c #0600BE",
"q	c #402782",
"r	c #04B053",
"s	c #00A42D",
"t	c #0051DA",
"u	c #096664",
"v	c #007E47",
"w	c #00A72D",
"x	c #00A52F",
"y	c #00A940",
"z	c #110DB8",
"A	c #040CB9",
"B	c #020AB9",
"C	c #0012BC",
"D	c #0105BE",
"E	c #0000C1",
"F	c #090EBA",
"G	c #002FD1",
"H	c #090DB9",
"I	c #0C06B8",
"J	c #1C05B2",
"K	c #0022C7",
"L	c #1D06B3",
"M	c #0023C7",
"N	c #0709B8",
"O	c #000EBB",
"P	c #000BBA",
"Q	c #0104B5",
"R	c #001DCA",
"S	c #000CBD",
"                        ",
"                        ",
"                        ",
"                        ",
"                        ",
"       .      +@#$#%    ",
"       &*     = $-;>    ",
"      ,')     !         ",
"     ~{ ]     ^         ",
"     /  (     _         ",
"    :< [}|   12;3-;4    ",
"    567 890abcd         ",
"    9    ef  gh         ",
"   i    jk   lm         ",
"  no    pq    r --s     ",
"        t     uvwx#y    ",
"       z  ABCDE         ",
"       F      G         ",
"       H     I          ",
"       JK   LM          ",
"        NOPQR           ",
"         S              ",
"                        ",
"                        "};
