<?xml version="1.0" encoding="UTF-8" standalone="no"?>
<!-- Created with Inkscape (http://www.inkscape.org/) -->

<svg
   xmlns:dc="http://purl.org/dc/elements/1.1/"
   xmlns:cc="http://creativecommons.org/ns#"
   xmlns:rdf="http://www.w3.org/1999/02/22-rdf-syntax-ns#"
   xmlns:svg="http://www.w3.org/2000/svg"
   xmlns="http://www.w3.org/2000/svg"
   xmlns:sodipodi="http://sodipodi.sourceforge.net/DTD/sodipodi-0.dtd"
   xmlns:inkscape="http://www.inkscape.org/namespaces/inkscape"
   width="72.36161mm"
   height="25.7612mm"
   viewBox="0 0 72.36161 25.7612"
   version="1.1"
   id="svg8"
   inkscape:version="0.92.1 r15371"
   sodipodi:docname="AppIcon.svg">
  <defs
     id="defs2" />
  <sodipodi:namedview
     id="base"
     pagecolor="#ffffff"
     bordercolor="#666666"
     borderopacity="1.0"
     inkscape:pageopacity="0.0"
     inkscape:pageshadow="2"
     inkscape:zoom="5.6"
     inkscape:cx="135.5635"
     inkscape:cy="50.814746"
     inkscape:document-units="mm"
     inkscape:current-layer="layer1"
     showgrid="false"
     inkscape:window-width="2480"
     inkscape:window-height="1417"
     inkscape:window-x="-8"
     inkscape:window-y="-8"
     inkscape:window-maximized="1" />
  <metadata
     id="metadata5">
    <rdf:RDF>
      <cc:Work
         rdf:about="">
        <dc:format>image/svg+xml</dc:format>
        <dc:type
           rdf:resource="http://purl.org/dc/dcmitype/StillImage" />
        <dc:title></dc:title>
      </cc:Work>
    </rdf:RDF>
  </metadata>
  <g
     inkscape:label="Taso 1"
     inkscape:groupmode="layer"
     id="layer1"
     transform="translate(-70.264282,-93.578034)">
    <g
       id="g3951"
       transform="translate(6.7619285,-29.315886)">
      <path
         style="fill:#f3e09d;stroke-width:0.35277775"
         d="m 99.210181,148.15562 c -1.18967,-0.25874 -2.676262,-0.73583 -3.303538,-1.06021 -1.830456,-0.94657 -4.222963,-3.35815 -5.236525,-5.27827 -0.843754,-1.59844 -0.938567,-2.15224 -0.938567,-5.48222 0,-3.41051 0.0839,-3.87185 1.058333,-5.81935 1.357591,-2.71328 3.565386,-4.92497 6.104291,-6.11506 1.914672,-0.89748 2.319576,-0.94741 8.571865,-1.05697 l 6.56228,-0.11499 0.22563,1.87888 c 0.1241,1.03338 0.22701,2.56521 0.2287,3.40405 0.004,2.1563 -1.02465,1.91793 -1.79984,-0.41694 -0.31251,-0.94125 -0.78876,-1.85104 -1.05834,-2.02176 -0.26958,-0.17071 -2.23639,-0.30933 -4.3707,-0.30804 -4.42753,0.003 -5.829234,0.45125 -8.253232,2.64118 -1.937006,1.74997 -2.670941,4.17836 -2.410637,7.97613 0.253821,3.70317 1.471593,5.99293 4.137483,7.77968 2.468046,1.65416 4.350956,2.13085 7.245336,1.83431 l 2.27966,-0.23355 v -2.52656 c 0,-1.49474 -0.17288,-2.69945 -0.42333,-2.9499 -0.23283,-0.23283 -1.17596,-0.42333 -2.09585,-0.42333 -1.76662,0 -2.20611,-0.28515 -1.85394,-1.20289 0.18467,-0.48125 1.03742,-0.561 5.99837,-0.561 5.44715,0 5.78309,0.0389 5.78309,0.67051 0,0.48416 -0.36767,0.75722 -1.32292,0.98249 l -1.32292,0.31199 -0.10231,3.10053 -0.10231,3.10053 -1.48519,0.65164 c -1.89372,0.83088 -6.47337,1.77398 -8.43767,1.7376 -0.8328,-0.0154 -2.48755,-0.23974 -3.677219,-0.49848 z m 22.571459,-0.10031 c -4.77191,-0.0934 -4.98357,-0.1283 -4.80955,-0.79375 0.13974,-0.53437 0.48462,-0.69608 1.48457,-0.69608 2.56415,0 2.48959,0.33291 2.51988,-11.25223 0.0202,-7.71358 -0.0814,-10.43735 -0.39648,-10.63207 -0.23297,-0.14399 -1.197,-0.36439 -2.1423,-0.48979 -0.94529,-0.12539 -1.71871,-0.38127 -1.71871,-0.56862 0,-0.40412 18.21867,-0.47915 18.46349,-0.076 0.0884,0.14552 0.21682,1.53458 0.28541,3.0868 0.10124,2.2912 0.0282,2.82222 -0.38833,2.82222 -0.31863,0 -0.72578,-0.73524 -1.07446,-1.94027 l -0.56142,-1.94028 h -3.68804 -3.68804 l -0.0994,4.14514 -0.0994,4.14514 h 2.9753 2.97529 l 0.36894,-1.05834 c 0.24828,-0.71223 0.60567,-1.05833 1.09284,-1.05833 0.68406,0 0.72391,0.20388 0.72391,3.70417 0,3.40444 -0.0542,3.70416 -0.67051,3.70416 -0.48416,0 -0.75722,-0.36766 -0.98249,-1.32291 l -0.31199,-1.32292 -3.07445,-0.10193 -3.07445,-0.10193 -0.0374,3.27693 c -0.0465,4.07223 0.0291,5.32246 0.34122,5.65008 0.13442,0.14106 1.62478,0.36258 3.31191,0.49226 3.59028,0.27597 3.85086,0.14359 4.68992,-2.38257 0.42382,-1.276 0.74246,-1.72506 1.16586,-1.64299 0.49915,0.0968 0.56462,0.54179 0.45686,3.10598 -0.0692,1.64618 -0.19373,3.10586 -0.27679,3.24372 -0.14289,0.23714 -1.84029,0.2377 -13.76123,0.004 z m -58.265907,-0.69072 c 0.07738,-0.40181 0.579129,-0.68697 1.460934,-0.8303 0.73869,-0.12007 1.552724,-0.43999 1.808963,-0.71092 0.256239,-0.27094 2.456214,-5.49324 4.888834,-11.60512 l 4.422943,-11.1125 1.172628,-0.0981 c 1.130829,-0.0946 1.205713,-0.0192 2.100809,2.11667 5.276758,12.59118 8.634609,20.31025 9.049984,20.80422 0.276464,0.32877 1.000676,0.64627 1.609359,0.70555 0.719241,0.0701 1.147642,0.32393 1.223648,0.72516 0.1078,0.56905 -0.370127,0.61736 -6.108395,0.61736 -5.738333,0 -6.216182,-0.0483 -6.108221,-0.61736 0.08711,-0.45917 0.567557,-0.66257 1.874888,-0.79375 2.207279,-0.2215 2.344351,-0.70941 1.052943,-3.74798 l -0.955942,-2.24925 h -4.722806 c -2.597543,0 -4.722806,0.0404 -4.722806,0.0897 0,0.0494 -0.400782,1.19467 -0.890628,2.54517 -0.489845,1.3505 -0.812327,2.6595 -0.716627,2.90889 0.0957,0.24939 0.721624,0.45344 1.390942,0.45344 1.564679,0 2.33298,0.30287 2.33298,0.91968 0,0.39757 -0.981917,0.49143 -5.141145,0.49143 -4.689259,0 -5.130785,-0.0538 -5.023285,-0.612 z m 15.864728,-10.5887 c -1.518914,-3.93496 -2.963092,-7.14375 -3.215189,-7.14375 -0.242356,0 -2.756225,6.01391 -3.354815,8.0257 -0.23445,0.78795 -0.208984,0.79375 3.490329,0.79375 h 3.726501 z"
         id="path3963"
         inkscape:connector-curvature="0" />
      <path
         style="fill:#f1d05c;stroke-width:0.35277775"
         d="m 100.84405,148.27447 c -2.575081,-0.31782 -3.804147,-0.72683 -5.673997,-1.88818 -1.930933,-1.19929 -3.594148,-3.03518 -4.631631,-5.11248 -1.126174,-2.25489 -1.115923,-7.0808 0.02114,-9.94891 1.109282,-2.79805 3.462973,-5.29697 6.308621,-6.69788 l 2.328139,-1.14614 6.468318,-0.1215 6.46831,-0.1215 0.0238,2.0506 c 0.0131,1.12784 0.0911,2.56655 0.17341,3.19714 0.12295,0.94221 0.0307,1.14652 -0.51779,1.14652 -0.50939,0 -0.76771,-0.41814 -1.09109,-1.76613 -0.51979,-2.16671 -0.85787,-2.29522 -5.99668,-2.27942 -2.9234,0.009 -3.96442,0.15015 -4.938884,0.66965 -2.314786,1.23405 -3.509551,2.38638 -4.434569,4.27705 -0.842168,1.72133 -0.913361,2.1958 -0.801951,5.34464 0.08438,2.38481 0.311654,3.82416 0.733452,4.64498 0.336153,0.65416 0.509832,1.35337 0.385954,1.55381 -0.123879,0.20044 -0.07027,0.26867 0.119123,0.15161 0.440113,-0.272 1.619452,1.08243 1.338425,1.53714 -0.116275,0.18814 -0.361779,0.24914 -0.545565,0.13555 -0.183786,-0.11358 -0.242823,-0.3543 -0.131193,-0.53492 0.11163,-0.18062 0.0067,-0.3284 -0.233137,-0.3284 -0.239856,0 -0.89198,-0.51594 -1.449166,-1.14653 -0.81461,-0.92193 -0.931233,-0.97811 -0.595332,-0.2868 0.906588,1.86582 2.876663,3.73885 4.865054,4.6254 1.565019,0.69779 2.747089,0.938 1.865299,0.37906 -0.25911,-0.16425 -0.46798,-0.43963 -0.46416,-0.61196 0.004,-0.17234 -0.33981,-0.50615 -0.763621,-0.74181 -1.208455,-0.67197 -0.47692,-0.52538 1.219391,0.24434 1.53649,0.69719 4.8726,0.94437 6.57845,0.4874 0.76849,-0.20586 0.80241,-0.35402 0.70557,-3.08198 l -0.10175,-2.86573 -2.02847,-0.30463 c -1.34763,-0.20238 -2.02847,-0.4688 -2.02847,-0.79375 0,-0.63125 -0.34866,-0.59332 6.08542,-0.66216 5.01969,-0.0537 5.55625,-0.001 5.55625,0.54088 0,0.42452 -0.40098,0.66443 -1.36931,0.81928 -1.61143,0.25768 -1.79376,0.68126 -1.80088,4.18368 -0.005,2.27707 -0.0473,2.39414 -1.06337,2.91959 -2.08087,1.07605 -7.69479,1.88898 -10.58312,1.53249 z m 10.23056,-8.76455 c 0,-0.19403 -0.07,-0.35278 -0.15557,-0.35278 -0.0856,0 -0.25369,0.15875 -0.3736,0.35278 -0.11992,0.19403 -0.0499,0.35278 0.15557,0.35278 0.20548,0 0.3736,-0.15875 0.3736,-0.35278 z m -47.272224,7.96127 c 0,-0.49319 0.281427,-0.62993 2.140092,-1.03978 1.146286,-0.25277 1.838258,-1.76328 7.744351,-16.90518 l 2.586927,-6.63231 1.052423,0.10592 c 0.939087,0.0945 1.15546,0.36091 2.009206,2.47375 0.526231,1.30232 0.871374,2.45325 0.766984,2.55764 -0.104389,0.10439 -0.0218,0.1898 0.183531,0.1898 0.205332,0 0.478864,0.43656 0.607851,0.97014 0.128986,0.53358 0.601038,1.68451 1.049005,2.55764 0.447967,0.87312 0.934844,1.98437 1.081949,2.46944 0.147104,0.48507 0.708631,1.83445 1.247837,2.99862 2.172471,4.69045 2.798931,6.26403 2.613335,6.56433 -0.107017,0.17316 -0.04367,0.31483 0.140777,0.31483 0.36254,0 0.925559,1.66211 0.806621,2.38125 -0.04011,0.24254 0.102147,0.44097 0.316131,0.44097 0.213985,0 0.274276,-0.18572 0.133982,-0.41273 -0.17391,-0.28139 -0.0591,-0.33752 0.360811,-0.17638 0.33874,0.12998 0.771026,0.23634 0.960636,0.23634 0.189609,0 0.260805,0.13581 0.158212,0.30181 -0.102594,0.166 0.205538,0.22687 0.684735,0.13527 0.635886,-0.12156 0.871269,-0.0125 0.871269,0.40373 0,0.50348 -0.723275,0.5703 -6.173611,0.5703 -5.024163,0 -6.173611,-0.091 -6.173611,-0.48852 0,-0.32823 0.643786,-0.56896 1.962139,-0.73367 1.079176,-0.13484 2.040021,-0.44811 2.13521,-0.69617 0.187023,-0.48738 -1.516541,-5.02673 -1.998181,-5.3244 -0.506371,-0.31296 -9.204844,-0.25753 -9.502404,0.0605 -0.450912,0.482 -2.134097,5.41775 -1.849596,5.42373 0.14135,0.003 0.01887,0.17549 -0.272167,0.38338 -0.417849,0.29846 -0.348321,0.33776 0.330514,0.18677 1.359513,-0.30237 3.902819,0.15843 3.902819,0.70712 0,0.38352 -1.002678,0.48122 -4.938889,0.48122 -4.051686,0 -4.938888,-0.0908 -4.938888,-0.5054 z m 22.679993,-2.31683 c -0.101478,-0.38805 -0.330327,-0.70555 -0.508551,-0.70555 -0.179023,0 -0.155054,0.31576 0.05356,0.70555 0.207681,0.38806 0.43653,0.70556 0.508552,0.70556 0.07202,0 0.04792,-0.3175 -0.05356,-0.70556 z m -1.469552,-3.26907 c -0.348409,-0.34581 -0.388931,-0.30529 -0.197484,0.19748 0.132479,0.34792 0.329739,0.54371 0.438355,0.4351 0.108615,-0.10862 2.23e-4,-0.39328 -0.240871,-0.63258 z m -12.56628,-3.08272 c 0.127071,-0.2056 1.693628,-0.33071 3.728785,-0.29778 1.930307,0.0312 3.611645,-0.0452 3.736306,-0.16986 0.269811,-0.26981 -3.39503,-9.05556 -3.777388,-9.05556 -0.307685,0 -3.51242,7.87157 -3.51242,8.62731 0,0.28042 -0.277813,0.67166 -0.617361,0.86943 -0.339549,0.19777 -0.428293,0.36441 -0.197209,0.3703 0.231084,0.006 0.518763,-0.14882 0.639287,-0.34384 z m 11.464171,0.0692 c 0,-0.15694 -0.240705,-0.5935 -0.5349,-0.97014 -0.496006,-0.63499 -0.504714,-0.61424 -0.119762,0.28535 0.415361,0.97067 0.654662,1.22098 0.654662,0.68479 z m -1.875679,-4.01413 c -0.112616,-0.28142 -0.196209,-0.19783 -0.213137,0.21314 -0.01532,0.37189 0.06806,0.58025 0.185286,0.46302 0.117225,-0.11723 0.129758,-0.4215 0.02785,-0.67616 z m -1.711238,-4.18519 c -0.206368,-0.59199 -0.440677,-1.01088 -0.520685,-0.93087 -0.1747,0.1747 0.490971,2.00721 0.72913,2.00721 0.09172,0 -0.0021,-0.48435 -0.208445,-1.07634 z m -2.53204,-2.96539 c -0.114895,-0.29941 -0.373977,-0.54438 -0.575738,-0.54438 -0.232183,0 -0.208775,0.2531 0.06377,0.68951 0.486755,0.77942 0.829472,0.68227 0.51197,-0.14513 z m 0.596248,-1.44154 c -0.114894,-0.29941 -0.284558,-0.46872 -0.377031,-0.37625 -0.09247,0.0925 -0.06349,0.33745 0.0644,0.54438 0.347857,0.56285 0.551173,0.4535 0.312631,-0.16813 z m 38.683821,21.20879 c 0,-0.33344 0.62252,-0.60093 1.85208,-0.79581 l 1.85208,-0.29354 0.22957,-2.99656 c 0.12627,-1.6481 0.24533,-6.52128 0.26459,-10.82928 l 0.035,-7.83272 -1.32292,-0.36739 c -0.7276,-0.20207 -1.6801,-0.36828 -2.11666,-0.36936 -0.43657,-10e-4 -0.79375,-0.16207 -0.79375,-0.35775 0,-0.40755 17.97567,-0.47687 18.01676,-0.0695 0.51955,5.15144 0.51483,5.71693 -0.0477,5.71693 -0.40326,0 -0.69689,-0.56417 -1.00106,-1.92334 -0.52535,-2.3475 -0.79769,-2.46411 -4.98123,-2.133 l -3.11371,0.24644 -0.23205,2.52231 c -0.12763,1.38727 -0.17938,3.23244 -0.11499,4.10038 0.11087,1.49449 0.18838,1.59798 1.46329,1.95391 0.74042,0.20671 2.0898,0.29033 2.99861,0.18581 1.43735,-0.16528 1.72126,-0.33823 2.18156,-1.32891 1.00877,-2.1711 1.41111,-1.44403 1.41111,2.55001 0,2.81566 -0.11068,3.70416 -0.46141,3.70416 -0.25552,0 -0.60971,-0.66902 -0.79375,-1.4993 l -0.33234,-1.49931 h -3.175 -3.175 v 4.4691 c 0,2.458 0.1321,4.60113 0.29355,4.7625 0.16145,0.16137 1.7186,0.34923 3.46035,0.41747 3.62564,0.14205 4.1264,-0.10596 4.89084,-2.42222 0.60672,-1.83839 1.40943,-1.86353 1.40943,-0.0441 0,0.74903 -0.10096,2.0984 -0.22434,2.99861 l -0.22434,1.63674 h -9.12427 c -7.65803,0 -9.12427,-0.0807 -9.12427,-0.50226 z m 8.81944,-1.06442 c 0,-0.37235 -0.67702,-0.52878 -0.87839,-0.20297 -0.12187,0.1972 0.0259,0.35854 0.3284,0.35854 0.3025,0 0.54999,-0.07 0.54999,-0.15557 z m -0.44832,-11.69924 c -0.11723,-0.11722 -0.4215,-0.12975 -0.67616,-0.0279 -0.28142,0.11262 -0.19783,0.19621 0.21314,0.21314 0.37188,0.0153 0.58025,-0.0681 0.46302,-0.18529 z"
         id="path3961"
         inkscape:connector-curvature="0" />
      <path
         style="fill:#f2c92d;stroke-width:0.35277775"
         d="m 98.5214,147.81491 c -3.307576,-1.0679 -6.268083,-3.35814 -7.543408,-5.83555 -3.383273,-6.57224 0.403925,-15.8489 7.287245,-17.84993 1.059068,-0.30788 2.001123,-0.48423 2.093473,-0.39189 0.0923,0.0923 0.74649,0.0374 1.45367,-0.1221 0.70718,-0.1595 1.42794,-0.20213 1.60168,-0.0948 0.41973,0.2594 3.42694,0.37205 3.42819,0.12842 7e-4,-0.10482 0.63553,-0.20707 1.41111,-0.22722 0.77557,-0.0202 1.41013,0.1045 1.41013,0.277 0,0.1725 0.32125,0.14171 0.71389,-0.0684 1.18813,-0.63586 1.63277,0.21867 1.72308,3.31148 0.0945,3.23569 -0.46414,3.54083 -1.35673,0.74111 -0.50662,-1.5891 -0.66489,-1.75321 -1.96218,-2.03455 -0.77611,-0.16831 -2.91924,-0.23723 -4.7625,-0.15316 -2.62065,0.11953 -3.65907,0.32524 -4.7625,0.94344 -1.918383,1.07478 -3.282107,2.40385 -4.101693,3.99744 -0.862513,1.67707 -1.162432,7.26541 -0.479682,8.93784 0.246729,0.60438 0.33364,1.28487 0.193135,1.51221 -0.226422,0.36636 -0.953355,-0.93489 -1.55719,-2.78746 -0.117214,-0.35962 -0.179686,-0.3031 -0.194974,0.17639 -0.04098,1.28535 0.834878,3.59838 1.806729,4.77131 0.526894,0.63591 0.859554,1.31548 0.739242,1.51015 -0.120311,0.19467 -0.05951,0.25553 0.135112,0.13524 0.194622,-0.12028 0.655713,0.0557 1.024645,0.39108 1.143288,1.0393 3.657326,1.9704 5.377146,1.9915 0.97092,0.0119 1.61684,-0.13244 1.57816,-0.35267 -0.0393,-0.22394 0.61803,-0.35734 1.64603,-0.33402 2.83092,0.0642 3.18195,-0.20197 3.18195,-2.41268 0,-1.04915 -0.0965,-2.39004 -0.21444,-2.97976 -0.20237,-1.01185 -0.33145,-1.08579 -2.29306,-1.31346 -1.31054,-0.1521 -2.07861,-0.40572 -2.07861,-0.68636 0,-0.33572 1.04035,-0.43558 4.23327,-0.40633 2.55706,0.0234 4.23543,0.17846 4.23873,0.39155 0.003,0.2068 0.11272,0.19335 0.26465,-0.0325 0.14255,-0.2119 0.84265,-0.37264 1.55577,-0.35719 1.00236,0.0217 1.2127,0.12915 0.92694,0.47347 -0.2033,0.24495 -0.71533,0.44538 -1.13783,0.44538 -1.32637,0 -1.61486,0.6735 -1.61486,3.76999 v 2.92332 l -1.29331,0.54038 c -3.48236,1.45502 -9.82231,1.99105 -12.67101,1.0713 z m -4.139936,-4.71062 c -0.96515,-1.0074 -2.799056,-5.15124 -2.439062,-5.51124 0.109888,-0.10989 -0.0026,-0.1998 -0.250021,-0.1998 -0.316445,0 -0.375309,0.28766 -0.198525,0.97014 0.138211,0.53358 0.283146,1.12889 0.322077,1.32292 0.274235,1.36674 2.915265,4.99572 3.332236,4.57875 0.09701,-0.097 -0.248003,-0.61936 -0.766705,-1.16077 z m 15.875796,-0.13274 c -0.11262,-0.28142 -0.19621,-0.19783 -0.21314,0.21314 -0.0153,0.37188 0.0681,0.58025 0.18529,0.46302 0.11722,-0.11723 0.12975,-0.4215 0.0278,-0.67616 z m 1.69929,-3.46163 c 0.13187,-0.21337 -0.35606,-0.35278 -1.23472,-0.35278 -0.87867,0 -1.3666,0.13941 -1.23472,0.35278 0.11991,0.19403 0.67554,0.35278 1.23472,0.35278 0.55918,0 1.1148,-0.15875 1.23472,-0.35278 z m -20.070541,-2.9884 c -0.107214,-0.7305 -0.566958,-1.1202 -0.566958,-0.48058 0,0.46178 0.299531,0.99954 0.556748,0.99954 0.04751,0 0.0521,-0.23354 0.01021,-0.51896 z m 19.364981,-12.18104 c 0.27594,-0.44648 -0.19107,-0.44648 -0.88194,0 -0.45603,0.29471 -0.44672,0.34272 0.0674,0.34737 0.3281,0.003 0.69466,-0.15335 0.81457,-0.34737 z m -47.127931,23.26349 c -0.605984,-0.37452 -0.456038,-0.48162 1.239611,-0.88536 0.985865,-0.23475 1.552347,-0.63392 1.969579,-1.38786 0.322126,-0.58208 2.462195,-5.76944 4.755708,-11.52746 3.229086,-8.10684 4.303735,-10.45906 4.762597,-10.4245 0.38597,0.0291 0.595327,0.35825 0.600475,0.94414 0.0043,0.49472 0.507055,1.94674 1.11713,3.22671 0.610074,1.27997 1.109226,2.44365 1.109226,2.58595 0,0.14231 0.887038,2.34943 1.971196,4.90473 2.894252,6.82158 2.98611,7.03119 3.528449,8.05181 0.273667,0.515 0.498365,1.15 0.499329,1.41111 9.52e-4,0.2611 0.371704,0.93708 0.823868,1.50217 0.726091,0.90743 1.055249,1.03105 2.81811,1.05834 1.159272,0.018 1.947703,0.17878 1.880795,0.38367 -0.116439,0.35658 -10.406212,0.61763 -11.609942,0.29454 -1.164959,-0.31267 -0.617184,-0.7566 0.79375,-0.64327 0.776111,0.0623 1.411111,-0.0321 1.411111,-0.20993 0,-0.17781 0.338272,-0.32328 0.751714,-0.32328 0.652669,0 0.726171,-0.15107 0.557851,-1.14653 -0.106624,-0.63059 -0.600068,-2.05578 -1.096542,-3.16709 l -0.902681,-2.02055 -4.813837,0.0803 -4.813838,0.0803 -1.031943,2.80656 c -0.567569,1.54361 -1.202482,3.01205 -1.410918,3.2632 -0.256218,0.30872 -0.260058,0.45663 -0.01185,0.45663 0.201916,0 0.644271,0.10636 0.983011,0.23634 0.467841,0.17953 0.5433,0.11593 0.313912,-0.26458 -0.258236,-0.42836 -0.215084,-0.43043 0.297892,-0.0143 0.388303,0.31501 1.042496,0.41482 1.854871,0.28299 0.888939,-0.14425 1.213958,-0.0804 1.114292,0.21891 -0.165865,0.49812 -8.69316,0.70208 -9.462923,0.22634 z m 21.551548,-1.92044 c -0.241543,-0.29104 -0.573499,-0.52917 -0.73768,-0.52917 -0.16418,0 -0.207133,0.23813 -0.09545,0.52917 0.111683,0.29104 0.443638,0.52917 0.737679,0.52917 0.435218,0 0.452965,-0.0984 0.09545,-0.52917 z m -1.058334,-2.29305 c -0.581572,-1.40405 -0.826844,-1.15877 -0.31358,0.31358 0.217336,0.62345 0.477545,1.05115 0.578242,0.95046 0.100697,-0.1007 -0.0184,-0.66952 -0.264662,-1.26404 z m -0.937081,-2.39666 c -0.111948,-0.42809 -0.353145,-0.77834 -0.535994,-0.77834 -0.182849,0 -0.268187,0.11906 -0.18964,0.26458 0.07855,0.14552 0.250403,0.56512 0.381902,0.93244 0.321745,0.89874 0.599707,0.56017 0.343732,-0.41868 z m -0.826807,-1.66029 c -0.241543,-0.29104 -0.597919,-0.52916 -0.791947,-0.52916 -0.196789,0 -0.158589,0.23398 0.08639,0.52916 0.241543,0.29104 0.597919,0.52917 0.791947,0.52917 0.196789,0 0.158589,-0.23399 -0.08639,-0.52917 z m -9.285669,-0.88194 c 0.103913,0 0.107709,0.21166 0.0084,0.47037 -0.09928,0.2587 0.04249,0.47037 0.315034,0.47037 0.272543,0 0.495532,-0.23627 0.495532,-0.52505 0,-0.44344 0.100269,-0.4343 0.64514,0.0588 0.354826,0.32111 0.791388,0.58141 0.970138,0.57844 0.17875,-0.003 0.08687,-0.16616 -0.204167,-0.36263 -0.386528,-0.26094 -0.129346,-0.32172 0.954104,-0.22551 0.815798,0.0725 1.66908,-0.0422 1.89618,-0.25473 0.301083,-0.28179 0.45803,-0.26304 0.579509,0.0692 0.122116,0.33402 0.290033,0.35325 0.628903,0.072 0.375971,-0.31203 0.307022,-0.77991 -0.369203,-2.50543 -1.307783,-3.33706 -3.063349,-7.01811 -3.347075,-7.01811 -0.253045,0 -2.094149,4.12998 -3.357264,7.53105 -0.349335,0.94061 -0.873859,1.80181 -1.16561,1.91377 -0.430505,0.1652 -0.403816,0.24798 0.141641,0.43931 0.387576,0.13596 0.872687,0.0352 1.145933,-0.23808 0.26061,-0.26061 0.558856,-0.47383 0.66277,-0.47383 z m 8.016756,-2.23323 c -0.308715,-0.90603 -0.724565,-1.64733 -0.924112,-1.64733 -0.24173,0 -0.246006,0.14717 -0.01281,0.44097 0.192499,0.24254 0.545259,1.04693 0.783911,1.78753 0.238651,0.7406 0.497002,1.28346 0.574113,1.20635 0.07711,-0.0771 -0.112385,-0.8815 -0.4211,-1.78752 z m -1.101974,-2.71965 c -0.103491,-0.39575 -0.266991,-0.64073 -0.363332,-0.54438 -0.19085,0.19085 0.146258,1.26392 0.397065,1.26392 0.08494,0 0.06976,-0.32379 -0.03373,-0.71954 z m -0.907017,-2.08921 c -0.216917,-0.57468 -0.448978,-0.99029 -0.515692,-0.92358 -0.219985,0.21999 0.336229,1.96845 0.626196,1.96845 0.15614,0 0.106413,-0.4702 -0.110504,-1.04487 z m -1.308207,-2.83569 c -0.395942,-0.77611 -0.961218,-1.41111 -1.256169,-1.41111 -0.39226,0 -0.295599,0.25956 0.359948,0.96653 0.492921,0.5316 0.896221,1.1666 0.896221,1.41111 0,0.24452 0.161976,0.44458 0.359947,0.44458 0.197972,0 0.03599,-0.635 -0.359947,-1.41111 z m 38.805556,18.85327 c 0,-0.25574 0.27781,-0.47586 0.61736,-0.48916 2.80152,-0.10975 3.15852,-0.35228 3.40434,-2.31272 0.23979,-1.9124 0.27722,-19.54041 0.0423,-19.92053 -0.20829,-0.33703 -2.91412,-0.8984 -3.65842,-0.759 -0.26201,0.0491 -0.38685,-0.0556 -0.27742,-0.2327 0.21925,-0.35474 7.69442,-0.29973 8.27797,0.0609 0.20051,0.12393 0.46588,0.0614 0.58971,-0.13897 0.12383,-0.20036 0.38454,-0.26577 0.57935,-0.14537 0.61246,0.37852 4.52112,0.36144 4.68095,-0.0205 0.0836,-0.19983 0.16459,-0.15553 0.1799,0.0985 0.0153,0.25398 0.17677,0.36975 0.35879,0.25726 0.18201,-0.11249 1.01545,-0.29515 1.85208,-0.40591 1.43813,-0.1904 1.48264,-0.1707 0.8156,0.36096 -0.47518,0.37873 -0.52072,0.49857 -0.13948,0.36703 0.45706,-0.1577 0.60934,0.16486 0.79069,1.67483 0.48596,4.04641 0.0243,4.665 -1.06673,1.42917 l -0.68391,-2.02847 -3.59744,0.0197 c -1.9786,0.0108 -3.74626,0.16956 -3.92813,0.35278 -0.18188,0.18321 -0.37941,2.15874 -0.43896,4.39006 -0.0907,3.40002 -0.1967,4.05093 -0.6544,4.01982 -0.30038,-0.0204 -0.56702,0.24008 -0.59254,0.57888 -0.0426,0.5661 0.0945,0.57884 1.69267,0.15725 1.29074,-0.34049 1.74045,-0.3533 1.74446,-0.0497 0.004,0.25939 0.10023,0.27997 0.26458,0.0563 0.14255,-0.19403 1.04072,-0.35923 1.99594,-0.36712 1.64643,-0.0136 1.77269,-0.0836 2.42812,-1.3466 0.41353,-0.79685 0.81993,-1.2037 1.01127,-1.01236 0.43315,0.43315 0.21169,6.7827 -0.23725,6.80246 -0.19403,0.009 -0.44651,-0.44276 -0.56107,-1.00289 -0.35963,-1.75838 -0.52811,-1.83877 -3.85402,-1.83877 h -3.13873 l -0.10365,2.55764 c -0.057,1.4067 -0.0179,3.47539 0.0868,4.59708 0.20506,2.19608 -0.11648,3.28888 -0.70041,2.3805 -0.41652,-0.64794 -0.81676,-0.30772 -0.52683,0.44783 0.26571,0.69242 1.52006,0.91876 2.40582,0.43412 0.48349,-0.26453 0.70677,-0.24338 0.82315,0.078 0.0878,0.24254 0.42428,0.43854 0.74766,0.43557 0.51084,-0.005 0.51855,-0.053 0.0588,-0.36852 -0.41954,-0.28789 -0.34645,-0.34384 0.35277,-0.27007 0.48507,0.0512 1.06942,-0.0237 1.29854,-0.1664 0.22913,-0.1427 0.52108,-0.0904 0.64877,0.11622 0.15875,0.25686 0.40773,0.23079 0.7873,-0.0824 0.42914,-0.35412 0.58803,-0.36038 0.70008,-0.0275 0.30811,0.91525 2.56253,-2.24137 2.56253,-3.58804 0,-0.30067 0.26024,-0.54668 0.57831,-0.54668 0.4907,0 0.54461,0.28055 0.35584,1.85208 -0.12235,1.01865 -0.22384,2.367 -0.22552,2.99633 l -0.003,1.14425 -9.17222,-0.04 c -7.33486,-0.032 -9.17222,-0.13313 -9.17222,-0.50496 z m 6.70277,-1.56716 c 0,-0.19403 -0.27781,-0.35035 -0.61736,-0.34738 -0.52759,0.005 -0.54042,0.0551 -0.0882,0.34738 0.66576,0.43025 0.70555,0.43025 0.70555,0 z m 0.47452,-3.01383 c -0.1149,-0.29941 -0.28456,-0.46872 -0.37703,-0.37624 -0.0925,0.0925 -0.0635,0.33744 0.0644,0.54438 0.34785,0.56284 0.55117,0.4535 0.31263,-0.16814 z m -1.00368,-1.57228 c 0.11991,-0.19403 0.0499,-0.35278 -0.15557,-0.35278 -0.20548,0 -0.3736,0.15875 -0.3736,0.35278 0,0.19403 0.07,0.35278 0.15557,0.35278 0.0856,0 0.25368,-0.15875 0.3736,-0.35278 z m 1.05833,0 c 0.11992,-0.19403 0.0499,-0.35278 -0.15557,-0.35278 -0.20548,0 -0.3736,0.15875 -0.3736,0.35278 0,0.19403 0.07,0.35278 0.15557,0.35278 0.0856,0 0.25368,-0.15875 0.3736,-0.35278 z m -0.99953,-2.98309 c 0,-0.28251 -0.13489,-0.43029 -0.29974,-0.3284 -0.16486,0.10188 -0.20841,0.33302 -0.0968,0.51364 0.28526,0.46157 0.39651,0.4096 0.39651,-0.18524 z m 1.17592,-1.60302 c 0,-0.19403 -0.15875,-0.35278 -0.35278,-0.35278 -0.19403,0 -0.35278,0.15875 -0.35278,0.35278 0,0.19403 0.15875,0.35278 0.35278,0.35278 0.19403,0 0.35278,-0.15875 0.35278,-0.35278 z m -1.16664,-5.19676 c -0.0894,-0.34324 -0.16851,-0.14782 -0.1757,0.43426 -0.007,0.58208 0.066,0.86292 0.16263,0.62407 0.0966,-0.23884 0.10251,-0.71509 0.0131,-1.05833 z m 1.69581,-6.79769 c 0.13263,-0.21461 -0.37733,-0.35066 -1.3021,-0.34737 -1.11146,0.004 -1.37786,0.0973 -0.99096,0.34737 0.69246,0.4475 2.01649,0.4475 2.29306,0 z m -38.411305,20.07636 c -0.365245,-0.85553 -1.030962,-2.33926 -1.479373,-3.29716 -0.826809,-1.76623 -0.78088,-2.95035 0.06934,-1.78761 0.255209,0.34902 0.380358,0.76994 0.278108,0.93539 -0.102249,0.16544 -0.0084,0.3008 0.20851,0.3008 0.216929,0 0.285335,0.1765 0.152012,0.39222 -0.133322,0.21572 -0.05767,0.50639 0.16812,0.64594 0.225788,0.13954 0.49394,0.71373 0.595892,1.27596 0.101952,0.56223 0.348319,1.12295 0.547482,1.24604 0.199162,0.12309 0.308536,0.58833 0.243053,1.03388 -0.09956,0.67738 -0.227833,0.55528 -0.783141,-0.74546 z M 83.693669,138.187 c -0.12677,-0.53357 -0.471899,-1.24795 -0.766953,-1.5875 -0.295054,-0.33954 -0.430352,-0.61736 -0.300662,-0.61736 0.12969,0 -0.0045,-0.57501 -0.298102,-1.2778 -0.63611,-1.52243 -0.664433,-1.8972 -0.14338,-1.8972 0.214787,0 0.299144,0.23813 0.187461,0.52917 -0.111683,0.29104 -0.03992,0.52917 0.159466,0.52917 0.199389,0 0.272322,0.14595 0.162074,0.32433 -0.110248,0.17839 0.03913,0.56392 0.331958,0.85675 0.292825,0.29283 0.532409,0.83696 0.532409,1.20918 0,0.37223 0.314205,1.03906 0.698233,1.48185 0.384028,0.44279 0.612784,0.94333 0.508347,1.11231 -0.366369,0.5928 -0.84255,0.29802 -1.070851,-0.6629 z m -3.264497,-7.5899 c -0.459642,-1.20982 -1.213704,-3.03782 -1.675694,-4.06222 -0.930888,-2.06411 -1.019338,-2.54718 -0.466384,-2.54718 0.205478,0 0.275485,0.15875 0.155569,0.35278 -0.119916,0.19402 -0.04054,0.35277 0.176389,0.35277 0.216929,0 0.307421,0.14077 0.201092,0.31281 -0.106328,0.17204 0.0413,0.50753 0.328074,0.74553 0.286769,0.238 0.434402,0.57348 0.328074,0.74553 -0.106329,0.17204 -0.0082,0.3128 0.218016,0.3128 0.226238,0 0.324418,0.22652 0.218179,0.50338 -0.10624,0.27685 0.03936,0.69635 0.323559,0.93221 0.284198,0.23586 0.434888,0.51068 0.334869,0.6107 -0.100019,0.10002 -0.005,0.39489 0.21106,0.65528 0.216101,0.26039 0.302357,0.47343 0.191679,0.47343 -0.110678,0 -0.03528,0.47606 0.167558,1.05792 0.226591,0.65 0.525572,0.96395 0.775398,0.81422 0.223635,-0.13403 0.188732,0.0249 -0.07756,0.3532 -0.266292,0.32828 -0.504417,0.59455 -0.529167,0.59171 -0.02475,-0.003 -0.421069,-0.99504 -0.880711,-2.20487 z"
         id="path3959"
         inkscape:connector-curvature="0" />
      <path
         style="fill:#d6ad1a;stroke-width:0.35277775"
         d="m 98.727384,147.83604 c -2.268212,-0.64426 -3.736091,-1.47565 -5.538133,-3.13671 -6.272254,-5.78156 -3.794335,-16.75356 4.578723,-20.27417 1.291539,-0.54305 1.754804,-0.23472 0.782466,0.52079 -0.616522,0.47903 -0.6239,0.51969 -0.05879,0.32393 0.355418,-0.12312 0.712605,-0.22385 0.793751,-0.22385 0.08114,0 0.160069,-0.27781 0.175387,-0.61736 0.01531,-0.33955 0.09458,-0.45861 0.176131,-0.26458 0.09229,0.21956 1.998931,0.30702 5.049031,0.23162 3.05659,-0.0756 5.16743,0.0216 5.60944,0.25812 0.55197,0.29541 0.75304,0.26369 0.90927,-0.14342 0.46667,-1.21613 0.76517,-0.33936 0.78607,2.30893 0.0249,3.15423 -0.43911,3.5676 -1.17019,1.04251 -0.24527,-0.84715 -0.56626,-1.65903 -0.7133,-1.80417 -0.71397,-0.70471 -7.1701,-0.94494 -9.18751,-0.34187 -2.804174,0.83827 -5.359745,3.2151 -6.215458,5.78075 -0.318085,0.9537 -0.575118,2.94874 -0.590853,4.58611 -0.02277,2.37007 -0.09241,2.72133 -0.382176,1.92795 -0.194879,-0.53358 -0.478016,-0.97014 -0.629193,-0.97014 -0.651461,0 0.446976,4.21018 1.518656,5.82083 l 0.704184,1.05833 -0.913732,-0.82625 c -1.306699,-1.18161 -2.380885,-4.35963 -2.433438,-7.19944 -0.02424,-1.30969 -0.182354,-2.38125 -0.35137,-2.38125 -0.169016,0 -0.303816,1.23031 -0.299554,2.73403 0.009,3.17913 0.64709,4.8935 2.64404,7.10389 1.202786,1.33133 2.319954,2.00755 1.724246,1.04368 -0.157207,-0.25437 -0.09664,-0.31144 0.161324,-0.15201 0.227172,0.1404 0.332475,0.38563 0.234007,0.54495 -0.210968,0.34135 1.367785,1.12357 3.973637,1.9688 1.39829,0.45355 2.50329,0.55215 4.40972,0.39348 1.39914,-0.11645 2.65162,-0.21613 2.78328,-0.2215 0.13166,-0.005 0.48885,-0.25923 0.79375,-0.56413 0.57638,-0.57639 0.75221,-3.30707 0.34428,-5.34675 -0.19258,-0.96288 -0.37414,-1.0768 -2.17864,-1.36701 -1.08271,-0.17413 -2.02386,-0.4868 -2.09145,-0.69481 -0.1525,-0.46932 4.83592,0.0637 5.34313,0.5709 0.18507,0.18506 0.62224,0.33648 0.97149,0.33648 0.40909,0 0.65209,0.28238 0.68304,0.79375 0.0479,0.79055 0.0486,0.79065 0.19757,0.0256 0.21255,-1.09191 0.97144,-1.60733 2.76808,-1.87999 1.28526,-0.19506 1.49492,-0.15302 1.17276,0.23516 -0.21576,0.25998 -0.75029,0.47269 -1.18784,0.47269 -1.34041,0 -1.73425,0.89371 -1.74967,3.97034 l -0.0142,2.83784 -1.41111,0.50927 c -3.99995,1.44358 -9.13997,1.86957 -12.170832,1.00867 z m 12.141976,-2.54303 c 0.70703,-0.27131 0.72496,-1.15506 0.0289,-1.42218 -0.29104,-0.11169 -0.52917,-0.36181 -0.52917,-0.55584 0,-0.19403 0.22499,-0.26644 0.49997,-0.16092 0.61788,0.2371 0.95716,-0.53372 0.53113,-1.2067 -0.28464,-0.44962 -0.47441,-0.20527 -0.36732,0.47297 0.023,0.14552 -0.10635,0.26458 -0.28741,0.26458 -0.18104,0 -0.31557,-0.47849 -0.29895,-1.0633 0.0166,-0.58482 -0.083,-1.17652 -0.22136,-1.31491 -0.13838,-0.13838 -0.21617,0.7304 -0.17286,1.93062 0.0433,1.20022 0.20072,2.10683 0.34979,2.0147 0.14907,-0.0921 0.37075,-0.006 0.49262,0.19103 0.12187,0.19719 -0.0259,0.35853 -0.3284,0.35853 -0.30249,0 -0.54998,0.15875 -0.54998,0.35277 0,0.41124 0.10027,0.42754 0.85309,0.13865 z m -17.572445,-9.49606 c 0.04178,-0.28466 -0.06865,-0.60693 -0.245396,-0.71617 -0.176746,-0.10924 -0.321357,0.23409 -0.321357,0.76295 0,0.96262 0.423738,0.92764 0.566753,-0.0468 z m 0.01641,-3.25439 c 0.0032,-0.53358 0.122177,-1.32733 0.264303,-1.76389 0.159129,-0.48879 0.113739,-0.79375 -0.118139,-0.79375 -0.207103,0 -0.37655,0.40625 -0.37655,0.90277 0,0.49652 -0.140763,0.81576 -0.312806,0.70944 -0.172043,-0.10633 -0.508981,0.043 -0.748751,0.33195 -0.264633,0.31887 -0.291893,0.52529 -0.06937,0.52529 0.201617,0 0.454561,-0.19844 0.562099,-0.44098 0.131212,-0.29593 0.18515,-0.26692 0.163988,0.0882 -0.05772,0.96856 0.04913,1.41111 0.340699,1.41111 0.15875,0 0.291288,-0.43656 0.294528,-0.97014 z m 1.175323,-4.07085 c 0.003,-0.15317 -0.216061,-0.0738 -0.486737,0.17639 -0.270677,0.25018 -0.409583,0.59089 -0.308681,0.75712 0.183002,0.3015 0.78517,-0.40522 0.795418,-0.93351 z m 1.240124,-1.30901 c 0.351185,-0.38806 0.559144,-0.70556 0.46213,-0.70556 -0.09701,0 -0.463723,0.3175 -0.814908,0.70556 -0.351185,0.38805 -0.559144,0.70555 -0.46213,0.70555 0.09701,0 0.463722,-0.3175 0.814908,-0.70555 z m 1.632498,-1.32292 c 0.43881,-0.55952 0.426333,-0.572 -0.133193,-0.13319 -0.339548,0.26629 -0.617361,0.5441 -0.617361,0.61736 0,0.29035 0.289696,0.10347 0.750554,-0.48417 z M 64.237045,147.7099 c -0.731099,-0.2437 -0.483234,-0.78382 0.359091,-0.78249 2.379606,0.004 2.197891,0.28204 5.880024,-9.00499 1.38471,-3.4925 2.658829,-6.6675 2.831375,-7.05555 0.172547,-0.38806 0.908562,-2.25126 1.635588,-4.14046 1.058728,-2.75113 1.41572,-3.35701 1.793341,-3.04361 0.259312,0.21521 0.471477,0.60955 0.471477,0.87632 0,0.26677 0.460025,1.47764 1.022277,2.69083 1.854113,4.00068 2.469368,5.55719 2.196639,5.55719 -0.148053,0 -0.780208,-1.15093 -1.404789,-2.55764 -1.48076,-3.33501 -2.079279,-4.15217 -2.519506,-3.43986 -0.23471,0.37976 -0.0874,0.72161 0.531343,1.233 0.763205,0.63079 3.349035,5.58924 3.349035,6.42193 0,0.18024 0.400378,1.11136 0.889728,2.06917 0.982633,1.9233 0.83127,0.8685 -0.22619,-1.57625 -0.369653,-0.85461 -0.59752,-1.6284 -0.506372,-1.71955 0.180751,-0.18075 1.419722,2.4747 3.090955,6.62476 0.586014,1.45521 1.225608,2.84427 1.42132,3.0868 0.195712,0.24254 0.25295,0.44098 0.127196,0.44098 -0.125755,0 0.02526,0.491 0.335594,1.09111 0.310331,0.60012 0.477147,1.17821 0.370703,1.28466 -0.16389,0.16388 -1.622378,-2.81067 -1.622378,-3.30881 0,-0.76527 -1.925466,-4.00585 -2.380169,-4.00585 -0.470869,0 -0.444243,0.13229 0.159756,0.79375 1.120367,1.22695 2.890126,5.71957 2.640394,6.70277 -0.03696,0.14553 0.377296,0.26459 0.920574,0.26459 0.543278,0 1.155664,0.16788 1.360858,0.37308 0.205195,0.20519 1.264723,0.4651 2.354509,0.57758 1.089785,0.11248 1.920334,0.30335 1.845664,0.42417 -0.124747,0.20185 -10.043241,0.22569 -11.664086,0.0281 -0.580496,-0.0708 1.330411,-0.50763 3.301758,-0.75479 0.679575,-0.0852 0.342357,-2.11235 -0.765318,-4.60062 l -0.895773,-2.01226 -4.874376,0.072 -4.874375,0.072 -1.081917,2.99861 c -0.751282,2.08223 -1.23731,2.96396 -1.590402,2.88522 -0.399906,-0.0892 -0.416973,-0.0203 -0.07993,0.32272 0.235707,0.23987 1.307269,0.50899 2.38125,0.59805 1.073981,0.0891 1.952692,0.26494 1.952692,0.39085 0,0.24807 -8.023405,0.36063 -8.737562,0.12258 z m 15.763837,-8.8581 c 0.183968,-0.2977 -0.01627,-1.28285 -0.524192,-2.5789 -1.302157,-3.3227 -3.054821,-6.99353 -3.339111,-6.99353 -0.143197,0 -0.503078,0.51593 -0.799736,1.14652 -1.391431,2.95769 -2.311235,5.22196 -2.534817,6.23992 -0.134556,0.61263 -0.54787,1.30323 -0.918477,1.53468 -1.528379,0.95449 -0.765324,1.16316 4.189769,1.14578 2.675415,-0.009 3.707093,-0.13931 3.926564,-0.49447 z m 37.309488,8.69394 c -0.25068,-0.15944 -0.0658,-0.27673 0.46701,-0.2963 3.25167,-0.11943 3.32004,-0.27136 3.52778,-7.83979 0.097,-3.53436 0.097,-8.32145 0,-10.63797 l -0.17639,-4.21184 -1.14653,-0.29616 c -0.63059,-0.16288 -1.14652,-0.43349 -1.14652,-0.60135 0,-0.43932 2.88322,0.27123 3.55034,0.87496 0.65417,0.59201 2.14278,0.67173 2.67145,0.14306 0.20255,-0.20255 2.48641,-0.42132 5.11986,-0.49042 l 4.75418,-0.12475 0.007,1.64389 c 0.004,0.90415 0.11612,2.07734 0.24908,2.6071 0.45754,1.82296 -0.39498,0.96055 -1.05304,-1.06528 l -0.65894,-2.02847 -3.8058,-0.0328 c -2.09319,-0.018 -3.88678,0.0983 -3.98576,0.25843 -0.099,0.16015 -0.21199,2.11954 -0.25115,4.35421 -0.0521,2.97723 -0.18902,4.06305 -0.51215,4.0631 -0.32713,6e-5 -0.4488,-1.11554 -0.47129,-4.32145 -0.0172,-2.45401 -0.14221,-3.9404 -0.28924,-3.43958 -0.25806,0.87905 -0.25193,8.76038 0.007,8.93049 0.0749,0.0492 1.81496,0.0307 3.86674,-0.0411 l 3.73052,-0.13062 0.5356,-1.46897 c 0.29458,-0.80793 0.6796,-1.42842 0.8556,-1.37885 0.3617,0.10187 0.4465,6.77615 0.0889,6.99842 -0.12709,0.079 -0.44459,-0.53112 -0.70555,-1.35579 l -0.47449,-1.49942 -3.22129,-0.10087 -3.22129,-0.10089 -0.15116,1.0299 c -0.0831,0.56644 -0.13031,2.71527 -0.10484,4.77518 0.0255,2.05991 -0.0625,3.74529 -0.19557,3.74529 -0.28691,0 -0.69057,-2.7095 -0.69057,-4.63535 0,-0.74903 -0.1707,-1.36187 -0.37933,-1.36187 -0.39876,0 -0.23237,5.28148 0.20168,6.4016 0.28691,0.7404 1.14911,0.89587 5.15916,0.93028 l 3.25172,0.0279 0.98467,-1.82781 c 0.54156,-1.00529 0.99096,-2.10063 0.99866,-2.43409 0.009,-0.41095 0.19758,-0.53584 0.5838,-0.38764 0.46661,0.17906 0.52219,0.51249 0.30686,1.84102 -0.14462,0.89229 -0.26766,2.14451 -0.27343,2.78271 l -0.0105,1.16035 -8.78909,-0.0973 c -4.83399,-0.0535 -8.9758,-0.21606 -9.20402,-0.36121 z m 6.50649,-1.81129 c -0.2183,-0.26304 -0.43575,-1.53304 -0.48321,-2.82222 -0.12214,-3.31711 -0.60282,-2.92117 -0.58061,0.47825 0.017,2.60135 0.0749,2.82222 0.73959,2.82222 0.5669,0 0.63625,-0.1023 0.32423,-0.47825 z m -0.43681,-5.78356 c -0.023,-0.14552 -0.0118,-1.13771 0.0248,-2.20486 0.0424,-1.23438 0.16023,-1.70216 0.32401,-1.28577 0.14159,0.35998 0.22562,1.11404 0.18673,1.67569 -0.0389,0.56166 0.0801,1.02119 0.26438,1.02119 0.18429,0 0.29886,-0.79375 0.25459,-1.76389 -0.0502,-1.10063 -0.24101,-1.76388 -0.50741,-1.76388 -0.23481,0 -0.41955,-0.19844 -0.41054,-0.44098 0.0687,-1.85048 -0.13275,-5.63587 -0.29151,-5.47711 -0.32036,0.32036 -0.41161,10.5042 -0.0941,10.5042 0.15997,0 0.27205,-0.11907 0.24907,-0.26459 z m 0.0418,-12.08264 c 0,-0.77611 -0.12326,-1.41111 -0.27391,-1.41111 -0.15065,0 -0.21335,0.635 -0.13933,1.41111 0.074,0.77612 0.19727,1.41112 0.2739,1.41112 0.0766,0 0.13934,-0.635 0.13934,-1.41112 z"
         id="path3957"
         inkscape:connector-curvature="0" />
      <path
         style="fill:#90720a;stroke-width:0.35277775"
         d="m 98.524044,147.6653 c -3.823187,-1.09473 -6.192558,-3.10146 -7.79523,-6.60216 -2.269041,-4.95623 0.05809,-12.47601 4.647181,-15.01669 0.583184,-0.32287 0.552592,-0.21458 -0.176389,0.62434 -0.485069,0.55823 -0.961766,1.09571 -1.059325,1.19441 -0.659674,0.66735 -2.116642,3.23527 -2.503692,4.41278 -0.757479,2.30444 -0.602554,6.78745 0.29366,8.49747 2.281362,4.35296 7.267649,6.79124 13.053151,6.38295 1.61125,-0.11371 3.08528,-0.303 3.27564,-0.42065 0.45048,-0.27841 0.45208,-6.41515 0.002,-6.69347 -0.18941,-0.11706 -1.14654,-0.30784 -2.12697,-0.42395 -0.98043,-0.11612 -1.8818,-0.37164 -2.00305,-0.56784 -0.34742,-0.56212 4.56621,0.0543 5.16468,0.64791 0.35934,0.35643 0.51848,1.33659 0.52916,3.2591 l 0.0153,2.74937 0.92836,-0.13477 c 1.45904,-0.21182 1.54249,0.55484 0.12487,1.14716 -1.718,0.71783 -6.57942,1.61383 -8.58873,1.58297 -0.9002,-0.0138 -2.601352,-0.30134 -3.780341,-0.63893 z m 23.133896,-0.0582 c -2.42535,-0.10619 -3.6751,-0.22525 -2.77722,-0.26458 0.89787,-0.0393 1.7927,-0.26995 1.98852,-0.51248 0.40095,-0.49662 0.87838,-18.84136 0.54398,-20.90203 -0.14012,-0.86344 -0.45781,-1.39537 -0.95288,-1.59545 -0.69714,-0.28175 -0.68732,-0.30153 0.16003,-0.32252 0.4965,-0.0123 1.1885,0.18661 1.53779,0.44202 0.59264,0.43334 0.62661,1.18816 0.5084,11.29402 l -0.12668,10.82963 1.05834,0.0156 c 0.58208,0.009 2.96333,0.0961 5.29166,0.19444 l 4.23334,0.17886 0.79375,-1.8146 c 0.43656,-0.99803 0.79374,-1.96096 0.79374,-2.13984 0,-0.17888 0.16434,-0.32524 0.36519,-0.32524 0.25174,0 0.25174,0.21199 0,0.68236 -0.20085,0.37528 -0.36519,0.99085 -0.36519,1.3679 0,0.37705 -0.23495,0.88055 -0.52212,1.11887 -0.4529,0.37588 -0.41782,0.52037 0.26459,1.0898 0.43268,0.36106 0.62795,0.68177 0.43392,0.7127 -0.9567,0.15251 -9.33165,0.1212 -13.22916,-0.0494 z m -56.186412,-0.3149 c 1.723608,-0.28089 1.570482,-0.14285 2.175752,-1.96147 0.46117,-1.38564 0.676285,-1.92328 2.329002,-5.82083 1.466142,-3.45756 3.223502,-7.8494 4.764181,-11.90625 0.828973,-2.18281 1.626922,-3.96875 1.773219,-3.96875 0.523003,0 0.630796,0.98526 0.198876,1.81778 -0.8498,1.638 -0.908736,2.41555 -0.183089,2.41555 0.443181,0 0.958404,0.57588 1.537299,1.71827 1.35779,2.67947 3.419166,7.80702 3.473783,8.64082 0.02714,0.41438 0.246976,0.91216 0.488518,1.10619 0.550153,0.44193 2.587204,5.52123 2.587204,6.45108 0,0.54072 0.322845,0.73688 1.499306,0.91099 4.761683,0.70468 4.574435,0.83967 -1.146528,0.82655 -3.201525,-0.007 -4.94773,-0.10653 -3.880555,-0.22043 1.866914,-0.19925 1.944357,-0.24908 2.048162,-1.31793 0.06575,-0.67703 -0.306209,-2.02411 -0.952455,-3.44937 l -1.06034,-2.33853 -5.039809,0.098 -5.039809,0.098 -0.703002,2.20487 c -0.386652,1.21267 -0.820463,2.20486 -0.964025,2.20486 -0.143562,0 -0.159652,-0.26417 -0.03575,-0.58704 0.151467,-0.39472 0.09005,-0.50347 -0.187461,-0.33196 -0.497697,0.30759 -0.551541,1.27177 -0.07102,1.27177 0.187939,0 0.245221,0.25144 0.127295,0.55875 -0.151204,0.39403 -0.289461,0.43731 -0.469001,0.14681 -0.181792,-0.29415 -0.312695,-0.26052 -0.457797,0.11762 -0.258042,0.67244 0.466026,0.99421 2.927242,1.30082 1.41109,0.17579 0.68947,0.24382 -2.645834,0.24943 -2.863029,0.005 -4.025257,-0.0837 -3.093357,-0.23557 z m 14.911412,-8.46489 c 0,-0.66464 -3.583256,-9.36826 -4.04838,-9.83338 -0.331701,-0.3317 -1.528532,1.33737 -1.787897,2.49335 -0.120096,0.53527 -0.35322,0.88987 -0.518052,0.788 -0.164833,-0.10187 -0.414568,6.4e-4 -0.554968,0.22782 -0.159428,0.25796 -0.102354,0.31853 0.152013,0.16132 0.52421,-0.32398 0.529583,-0.35832 -0.298271,1.90659 -0.388055,1.06168 -0.705555,1.98162 -0.705555,2.04431 0,0.0627 -0.156932,0.017 -0.348737,-0.10153 -0.207147,-0.12803 -0.254422,0.0303 -0.116439,0.38983 0.146878,0.38275 0.09437,0.52011 -0.142797,0.37354 -0.2142,-0.13239 -0.475675,0.16891 -0.609575,0.70241 -0.152197,0.6064 -0.07256,1.03693 0.226951,1.22688 0.253786,0.16096 2.326742,0.29508 4.606569,0.29805 3.865325,0.005 4.145138,-0.0407 4.145138,-0.67719 z m 5.100772,6.65634 c -0.127894,-0.20693 -0.156874,-0.45191 -0.0644,-0.54438 0.09247,-0.0925 0.262137,0.0768 0.377031,0.37625 0.238543,0.62163 0.03523,0.73097 -0.312631,0.16813 z m 38.073598,-0.13231 c -0.10734,-0.27971 -0.13298,-0.79565 -0.057,-1.14653 0.0863,-0.39836 0.20703,-0.20735 0.32151,0.50856 0.19213,1.20139 0.0673,1.50256 -0.26452,0.63797 z m -30.44652,-4.63611 c 0.01693,-0.41097 0.100521,-0.49456 0.213137,-0.21314 0.101907,0.25466 0.08937,0.55893 -0.02785,0.67616 -0.117225,0.11722 -0.200604,-0.0911 -0.185287,-0.46302 z m 18.89089,-1.01934 c 0.10966,-0.28577 0.73116,-0.61934 1.38111,-0.74127 1.51284,-0.28381 2.44906,0.0363 1.0432,0.35671 -0.58208,0.13265 -1.33399,0.39035 -1.6709,0.57266 -0.83967,0.45435 -0.98593,0.41783 -0.75341,-0.1881 z M 92.49912,139.3183 c -0.114895,-0.29941 -0.130074,-0.62321 -0.03373,-0.71955 0.09634,-0.0963 0.259841,0.14863 0.363332,0.54438 0.219834,0.84065 -0.02442,0.97045 -0.329599,0.17517 z m -9.741557,-0.48568 c -0.15345,-0.58679 -0.107538,-0.72452 0.154247,-0.46274 0.205,0.205 0.303316,0.58096 0.21848,0.83547 -0.08807,0.26421 -0.247982,0.1043 -0.372727,-0.37273 z M 132.51831,137.441 c -0.43354,-1.10369 -0.77322,-1.46773 -1.39519,-1.49523 -1.85815,-0.0822 -5.71847,0.0774 -5.99419,0.24784 -0.1628,0.10061 -0.29599,-0.0615 -0.29599,-0.36033 0,-0.7313 1.00081,-0.90197 4.75218,-0.81037 l 3.16468,0.0773 0.27317,1.5875 c 0.3769,2.19032 0.17702,2.48869 -0.50466,0.75332 z m -40.452781,-1.54707 c 0.04252,-1.92438 0.18118,-1.73959 0.397071,0.52917 0.06924,0.7276 -9.88e-4,1.32291 -0.156054,1.32291 -0.155067,0 -0.263524,-0.83344 -0.241017,-1.85208 z m 40.191651,-1.69333 c 0.009,-0.28134 0.2449,-0.98778 0.52476,-1.56987 l 0.50885,-1.05833 -0.20915,1.23472 c -0.21411,1.26405 -0.85408,2.3457 -0.82446,1.39348 z m -38.101783,-3.43947 c -0.03964,-2.27667 2.796414,-4.99435 6.162833,-5.9056 1.71999,-0.46558 3.15883,-0.56989 6.15679,-0.44637 2.15174,0.0886 4.07748,0.32641 4.27941,0.52835 0.47178,0.47178 1.35026,4.69461 0.97662,4.69461 -0.15527,0 -0.50014,-0.75406 -0.76637,-1.67569 -0.64787,-2.24282 -1.46262,-2.60411 -5.99556,-2.65862 -3.29432,-0.0396 -3.76534,0.0412 -5.616088,0.964 -2.080639,1.03738 -3.663129,2.50326 -4.630297,4.2891 -0.519226,0.95874 -0.554081,0.97165 -0.567338,0.21022 z m 40.014223,-3.59845 -0.70067,-1.94028 -3.82605,-0.10051 c -2.2362,-0.0587 -4.00605,0.0489 -4.25921,0.25899 -0.30977,0.25708 -0.43316,0.20805 -0.43316,-0.17212 0,-0.76479 0.97872,-0.91013 5.35046,-0.79453 l 3.88056,0.10262 0.44264,1.76388 c 0.64649,2.57619 0.35881,3.13434 -0.45457,0.88195 z m -56.344318,0.51645 c -0.339549,-0.45406 -0.614687,-1.03382 -0.611418,-1.28837 0.0033,-0.25454 0.340572,0.0598 0.749562,0.69851 0.868284,1.35601 0.7649,1.79744 -0.138144,0.58986 z"
         id="path3955"
         inkscape:connector-curvature="0" />
      <path
         style="fill:#382c02;stroke-width:0.35277775"
         d="m 100.1811,147.89131 c -2.664355,-0.38585 -4.67617,-1.36475 -6.704983,-3.26246 -2.633402,-2.46324 -3.368752,-4.25059 -3.339713,-8.11754 0.01634,-2.17594 0.212662,-3.60327 0.623911,-4.53605 0.74815,-1.69692 1.018959,-1.52422 0.505793,0.32255 -0.70082,2.52209 -0.537459,6.12489 0.370428,8.16946 1.55204,3.49522 5.311738,6.03232 10.066834,6.79326 1.8458,0.29537 6.79445,-0.1668 7.42953,-0.69387 0.73285,-0.60821 2.18292,-0.99372 2.65059,-0.70468 0.68164,0.42127 -3.93708,1.75701 -7.11919,2.05888 -1.42204,0.1349 -3.43948,0.1216 -4.4832,-0.0296 z m -34.085659,-0.68324 c 2.060983,-0.38879 2.000552,-0.38902 4.056944,0.0153 1.334352,0.26236 0.996819,0.31256 -2.116666,0.31479 -3.328074,0.002 -3.525075,-0.0311 -1.940278,-0.33008 z m 16.404166,-0.0144 c 2.139461,-0.46062 4.087848,-0.46689 5.997222,-0.0193 1.376653,0.3227 0.978388,0.37139 -2.998611,0.36662 -3.825226,-0.005 -4.322728,-0.0622 -2.998611,-0.34729 z m 37.570833,-0.001 c 1.73321,-0.43052 14.33469,-0.33753 14.79902,0.10921 0.20274,0.19506 -2.93312,0.30642 -7.93749,0.28188 -6.25816,-0.0307 -7.92902,-0.12593 -6.86153,-0.39109 z m -36.5125,-1.18052 c 0,-0.30452 -0.491064,-1.73327 -1.091254,-3.175 l -1.091253,-2.6213 h -5.061537 c -3.047979,0 -5.149688,-0.14263 -5.283123,-0.35854 -0.121872,-0.19719 -0.396343,-0.25052 -0.609937,-0.11851 -0.261796,0.1618 -0.300165,0.02 -0.117741,-0.43522 0.148836,-0.37138 0.595946,-1.51187 0.993577,-2.53443 0.397631,-1.02256 0.784903,-1.79726 0.860604,-1.72156 0.0757,0.0757 -0.185681,0.9579 -0.580849,1.96045 -0.395167,1.00255 -0.718486,1.98839 -0.718486,2.19075 0,0.24386 1.873797,0.33584 5.55625,0.27275 l 5.556249,-0.0952 0.982023,2.04472 c 1.095852,2.28172 1.655803,5.14478 1.006206,5.14478 -0.220401,0 -0.400729,-0.24916 -0.400729,-0.5537 z m 38.09266,0.37731 c -0.0374,-0.19403 -0.0367,-5.13907 0.001,-10.98898 0.0653,-9.99737 0.0305,-10.65886 -0.5797,-11.01358 -0.54941,-0.31938 -0.56093,-0.37902 -0.075,-0.3881 1.4471,-0.027 1.54334,0.69693 1.44755,10.88934 -0.0503,5.35558 -0.23436,10.21368 -0.40893,10.79576 -0.17458,0.58208 -0.34801,0.89958 -0.3854,0.70556 z M 68.044845,144.866 c 0.357859,-0.74068 0.757914,-1.77406 0.889011,-2.29639 0.131096,-0.52233 0.406499,-1.05361 0.612005,-1.18062 0.244791,-0.15128 0.280324,0.002 0.103037,0.44431 -0.148836,0.37138 -0.59472,1.50867 -0.990854,2.52731 -0.396134,1.01865 -0.842556,1.85209 -0.992048,1.85209 -0.149492,0 0.02099,-0.60601 0.378849,-1.3467 z m 40.808175,1.08787 c -0.0845,-0.14869 -0.18635,-1.53858 -0.22627,-3.08866 -0.0399,-1.55007 -0.14343,-2.88917 -0.23002,-2.97576 -0.0866,-0.0866 -0.82919,-0.26692 -1.6502,-0.40072 l -1.49276,-0.24328 1.78153,-0.0442 c 0.97984,-0.0243 1.97203,0.14634 2.20486,0.37918 0.50484,0.50483 0.58784,6.13613 0.0949,6.44076 -0.18062,0.11163 -0.39755,0.0813 -0.48207,-0.0674 z m 3.89728,-6.67759 c 0.24253,-0.0979 0.63941,-0.0979 0.88194,0 0.24254,0.0979 0.0441,0.17794 -0.44097,0.17794 -0.48507,0 -0.68351,-0.0801 -0.44097,-0.17794 z m -32.36736,-0.98231 c 0,-1.43945 -3.778582,-9.36738 -4.464648,-9.36738 -0.29317,0 -0.466891,-0.19844 -0.386046,-0.44097 0.08084,-0.24254 0.451262,-0.44098 0.823148,-0.44098 0.669564,0 1.83782,1.88315 2.954537,4.7625 0.263378,0.6791 0.771838,1.90188 1.129911,2.7173 0.81751,1.86166 0.952547,2.98052 0.384071,3.18224 -0.242535,0.0861 -0.440973,-0.0997 -0.440973,-0.41271 z m 52.25203,-1.32928 c -0.0718,-1.06145 -1.37757,-1.42771 -4.5048,-1.26357 -1.61945,0.085 -2.94445,0.0348 -2.94445,-0.11157 0,-0.14636 1.60359,-0.31634 3.56353,-0.37773 3.14083,-0.0984 3.60378,-0.0362 3.90286,0.52423 0.18663,0.34971 0.26833,0.90534 0.18156,1.23472 -0.14702,0.55806 -0.16056,0.55764 -0.1987,-0.006 z m -60.355114,-2.57005 c 0,-0.19402 0.153888,-0.5909 0.341974,-0.88194 0.188085,-0.29104 0.341973,-0.37042 0.341973,-0.17639 0,0.19403 -0.153888,0.5909 -0.341973,0.88194 -0.188086,0.29105 -0.341974,0.37042 -0.341974,0.17639 z m 0.705556,-1.76389 c 0,-0.19402 0.153888,-0.5909 0.341973,-0.88194 0.188086,-0.29104 0.341974,-0.37042 0.341974,-0.17639 0,0.19403 -0.153888,0.5909 -0.341974,0.88195 -0.188085,0.29104 -0.341973,0.37041 -0.341973,0.17638 z m 0.715073,-1.67156 c -0.03311,-0.42441 2.488327,-6.41118 2.861882,-6.7951 0.188791,-0.19403 0.02773,0.44097 -0.35792,1.41111 -0.989577,2.48939 -2.4798,5.69365 -2.503962,5.38399 z m 37.345215,-3.23597 c -0.25439,-1.01025 -0.70161,-1.80359 -1.16241,-2.06204 -0.45558,-0.25552 -2.33816,-0.42338 -4.80591,-0.42852 -4.35104,-0.009 -5.45507,0.32493 -8.415678,2.54583 -1.013829,0.76053 -1.130185,0.78793 -0.810642,0.19085 0.532236,-0.99449 2.463844,-2.38169 4.111046,-2.95239 1.928964,-0.66832 9.926854,-0.6118 10.580994,0.0748 0.45308,0.47554 1.31654,3.87297 1.05164,4.13787 -0.0746,0.0746 -0.32164,-0.6033 -0.54904,-1.50638 z m 23.21381,-0.78809 c -0.4215,-2.10751 -0.94325,-2.30969 -5.32763,-2.06457 -2.77691,0.15525 -3.768,0.11144 -3.39339,-0.14999 0.29104,-0.20311 2.30899,-0.37172 4.48432,-0.37469 l 3.95515,-0.005 0.38704,1.43733 c 0.21287,0.79053 0.32565,1.62149 0.25062,1.84657 -0.075,0.22508 -0.23528,-0.0851 -0.35611,-0.68925 z"
         id="path3953"
         inkscape:connector-curvature="0" />
    </g>
  </g>
</svg>
