/* XPM */
static const char *AppIcon32_xpm[] = {
/* columns rows colors chars-per-pixel */
"32 32 46 1 ",
"  c #796108",
". c #816709",
"X c #8D710B",
"o c #977A0B",
"O c #866C10",
"+ c #977A18",
"@ c #957E1A",
"# c #9D8519",
"$ c #A3840D",
"% c #AC8B0A",
"& c #A08217",
"* c #AA8A18",
"= c #AB901D",
"- c #BE9A15",
"; c #B59318",
": c #B1901F",
"> c #BD9A21",
", c #B69B32",
"< c #CEA71A",
"1 c #D9B11C",
"2 c #C9A423",
"3 c #C5A72E",
"4 c #CFAC2B",
"5 c #D8B128",
"6 c #C4A539",
"7 c #D1AE37",
"8 c #D6B535",
"9 c #DEBD3D",
"0 c #E4BB2A",
"q c #ECC836",
"w c #E6C139",
"e c #EBC63E",
"r c #D1B346",
"t c #DBBC45",
"y c #E4C34B",
"u c #E1C74D",
"i c #EFCD4D",
"p c #E2C453",
"a c #EECD55",
"s c #E6C96C",
"d c #F2D160",
"f c #F4D469",
"g c #F3D470",
"h c #F2DB7B",
"j c #EFDA81",
"k c None",
/* pixels */
"kkkkkkkkkkkkkkkkkkkkkkkkkkkkkkkk",
"kkkkkkkkkkkkkkkkkkkkkkkkkkkkkkkk",
"kkkkkkkkkkkkkkkkkkkkkkkkkkkkkkkk",
"kkkkkkkkkkkkkkkkkkkkkkkkkkkkkkkk",
"kkkkkkkkkkkkkkkkkkkkkkkkkkkkkkkk",
"kkkkkkkkkkkkkkkkkkkkkkkkkkkkkkkk",
"kkkkkkkkkkkkkkkkkkkkkkkkkkkkkkkk",
"kkkkkkkkkkkkkkkkkkkkkkkkkkkkkkkk",
"kkkkkkkkkkkkkkkkkkkkkkkkkkkkkkkk",
"kkkkkkkkkkkkkkkkkkkkkkkkkkkkkkkk",
"kkkkk7akkkkkkkkw>&#*2akkd:e2::&4",
"kkkkk%0kkkkkk8;X,up6+4kkk+<0kkk:",
"kkkk3 -akkkk7-;kkkkkk7kkk+<wkkky",
"kkkk%t qkkkk%1kkkkkkkkkkk@<wkkkk",
"kkkt;kX2dkk6$0kkkkkkkkkkk@<akf5k",
"kkk;8kk.ekk*;0kkkkkkkkkkk+<-*&&k",
"kkk$ffaX1fk=%qkkkktadfykk+<wkktk",
"kk2o&++XXikr.wkkkkk#$5kkk+<wkkkk",
"kkoukkkk qgkO:jkkkkrX0kkko1wkkk8",
"k8;kkkkk#-dkk.OsjkktO<kkk&1ahka<",
"y**ykkka>+:pkk,.O+**=kkk9*$&&**2",
"kkkkkkkkkkkkkkkkkkkkkkkkkkkkkkkk",
"kkkkkkkkkkkkkkkkkkkkkkkkkkkkkkkk",
"kkkkkkkkkkkkkkkkkkkkkkkkkkkkkkkk",
"kkkkkkkkkkkkkkkkkkkkkkkkkkkkkkkk",
"kkkkkkkkkkkkkkkkkkkkkkkkkkkkkkkk",
"kkkkkkkkkkkkkkkkkkkkkkkkkkkkkkkk",
"kkkkkkkkkkkkkkkkkkkkkkkkkkkkkkkk",
"kkkkkkkkkkkkkkkkkkkkkkkkkkkkkkkk",
"kkkkkkkkkkkkkkkkkkkkkkkkkkkkkkkk",
"kkkkkkkkkkkkkkkkkkkkkkkkkkkkkkkk",
"kkkkkkkkkkkkkkkkkkkkkkkkkkkkkkkk"
};
