/* XPM */
static const char * AppIcon_xpm[] = {
"32 32 195 2",
"  	c None",
". 	c #FFFFFF",
"+ 	c #FFFEFE",
"@ 	c #FFFFFE",
"# 	c #FEFEFE",
"$ 	c #F9F4F5",
"% 	c #EED3D4",
"& 	c #CF98A0",
"* 	c #C68690",
"= 	c #CD969F",
"- 	c #E5D0DB",
"; 	c #A6A4E4",
"> 	c #F8FCFF",
", 	c #FEFFFF",
"' 	c #C07067",
") 	c #7E0001",
"! 	c #7B0000",
"~ 	c #7D0000",
"{ 	c #7D0002",
"] 	c #D8C1D6",
"^ 	c #ADA5E1",
"/ 	c #343FC9",
"( 	c #B4C2F0",
"_ 	c #C57C77",
": 	c #800014",
"< 	c #EAD4DC",
"[ 	c #FDFBFC",
"} 	c #FBF4F3",
"| 	c #DEB8BC",
"1 	c #E3DBF2",
"2 	c #343BC8",
"3 	c #3D46CB",
"4 	c #8D9DE6",
"5 	c #D49181",
"6 	c #7C0011",
"7 	c #5553CD",
"8 	c #485BD4",
"9 	c #7675D5",
"0 	c #5169D9",
"a 	c #D08681",
"b 	c #7D0014",
"c 	c #FEFEFF",
"d 	c #A9A1E1",
"e 	c #343DC8",
"f 	c #C6D4F5",
"g 	c #9493DE",
"h 	c #3740CA",
"i 	c #C47F76",
"j 	c #83001E",
"k 	c #FCFAFA",
"l 	c #F7EDED",
"m 	c #F3E7E7",
"n 	c #D7A7AC",
"o 	c #EBDAE3",
"p 	c #F6EEF7",
"q 	c #333BC8",
"r 	c #7889E1",
"s 	c #C4B5E6",
"t 	c #303CC9",
"u 	c #E1ECFB",
"v 	c #B8635A",
"w 	c #880015",
"x 	c #83000C",
"y 	c #83000B",
"z 	c #7F0004",
"A 	c #7C0000",
"B 	c #8A2345",
"C 	c #7170D3",
"D 	c #3A42CA",
"E 	c #7280DD",
"F 	c #3F44C9",
"G 	c #353FC9",
"H 	c #3D45CA",
"I 	c #A8B8EF",
"J 	c #F8F9F5",
"K 	c #AFD7D7",
"L 	c #EFFBFD",
"M 	c #B14E4A",
"N 	c #8A081E",
"O 	c #BC7481",
"P 	c #C4818B",
"Q 	c #D4A6B0",
"R 	c #E5C7CA",
"S 	c #FDFFFF",
"T 	c #9A96DD",
"U 	c #3D48CC",
"V 	c #373FC9",
"W 	c #3944CA",
"X 	c #727DDB",
"Y 	c #A4ABE7",
"Z 	c #4E51CC",
"` 	c #768AE1",
" .	c #8FC0B7",
"..	c #007273",
"+.	c #007474",
"@.	c #007473",
"#.	c #40A8AD",
"$.	c #913E3D",
"%.	c #901A3C",
"&.	c #7973D4",
"*.	c #3A48CD",
"=.	c #D7E0F7",
"-.	c #7874D5",
";.	c #4353D0",
">.	c #94BDB3",
",.	c #007776",
"'.	c #5AB2BA",
").	c #E3F3F3",
"!.	c #96C7C4",
"~.	c #097E7B",
"{.	c #304546",
"].	c #921B40",
"^.	c #FAF0F7",
"/.	c #3640C9",
"(.	c #7A88E0",
"_.	c #A198E0",
":.	c #CCDDE1",
"<.	c #007879",
"[.	c #42AAB2",
"}.	c #B14744",
"|.	c #9991DD",
"1.	c #333EC9",
"2.	c #EEF8FE",
"3.	c #FAF1F7",
"4.	c #3538CB",
"5.	c #097584",
"6.	c #0A898E",
"7.	c #BF6E67",
"8.	c #86031C",
"9.	c #FAFCFF",
"0.	c #F0DDDC",
"a.	c #F6F1F5",
"b.	c #FFFEFF",
"c.	c #E8E5F5",
"d.	c #AEB7EC",
"e.	c #B0B1D2",
"f.	c #007B77",
"g.	c #98D3DD",
"h.	c #FFEBDF",
"i.	c #86000A",
"j.	c #790000",
"k.	c #7A0000",
"l.	c #9C4F6A",
"m.	c #7BB2AC",
"n.	c #008083",
"o.	c #E4EEEB",
"p.	c #92C7C6",
"q.	c #83BBB9",
"r.	c #439F9F",
"s.	c #47A0A0",
"t.	c #97D1D6",
"u.	c #F1DBDA",
"v.	c #DCB5BC",
"w.	c #DCB6BC",
"x.	c #E5CED7",
"y.	c #42968F",
"z.	c #1F959E",
"A.	c #2C8E8B",
"B.	c #007777",
"C.	c #00797A",
"D.	c #198E90",
"E.	c #228E8C",
"F.	c #007F7E",
"G.	c #5AB4BD",
"H.	c #1F8A86",
"I.	c #3CA3AB",
"J.	c #7AB9B5",
"K.	c #9ED1D5",
"L.	c #6DADA6",
"M.	c #00797B",
"N.	c #F2FEFF",
"O.	c #318E89",
"P.	c #2D9DA6",
"Q.	c #F9F6F0",
"R.	c #007D7B",
"S.	c #319CA4",
"T.	c #6CACA3",
"U.	c #FBFFFF",
"V.	c #EBF2EF",
"W.	c #218C8A",
"X.	c #DEF4F9",
"Y.	c #FBF8F3",
"Z.	c #007A78",
"`.	c #007D7F",
" +	c #4CA5A5",
".+	c #389B9A",
"++	c #007877",
"@+	c #007B7D",
"#+	c #CEECEF",
"$+	c #F3F7F4",
"%+	c #84BBB8",
"&+	c #3B9B9B",
"*+	c #47A3A6",
"=+	c #8EC7C9",
"-+	c #FAFDFF",
". . . . . . . . . . . . . . . . . . . . . . . . . . . . . . . . ",
". . . . . . . . . . . . . . . . . . . . . . . . . . . . . . . . ",
". . . . . . . . . . . . . . . . . . . . . . . . . . . . . . . . ",
". . . . . . . . . . . . . . . . . . . . . . . . . . . . . . . . ",
". . . . . . . . . . . . . . . . . . . . . . . . . . . . . . . . ",
". . . . . . . . . . . . . . . . . . . . . . . . . . . . . . . . ",
". . . . . . . . . . . . . . . . . . + . . @ . . . . # . . . . . ",
". . . . . . . @ . . # . . . . . . . @ . $ % & * * = - . . . . . ",
". . . . . . . . . ; > . . . . . . . , ' ) ! ~ ! ! { ! ] # . . . ",
". . . . . . . . ^ / ( , . . . . . . , _ : < [ . . } | . . . . . ",
". . . . . # # 1 2 3 4 + . . . . . . @ 5 6 . . . . # . . . . . . ",
". . . . . . @ 7 8 9 0 . . . . . . . + a b . , @ . c . # . . . . ",
". . . . @ . d e f g h . c . . . . . c i j . k l m n o @ . . . . ",
". . . # + p q r . s t u . . . + . # . v w x y z A ! B . . . . . ",
". . . + @ C D E F G H I c . . J K L . M N O P Q R S . # . . . . ",
". . . , T U V W X Y Z ` . .  ...+.@.#.$.%.. # . . . # . . . . . ",
". . c . &.*.=.. . . -.;.. >.,.'.).!.~.{.].. . . . . . . . . . . ",
". . @ ^./.(.. . . . _.G :.<.[.. . # . }.%.. # . . . . # . . . . ",
". . . |.1.2.. . . @ 3.4.5.6.. , . # , 7.8.9.. . . 0.a.# . . . . ",
". . b.c.d.. # . . c @ e.f.g.# . . # . h.i.j.k.k.k.A l.. . . . . ",
". . # . # . . . . . . m.n.. . o.p.q.r.s.t.u.v.w.w.x.. # . . . . ",
". . . . . . . . . . . y.z.. A.B.C.D.E.F.G.. . . . c . . . . . . ",
". . . . . . . . . . . H.I.. J.K.. . L.M.N.. . . . . . . . . . . ",
". . . . . . . . . . . O.P.. . # # Q.R.S.. c . . . . . . . . . . ",
". . . . . . . . . . . T.n.U.. . V.W.<.X.c . . . . . . . . . . . ",
". . . . . . . . . . + Y.Z.`. +.+++@+#+# + . . . . . . . . . . . ",
". . . . . . . . . . , # $+%+&+*+=+-+# . . . . . . . . . . . . . ",
". . . . . . . . . . . . . . . . # . . . . . . . . . . . . . . . ",
". . . . . . . . . . . . . . . . . . . . . . . . . . . . . . . . ",
". . . . . . . . . . . . . . . . . . . . . . . . . . . . . . . . ",
". . . . . . . . . . . . . . . . . . . . . . . . . . . . . . . . ",
". . . . . . . . . . . . . . . . . . . . . . . . . . . . . . . . "};
