/* XPM */
static const char *backup_xpm[] = {
"38 44 9 1",
" 	c None",
".	c #232629",
"+	c #242728",
"@	c #222629",
"#	c #23262A",
"$	c #22262A",
"%	c #242529",
"&	c #232729",
"*	c #232628",
"                                      ",
"              ........................",
"          .   ........................",
"         +.                        ...",
"         ..                        ...",
"        @..                        ...",
"        ...                        ...",
"       ....                        ...",
"       ....                        ...",
"      .....                        ...",
"     #.....                        ...",
"     ......                        ...",
"    @......                        ...",
"    .......                        ...",
"   .............                   ...",
"   ............                    ...",
"  ............@                    ...",
" #............                     ...",
" .............                     ...",
"     $.......                      ...",
"      ......%                      ...",
"      ......                       ...",
"      .....                        ...",
"      ....@                        ...",
"      ....                         ...",
"      ....                         ...",
"      ...                          ...",
"      ..%                          ...",
"      ..                           ...",
"      .                            ...",
"      @                 ..............",
"                        ..............",
"                        .............+",
"...                     ............& ",
"...                     ...........&  ",
"...                     ..........&   ",
"...                     .........&    ",
"...                     ........&     ",
"...                     .......&      ",
"...                     ......&       ",
"...                     .....*        ",
"............................&         ",
"...........................&          ",
"                                      "};
