/* XPM */
static const char *DRS_unlock_xpm[] = {
"25 25 5 1",
"  c #000000",
". c #404040",
"X c #FFFF00",
"o c #808080",
"O c None",
"OOOOOOOOOOOOOOOOOOOOOOOOO",
"OOOOOOOOOO    OOOOOOOOOOO",
"OOOOOOO         OOOOOOOOO",
"OOOOOOO          OOOOOOOO",
"OOOOOOO   OOO     OOOOOOO",
"OOOOOOOOOOOOOOO    OOOOOO",
"OOOOOOOOOOOOOOOO    OOOOO",
"OOOOOOOOOOOOOOOOO   OOOOO",
"OOOOOOOOOOOOOOOOO    OOOO",
"OOOOOOOOOOOOOOOOOO   OOOO",
"OOOOOOOOOOOOOOOOOO   OOOO",
"OO                    OOO",
"OO XXXXXXXXXXXXXXXXXX OOO",
"OO X   oXX   XXX    X OOO",
"OO X XX oX Xo X. XXXX OOO",
"OO X XXX X X. XX  XXX OOO",
"OO X XXX X   XXXX   X OOO",
"OO X XX oX X oXXXXX X OOO",
"OO X   .XX XX Xo    X OOO",
"OO XXXXXXXXXXXXXXXXXX OOO",
"OO                    OOO",
"OOOOOOOOOOOOOOOOOOOOOOOOO",
"OOOOOOOOOOOOOOOOOOOOOOOOO",
"OOOOOOOOOOOOOOOOOOOOOOOOO",
"OOOOOOOOOOOOOOOOOOOOOOOOO"
};
