/* XPM */
static const char *DRS_unlock_xpm[] = {
"32 44 11 1",
" 	c None",
".	c #232629",
"+	c #242629",
"@	c #232628",
"#	c #222629",
"$	c #232729",
"%	c #232529",
"&	c #23262A",
"*	c #222628",
"=	c #24262A",
"-	c #000000",
"                                ",
"            .......+            ",
"          ............          ",
"         .....@  @.....         ",
"        #..$        ....        ",
"       ....          %..#       ",
"       ...            ...       ",
"      ...              ..@      ",
"      ..&              ...      ",
"      ..*              =..      ",
"     #..                ..#     ",
"     ...                ...     ",
"     ...                ...     ",
"     ...                ...     ",
"                        ...     ",
"                        ...     ",
"                        ...     ",
"                        ...     ",
"                        ...     ",
"                        ...     ",
"                        ...     ",
"                        ...     ",
"................................",
"................................",
"..@..........................@..",
"...                          ...",
"...                          ...",
"...                          ...",
"...                          ...",
"...  -----    ----     ----  ...",
"...  -   --   -   -   -      ...",
"...  -    --  -   -   -      ...",
"...  -     -  -   -   --     ...",
"...  -     -  -----    ---   ...",
"...  -     -  -  --       -  ...",
"...  -    --  -   -       -  ...",
"...  -   --   -    -      -  ...",
"...  -----    -    -  ----   ...",
"...                          ...",
"...                          ...",
"...                          ...",
"................................",
"................................",
"                                "};
