/* XPM */
static const char *float_xpm[] = {
"25 25 3 1",
"  c #FF0080",
". c #FFAEC9",
": c None",
":::::::::::::::::::::::::",
".........................",
".........................",
"........          .......",
"......   ........   .....",
"....   ............  ....",
"...  ....      .....  ...",
"..  ....  ....   ....  ..",
".  ....  .......  .... ..",
". ....  ..    ... .... ..",
". ...  ..  ..  ..  ... ..",
". ... ...  ... ... ... ..",
". ... ...   ..  .. ... ..",
".  ..  ...  ... ..  .. ..",
".. ... .......  .. ... ..",
"..  ..   ...   ... ... ..",
"...  ...     ....  ... ..",
"....   .........  ...  ..",
"......   ......  .... ...",
"........        ...   ...",
"..................  .....",
".  .............   ......",
"..       ....    ........",
"........       ..........",
"........................."
};
