/* XPM */
static const char *float_xpm[] = {
"44 41 2 1",
" 	c None",
".	c #000000",
"                                            ",
"      ........                ........      ",
"     ..........              ..........     ",
"    ...      ...            ...      ...    ",
"   ...        ...          ...        ...   ",
"  ...          ...        ...          ...  ",
"  ..            ..        ..            ..  ",
" ...            ...      ...            ... ",
" ..              ..      ..              .. ",
" ..              ..      ..              .. ",
" ..              ..      ..              .. ",
" ..              ..      ..              .. ",
" ..              ..      ..              .. ",
" ..              ..      ..              .. ",
" ..              ..      ..              .. ",
" ..              ..      ..              .. ",
" ..              ..      ..              .. ",
" ..              ..      ..              .. ",
" ..              ..      ..              .. ",
" ..              ..      ..              .. ",
" ..              ..      ..              .. ",
" ..              ..      ..              .. ",
" ..              ..      ..              .. ",
" ..              ..      ..              .. ",
" ..              ..      ..              .. ",
" ..              ..      ..              .. ",
" ..              ..      ..              .. ",
" ..              ..      ..              .. ",
" ..              ..      ..              .. ",
" ..              ..      ..              .. ",
" ...            ...      ...            ... ",
"  ..            ..        ..            ..  ",
"  ...          ...        ...          ...  ",
"   ...        ...          ...        ...   ",
"    ...      ...            ...      ...    ",
"     ..........     ....     ..........     ",
"      ........      ....      ........      ",
"                    ....                    ",
"                    ....                    ",
"                    ....                    ",
"                                            "};
