/* XPM */
static const char *GateOpen_xpm[] = {
"25 25 577 2",
"  	c #585655",
". 	c #2B2A29",
"+ 	c #585757",
"@ 	c #505152",
"# 	c #989787",
"$ 	c #898582",
"% 	c #91908F",
"& 	c #8B8986",
"* 	c #8C8987",
"= 	c #99988A",
"- 	c #8B8784",
"; 	c #9A9A8C",
"> 	c #817A72",
", 	c #919191",
"' 	c #95958C",
") 	c #9B9B8C",
"! 	c #959487",
"~ 	c #8D8B8A",
"{ 	c #999889",
"] 	c #908E8F",
"^ 	c #555A5B",
"/ 	c #323232",
"( 	c #3D3D3A",
"_ 	c #777571",
": 	c #638596",
"< 	c #8F8A7D",
"[ 	c #565E5F",
"} 	c #2F3131",
"| 	c #53504E",
"1 	c #3D3B3A",
"2 	c #4C4C4C",
"3 	c #3A3937",
"4 	c #3A3836",
"5 	c #4E554E",
"6 	c #3F484C",
"7 	c #676767",
"8 	c #3E3F3F",
"9 	c #595858",
"0 	c #565759",
"a 	c #50504B",
"b 	c #484749",
"c 	c #4C4C4D",
"d 	c #383634",
"e 	c #535C5A",
"f 	c #666667",
"g 	c #454444",
"h 	c #B1B3A1",
"i 	c #4B6D7B",
"j 	c #426465",
"k 	c #434242",
"l 	c #565555",
"m 	c #4D4D4D",
"n 	c #70706F",
"o 	c #646464",
"p 	c #4A4948",
"q 	c #5D5D5D",
"r 	c #5B5A5A",
"s 	c #5D5C5C",
"t 	c #7D7364",
"u 	c #6A6B6C",
"v 	c #9E9D93",
"w 	c #415554",
"x 	c #8D7F6C",
"y 	c #4C4A49",
"z 	c #6E7573",
"A 	c #565451",
"B 	c #656462",
"C 	c #7D7975",
"D 	c #6F6F6E",
"E 	c #666666",
"F 	c #444444",
"G 	c #454342",
"H 	c #426576",
"I 	c #79A0AA",
"J 	c #827973",
"K 	c #5E5E5E",
"L 	c #3E3E3F",
"M 	c #84857E",
"N 	c #71706F",
"O 	c #767066",
"P 	c #5B5C5C",
"Q 	c #505245",
"R 	c #5D6E6A",
"S 	c #475769",
"T 	c #425055",
"U 	c #3C4768",
"V 	c #1B375D",
"W 	c #637170",
"X 	c #404B4B",
"Y 	c #605853",
"Z 	c #686B6A",
"` 	c #87877D",
" .	c #AAAA9D",
"..	c #8A8A81",
"+.	c #626263",
"@.	c #464646",
"#.	c #A2978A",
"$.	c #659CB4",
"%.	c #A9AFA4",
"&.	c #A8B2AA",
"*.	c #7D766F",
"=.	c #595B5D",
"-.	c #EAD7BD",
";.	c #7F807B",
">.	c #8F877E",
",.	c #2E3D33",
"'.	c #1E1F45",
").	c #315DAD",
"!.	c #31548F",
"~.	c #01407B",
"{.	c #215780",
"].	c #293F49",
"^.	c #1E4397",
"/.	c #2A54AE",
"(.	c #213D39",
"_.	c #4B5053",
":.	c #777573",
"<.	c #F0E7DB",
"[.	c #909090",
"}.	c #6C6762",
"|.	c #8B8B8B",
"1.	c #A8A89B",
"2.	c #8F9090",
"3.	c #A6A59B",
"4.	c #B4AEA2",
"5.	c #A1A190",
"6.	c #5E5B5A",
"7.	c #8A8B8D",
"8.	c #7E7B72",
"9.	c #394A6C",
"0.	c #1D2F4E",
"a.	c #02305A",
"b.	c #31556F",
"c.	c #1A3064",
"d.	c #2B434C",
"e.	c #244060",
"f.	c #0B1C67",
"g.	c #254257",
"h.	c #133071",
"i.	c #1D3B56",
"j.	c #09305B",
"k.	c #374447",
"l.	c #65605D",
"m.	c #5B5B5B",
"n.	c #505051",
"o.	c #999993",
"p.	c #98988A",
"q.	c #A6A699",
"r.	c #5E6767",
"s.	c #746E67",
"t.	c #909191",
"u.	c #777C7C",
"v.	c #8C8D8D",
"w.	c #686860",
"x.	c #4772C5",
"y.	c #11538D",
"z.	c #416E7B",
"A.	c #335FB4",
"B.	c #3A63A3",
"C.	c #034C7E",
"D.	c #3B649D",
"E.	c #3E677D",
"F.	c #3561A4",
"G.	c #3560B1",
"H.	c #0F548D",
"I.	c #426D81",
"J.	c #2F59A9",
"K.	c #464C4B",
"L.	c #585858",
"M.	c #6D6D6E",
"N.	c #B0B09F",
"O.	c #848486",
"P.	c #6D6D6C",
"Q.	c #393939",
"R.	c #515253",
"S.	c #9B9B89",
"T.	c #747472",
"U.	c #D6D6D1",
"V.	c #426074",
"W.	c #4979D0",
"X.	c #487282",
"Y.	c #2346A7",
"Z.	c #467ACC",
"`.	c #346DB9",
" +	c #456C7E",
".+	c #3664A7",
"++	c #1C3D9A",
"@+	c #3865A3",
"#+	c #3966BB",
"$+	c #39698E",
"%+	c #195A92",
"&+	c #4C78CF",
"*+	c #2F495A",
"=+	c #646C6B",
"-+	c #8F8985",
";+	c #A0A190",
">+	c #76716C",
",+	c #58595A",
"'+	c #434345",
")+	c #6F706D",
"!+	c #585957",
"~+	c #534F48",
"{+	c #203054",
"]+	c #2C4259",
"^+	c #132A57",
"/+	c #112959",
"(+	c #2F455B",
"_+	c #2B3C57",
":+	c #0A2259",
"<+	c #284455",
"[+	c #264747",
"}+	c #1C3B55",
"|+	c #2B465D",
"1+	c #1B4148",
"2+	c #222A54",
"3+	c #2D465B",
"4+	c #223949",
"5+	c #374951",
"6+	c #716F6E",
"7+	c #9A9A96",
"8+	c #606161",
"9+	c #4C4D4D",
"0+	c #484949",
"a+	c #726A5B",
"b+	c #847D75",
"c+	c #6E6660",
"d+	c #4C87A4",
"e+	c #5A8BBF",
"f+	c #70A9EB",
"g+	c #3B66BC",
"h+	c #4B758C",
"i+	c #4878D7",
"j+	c #4171CE",
"k+	c #406878",
"l+	c #3D6CCD",
"m+	c #376680",
"n+	c #4572B5",
"o+	c #4C7BCC",
"p+	c #416C89",
"q+	c #4979D8",
"r+	c #3063BC",
"s+	c #3F3D3B",
"t+	c #777471",
"u+	c #696968",
"v+	c #76706B",
"w+	c #5C5C5A",
"x+	c #908B82",
"y+	c #71716D",
"z+	c #72706D",
"A+	c #545858",
"B+	c #364D53",
"C+	c #5489CA",
"D+	c #679EE4",
"E+	c #2D4D99",
"F+	c #315798",
"G+	c #6194D5",
"H+	c #416AA5",
"I+	c #294C89",
"J+	c #3E71A9",
"K+	c #336175",
"L+	c #4877C0",
"M+	c #4472C8",
"N+	c #2D5591",
"O+	c #2C5495",
"P+	c #5C8FDA",
"Q+	c #4475B5",
"R+	c #2F3936",
"S+	c #51575B",
"T+	c #8A7E74",
"U+	c #5F7580",
"V+	c #B6B5AE",
"W+	c #313132",
"X+	c #313932",
"Y+	c #6B6A6B",
"Z+	c #565855",
"`+	c #97CFFF",
" @	c #DDB6FF",
".@	c #99D1FF",
"+@	c #6DA5EB",
"@@	c #71AAED",
"#@	c #4E7ED3",
"$@	c #70A9ED",
"%@	c #6EA6EB",
"&@	c #5D90DF",
"*@	c #4B7BD3",
"=@	c #6398E2",
"-@	c #6BA3E9",
";@	c #5182D6",
">@	c #5384D7",
",@	c #6CA3E9",
"'@	c #6094E3",
")@	c #5492B2",
"!@	c #8C7D71",
"~@	c #55737C",
"{@	c #666362",
"]@	c #545455",
"^@	c #62605F",
"/@	c #615D5B",
"(@	c #787470",
"_@	c #5C5E5B",
":@	c #CDCCFD",
"<@	c #9DDEFF",
"[@	c #96CDFE",
"}@	c #A4C4FD",
"|@	c #8FB4F4",
"1@	c #7EB7F5",
"2@	c #6CA4E9",
"3@	c #6FA7EB",
"4@	c #70A8EC",
"5@	c #6FA8EC",
"6@	c #4674CF",
"7@	c #69716C",
"8@	c #696969",
"9@	c #565858",
"0@	c #464A4A",
"a@	c #6A6969",
"b@	c #484D4C",
"c@	c #CDF7FD",
"d@	c #E5E9FF",
"e@	c #9ECDFF",
"f@	c #97CCFF",
"g@	c #93C9FF",
"h@	c #C6F4FE",
"i@	c #78B0F1",
"j@	c #6CA4EA",
"k@	c #6DA5EA",
"l@	c #6CA3E8",
"m@	c #485D64",
"n@	c #575757",
"o@	c #686868",
"p@	c #B4B1A4",
"q@	c #8E897E",
"r@	c #C9F8FD",
"s@	c #D3F1FF",
"t@	c #FFE3FF",
"u@	c #BEF6FF",
"v@	c #D6E8FF",
"w@	c #CDF9FE",
"x@	c #C0E5FF",
"y@	c #96CDFF",
"z@	c #82B9F4",
"A@	c #7DB4F2",
"B@	c #71A9EC",
"C@	c #7DB5F2",
"D@	c #7BB3F1",
"E@	c #6AA2E9",
"F@	c #7DB4F1",
"G@	c #41557A",
"H@	c #676C6B",
"I@	c #7E7B79",
"J@	c #C6BFB1",
"K@	c #333333",
"L@	c #252416",
"M@	c #465859",
"N@	c #403F40",
"O@	c #F6FFFD",
"P@	c #FCFAFF",
"Q@	c #FFFFFF",
"R@	c #F7FEFF",
"S@	c #FEF9FF",
"T@	c #F8FDFF",
"U@	c #FFFDFF",
"V@	c #BFF2FF",
"W@	c #8DC5FD",
"X@	c #97CEFF",
"Y@	c #84BBF5",
"Z@	c #92C9FC",
"`@	c #89C0F8",
" #	c #87BFF7",
".#	c #92C9FD",
"+#	c #70A8EB",
"@#	c #3A585E",
"##	c #545757",
"$#	c #6D6A68",
"%#	c #71716E",
"&#	c #5E5748",
"*#	c #48484A",
"=#	c #535352",
"-#	c #4E5653",
";#	c #E9C2E6",
">#	c #D6FAFE",
",#	c #F8FEFF",
"'#	c #F5FEFF",
")#	c #F3FDFF",
"!#	c #F2FDFF",
"~#	c #D7FFFF",
"{#	c #A4D9FF",
"]#	c #96CEFF",
"^#	c #A8DCFF",
"/#	c #ABDEFF",
"(#	c #98CFFE",
"_#	c #495B61",
":#	c #B1B2B3",
"<#	c #AB9D90",
"[#	c #7D7E71",
"}#	c #565652",
"|#	c #5F5F5F",
"1#	c #504F52",
"2#	c #808059",
"3#	c #FBFBFF",
"4#	c #F1FDFF",
"5#	c #F0FDFF",
"6#	c #E5FCFF",
"7#	c #D0FCFF",
"8#	c #8EC7FF",
"9#	c #92CAFF",
"0#	c #9AD1FF",
"a#	c #90D4E6",
"b#	c #8BBFEA",
"c#	c #96CCFD",
"d#	c #475B61",
"e#	c #666665",
"f#	c #737576",
"g#	c #C7BCAF",
"h#	c #959586",
"i#	c #757571",
"j#	c #696A6A",
"k#	c #5E6363",
"l#	c #18191B",
"m#	c #B8BF93",
"n#	c #F4F5F0",
"o#	c #ECFDFE",
"p#	c #FEFEFF",
"q#	c #D3FAFF",
"r#	c #D2FCFF",
"s#	c #8ABCE4",
"t#	c #6E9433",
"u#	c #727A3A",
"v#	c #798B36",
"w#	c #4F4A46",
"x#	c #545454",
"y#	c #8A8079",
"z#	c #D4CFCC",
"A#	c #76726D",
"B#	c #99958D",
"C#	c #656667",
"D#	c #69686B",
"E#	c #2E3A1D",
"F#	c #3A5403",
"G#	c #54601B",
"H#	c #A3AF9D",
"I#	c #E9E8ED",
"J#	c #FFFDF7",
"K#	c #FBFFFF",
"L#	c #FDFFFF",
"M#	c #9DD2B4",
"N#	c #70773B",
"O#	c #3F5C23",
"P#	c #4D6023",
"Q#	c #93BDD9",
"R#	c #575351",
"S#	c #4E4E4E",
"T#	c #6C6965",
"U#	c #716D69",
"V#	c #5E5C5B",
"W#	c #A7A596",
"X#	c #817A73",
"Y#	c #757874",
"Z#	c #4B392B",
"`#	c #5F6226",
" $	c #5F6227",
".$	c #584825",
"+$	c #798B2D",
"@$	c #848F30",
"#$	c #89842E",
"$$	c #898B58",
"%$	c #889C58",
"&$	c #9A9B89",
"*$	c #B6C69F",
"=$	c #E0E5DE",
"-$	c #767646",
";$	c #647022",
">$	c #6A723A",
",$	c #4E4E24",
"'$	c #9B9A89",
")$	c #3B4748",
"!$	c #6B6B6B",
"~$	c #6A6A6A",
"{$	c #A19C96",
"]$	c #A39B90",
"^$	c #898581",
"/$	c #68767A",
"($	c #2C2318",
"_$	c #3A1D16",
":$	c #633D04",
"<$	c #A17743",
"[$	c #BA7C38",
"}$	c #AC6F47",
"|$	c #B17533",
"1$	c #BEB3BF",
"2$	c #BDA6AE",
"3$	c #BCB1BF",
"4$	c #A47C5A",
"5$	c #C4A6A2",
"6$	c #AFA7B6",
"7$	c #B37A59",
"8$	c #BDAFBA",
"9$	c #734A24",
"0$	c #593B25",
"a$	c #B4B6AC",
"b$	c #566262",
"c$	c #838384",
"d$	c #B7A69D",
"e$	c #92908C",
"f$	c #736F68",
"g$	c #847E77",
"h$	c #594A3B",
"i$	c #CBD4F5",
"j$	c #F1A350",
"k$	c #F6A95B",
"l$	c #F5BE70",
"m$	c #FBAB5E",
"n$	c #F8C571",
"o$	c #F9C762",
"p$	c #F8C376",
"q$	c #F9C57F",
"r$	c #F8CA4A",
"s$	c #F6D891",
"t$	c #FBC67D",
"u$	c #F6DC89",
"v$	c #F8DD86",
"w$	c #F8C747",
"x$	c #F5D493",
"y$	c #F3C644",
"z$	c #756C6D",
"A$	c #565758",
"B$	c #857A79",
"C$	c #B3AD9E",
"D$	c #9F815C",
"E$	c #9B8460",
"F$	c #AB8B66",
"G$	c #FCC99F",
"H$	c #F7AD53",
"I$	c #FAAD5F",
"J$	c #FFB868",
"K$	c #F6BF6D",
"L$	c #FFBF72",
"M$	c #FFD05A",
"N$	c #FFCB71",
"O$	c #FFC978",
"P$	c #FFDC6F",
"Q$	c #FFDB66",
"R$	c #FFEA7A",
"S$	c #FFE392",
"T$	c #FFFC74",
"U$	c #FFEDA1",
"V$	c #FFF38F",
"W$	c #FFF685",
"X$	c #FFF492",
"Y$	c #FFFE9F",
"Z$	c #B59B6B",
"`$	c #AFAB83",
" %	c #B8B58D",
".%	c #FAB15F",
"+%	c #F4B25E",
"@%	c #FFB261",
"#%	c #FFB060",
"$%	c #F9B160",
"%%	c #F4B05E",
"&%	c #FCB565",
"*%	c #FAB160",
"=%	c #FFC272",
"-%	c #FFB465",
";%	c #FFB45E",
">%	c #FFCD5E",
",%	c #FFCF81",
"'%	c #FFCB62",
")%	c #FFC872",
"!%	c #FFCF7F",
"~%	c #FFD45B",
"{%	c #FFE58C",
"]%	c #FFD06F",
"^%	c #FFD273",
"/%	c #FECF7C",
"(%	c #FFD85B",
"_%	c #FFD17F",
":%	c #FFD17D",
"  . + @ # $ % & * = - ; > , ' ) ! ~ { ] ; ^ / ( _ ",
": < [ } | 1 2 3 4 5 6 7 8 9 0 a b c d e f g c h i ",
"j k l m n o p q r s t u v w x y z A B C D E F G H ",
"I J K L M N O P Q R S T U V W X Y Z `  ...+.@.#.$.",
"%.&.*.=.-.;.>.,.'.).!.~.{.].^./.(._.:.<.[.}.|.1.2.",
"3.4.5.6.7.8.9.0.a.b.c.d.e.f.g.h.i.j.k.l.m.n.o.p.q.",
"r.s.t.u.v.w.x.y.z.A.B.C.D.E.F.G.H.I.J.K.L.M.N.O.P.",
"Q.R.S.T.U.V.W.X.Y.Z.`. +.+++@+#+$+%+&+*+=+-+;+>+,+",
"Q.'+)+!+~+{+]+^+/+(+_+:+<+[+}+|+1+2+3+4+5+6+7+8+9+",
"0+a+b+c+d+e+f+g+h+i+j+k+l+m+n+o+A.p+q+r+s+t+u+v+w+",
"x+y+z+A+B+C+D+E+F+G+H+I+J+K+L+M+N+O+P+Q+R+S+T+U+V+",
"W+X+Y+Z+`+ @.@+@@@#@$@%@&@*@=@-@;@>@,@'@)@!@~@{@]@",
"^@/@(@_@:@<@[@}@|@1@2@%@3@4@%@%@5@5@%@@@6@7@^@8@8@",
"9@0@a@b@c@d@e@f@g@h@i@j@k@k@%@%@%@%@%@%@l@m@n@2 o@",
"p@q@o@g r@s@t@u@v@w@x@y@z@A@B@C@3@4@D@E@F@G@H@I@J@",
"K@L@M@N@O@P@Q@R@S@T@U@V@W@X@Y@Z@`@ #y@.#+#@###$#%#",
"&#*#=#-#;#Q@>#,#'#)#!#'#~#{#X@X@X@]#^#/#(#_#o :#<#",
"[#}#|#1#2#3#Q@)#)#4#4#5#6#7#8#9#`+0#a#b#c#d#e#f#g#",
"h#i#j#k#l#m#n#Q@Q@,#o#p#Q@q#r#~#s#t#u#v#y@w#x#y#z#",
"A#B#C#D#E#F#G#H#I#J#K#Q@Q@Q@L#Q@M#N#O#P#Q#R#S#T#U#",
"V#W#X#Y#Z#`# $.$+$@$#$$$%$&$*$=$-$;$>$,$'$)$x#!$~$",
"{$]$^$/$($_$:$<$[$}$|$1$2$3$4$5$6$7$8$9$0$a$b$c$d$",
"e$f$g$h$i$j$k$l$m$n$o$p$q$r$s$t$u$v$w$x$y$z$A$B$C$",
"D$E$F$G$H$I$J$K$L$M$N$O$P$Q$R$S$T$U$V$W$X$Y$Z$`$ %",
".%+%@%#%$%%%&%*%=%-%;%O$>%,%'%)%!%~%{%]%^%/%(%_%:%"};
