/* XPM */
static const char *GateClosed_xpm[] = {
"25 25 587 2",
"  	c #505456",
". 	c #2B2A29",
"+ 	c #585858",
"@ 	c #535B5B",
"# 	c #9B9B8D",
"$ 	c #888482",
"% 	c #99998B",
"& 	c #8B8886",
"* 	c #8D8C8C",
"= 	c #989789",
"- 	c #898583",
"; 	c #9C9C8B",
"> 	c #7F7771",
", 	c #96968B",
"' 	c #9B9B8C",
") 	c #959487",
"! 	c #8C8B8A",
"~ 	c #9B9B8E",
"{ 	c #8F8E8F",
"] 	c #535858",
"^ 	c #353536",
"/ 	c #484846",
"( 	c #767571",
"_ 	c #57859A",
": 	c #959183",
"< 	c #515151",
"[ 	c #2F3831",
"} 	c #575758",
"| 	c #3D3B39",
"1 	c #4C4C4D",
"2 	c #3B3A37",
"3 	c #3D3E3E",
"4 	c #4A4846",
"5 	c #6A6A65",
"6 	c #3D403B",
"7 	c #5B5B56",
"8 	c #5A5A57",
"9 	c #50504B",
"0 	c #484749",
"a 	c #4B4C4C",
"b 	c #3C3C3D",
"c 	c #535151",
"d 	c #43453F",
"e 	c #535354",
"f 	c #ADAC9C",
"g 	c #496A79",
"h 	c #426475",
"i 	c #444241",
"j 	c #565656",
"k 	c #4D4D4D",
"l 	c #70706F",
"m 	c #5F6463",
"n 	c #474848",
"o 	c #565655",
"p 	c #5D5D5D",
"q 	c #6D6C6C",
"r 	c #6B6B6A",
"s 	c #979697",
"t 	c #7B7874",
"u 	c #4C4A49",
"v 	c #6E7573",
"w 	c #565451",
"x 	c #656462",
"y 	c #90877D",
"z 	c #6F6F6E",
"A 	c #5B5A5B",
"B 	c #434444",
"C 	c #454342",
"D 	c #436576",
"E 	c #77A3AB",
"F 	c #857F77",
"G 	c #565D5E",
"H 	c #3E3E3F",
"I 	c #84857E",
"J 	c #76746D",
"K 	c #6A6A6A",
"L 	c #585651",
"M 	c #47463E",
"N 	c #58504C",
"O 	c #444C4F",
"P 	c #323E41",
"Q 	c #324143",
"R 	c #283538",
"S 	c #515953",
"T 	c #3A3831",
"U 	c #544E48",
"V 	c #646665",
"W 	c #8C9187",
"X 	c #ACAA99",
"Y 	c #8A8A81",
"Z 	c #636263",
"` 	c #395051",
" .	c #A29689",
"..	c #659CB4",
"+.	c #AFAF9E",
"@.	c #B2B2A1",
"#.	c #7D756F",
"$.	c #606259",
"%.	c #EAD7BD",
"&.	c #7E7F79",
"*.	c #999998",
"=.	c #27352E",
"-.	c #1C1B49",
";.	c #014A4E",
">.	c #263148",
",.	c #161749",
"'.	c #2D4449",
").	c #161649",
"!.	c #263446",
"~.	c #01137D",
"{.	c #121E3C",
"].	c #525F61",
"^.	c #6B7471",
"/.	c #F0E7DB",
"(.	c #909090",
"_.	c #6D6964",
":.	c #807871",
"<.	c #ADAD9B",
"[.	c #91928F",
"}.	c #A6A59B",
"|.	c #B3AEA2",
"1.	c #A1A190",
"2.	c #5D5B5B",
"3.	c #8F908A",
"4.	c #827A74",
"5.	c #4D5C5F",
"6.	c #2D4A6E",
"7.	c #2E495F",
"8.	c #3F6AC1",
"9.	c #315B9F",
"0.	c #355562",
"a.	c #3765A6",
"b.	c #447181",
"c.	c #30599D",
"d.	c #3361B1",
"e.	c #355772",
"f.	c #274468",
"g.	c #435155",
"h.	c #64605D",
"i.	c #5B5B5B",
"j.	c #504E4D",
"k.	c #999994",
"l.	c #A6A592",
"m.	c #A4A598",
"n.	c #5E6767",
"o.	c #746E67",
"p.	c #90908F",
"q.	c #737373",
"r.	c #8E8E8C",
"s.	c #696C60",
"t.	c #305EB0",
"u.	c #2D4864",
"v.	c #2D465E",
"w.	c #325FB5",
"x.	c #2F5698",
"y.	c #2E464F",
"z.	c #436F89",
"A.	c #2E454E",
"B.	c #305CB2",
"C.	c #2E4962",
"D.	c #2C4763",
"E.	c #2F5CAF",
"F.	c #3E4443",
"G.	c #6E6E6F",
"H.	c #B0B09F",
"I.	c #808484",
"J.	c #817C76",
"K.	c #3A3939",
"L.	c #4A5153",
"M.	c #9C9B89",
"N.	c #7A7A70",
"O.	c #D7D7D1",
"P.	c #14384B",
"Q.	c #2F4A63",
"R.	c #243D4C",
"S.	c #233C4B",
"T.	c #314A62",
"U.	c #2C465A",
"V.	c #1F3945",
"W.	c #22455C",
"X.	c #314B63",
"Y.	c #233F4B",
"Z.	c #636C6C",
"`.	c #8D8681",
" +	c #A0A08F",
".+	c #78716C",
"++	c #585B59",
"@+	c #393939",
"#+	c #444444",
"$+	c #71726E",
"%+	c #585C57",
"&+	c #56544E",
"*+	c #5A91BF",
"=+	c #4776CC",
"-+	c #436E91",
";+	c #426D8C",
">+	c #4979CC",
",+	c #4775B8",
"'+	c #40697E",
")+	c #2D5BBF",
"!+	c #436D91",
"~+	c #4A79CF",
"{+	c #4474A9",
"]+	c #4C4B4A",
"^+	c #7C7671",
"/+	c #9B9B96",
"(+	c #626161",
"_+	c #4D4F4D",
":+	c #494948",
"<+	c #646463",
"[+	c #6C6B6A",
"}+	c #716A65",
"|+	c #263C46",
"1+	c #5889B7",
"2+	c #679DD7",
"3+	c #3C6484",
"4+	c #3E6682",
"5+	c #4774BD",
"6+	c #4570AA",
"7+	c #3D6376",
"8+	c #3C69BE",
"9+	c #3C6275",
"0+	c #4775BD",
"a+	c #3F6786",
"b+	c #4775BF",
"c+	c #436FA5",
"d+	c #403F3E",
"e+	c #666767",
"f+	c #6A6968",
"g+	c #756E68",
"h+	c #5A5A58",
"i+	c #8F8A82",
"j+	c #7D7D77",
"k+	c #73706D",
"l+	c #515455",
"m+	c #2C3E42",
"n+	c #477787",
"o+	c #3D68A5",
"p+	c #3A5D77",
"q+	c #395C74",
"r+	c #426DA7",
"s+	c #315989",
"t+	c #395A63",
"u+	c #3B606A",
"v+	c #385962",
"w+	c #345C8B",
"x+	c #335D97",
"y+	c #3A5D75",
"z+	c #426EA8",
"A+	c #3E6284",
"B+	c #374342",
"C+	c #525554",
"D+	c #867E76",
"E+	c #75716E",
"F+	c #B6AFA2",
"G+	c #313132",
"H+	c #313931",
"I+	c #696969",
"J+	c #4E5252",
"K+	c #729B9B",
"L+	c #ADD8DA",
"M+	c #99CFFC",
"N+	c #487595",
"O+	c #48738F",
"P+	c #6AA1E2",
"Q+	c #6194C4",
"R+	c #2E5BB7",
"S+	c #4D7DD5",
"T+	c #2F5CB7",
"U+	c #4976B2",
"V+	c #4A79CA",
"W+	c #497693",
"X+	c #4A7694",
"Y+	c #6CA3E5",
"Z+	c #5B8EC1",
"`+	c #54737C",
" @	c #897E75",
".@	c #545455",
"+@	c #555555",
"@@	c #5A5F5F",
"#@	c #565A5B",
"$@	c #797470",
"%@	c #5F6565",
"&@	c #6D7575",
"*@	c #8CB8CC",
"=@	c #92C7F7",
"-@	c #65A4C7",
";@	c #598EAB",
">@	c #79B0F4",
",@	c #588CDD",
"'@	c #2E5BB8",
")@	c #4D7BD3",
"!@	c #4278B5",
"~@	c #5A8FDE",
"{@	c #6BA2EA",
"]@	c #4980C3",
"^@	c #416FAD",
"/@	c #5C8EC2",
"(@	c #3E677B",
"_@	c #6E6F6C",
":@	c #585F5F",
"<@	c #77736F",
"[@	c #565858",
"}@	c #474A4A",
"|@	c #5E6868",
"1@	c #4D4B4A",
"2@	c #55737C",
"3@	c #7FAED1",
"4@	c #98C1D5",
"5@	c #577D98",
"6@	c #557B93",
"7@	c #94BED4",
"8@	c #5991AF",
"9@	c #3E6881",
"0@	c #3D6BCD",
"a@	c #3F6A7F",
"b@	c #4A79CC",
"c@	c #49778A",
"d@	c #587D8E",
"e@	c #66A2C2",
"f@	c #598FAA",
"g@	c #3F687C",
"h@	c #4B5553",
"i@	c #575757",
"j@	c #454646",
"k@	c #646465",
"l@	c #B4B1A4",
"m@	c #828889",
"n@	c #6A6969",
"o@	c #414141",
"p@	c #5A6665",
"q@	c #729A98",
"r@	c #B1C4CA",
"s@	c #5D7E86",
"t@	c #5D7C84",
"u@	c #89B6B6",
"v@	c #71959B",
"w@	c #436671",
"x@	c #4F809B",
"y@	c #466770",
"z@	c #4C768F",
"A@	c #4E7A98",
"B@	c #4A7E8D",
"C@	c #487C99",
"D@	c #68A3C5",
"E@	c #518AA9",
"F@	c #535555",
"G@	c #676C6C",
"H@	c #89857D",
"I@	c #CCC4B3",
"J@	c #333232",
"K@	c #2C2C2C",
"L@	c #494848",
"M@	c #525252",
"N@	c #919191",
"O@	c #D0E3E8",
"P@	c #FDFCFC",
"Q@	c #A7C1CB",
"R@	c #C1C5C6",
"S@	c #F3F9FA",
"T@	c #E6E9E9",
"U@	c #85ABBB",
"V@	c #81BAF8",
"W@	c #66A4C3",
"X@	c #639DD7",
"Y@	c #6AA2E6",
"Z@	c #619EBF",
"`@	c #609DBF",
" #	c #91C9FB",
".#	c #79B3DF",
"+#	c #5391AF",
"@#	c #3C4F4D",
"##	c #545757",
"$#	c #6D6B69",
"%#	c #72716E",
"&#	c #454444",
"*#	c #415252",
"=#	c #5E5D5E",
"-#	c #7C7365",
";#	c #DFDDDB",
">#	c #D3F6F9",
",#	c #AAC3CC",
"'#	c #BEC5C7",
")#	c #F1FBFC",
"!#	c #E0E9EB",
"~#	c #B2B8BC",
"{#	c #87C1FD",
"]#	c #72A8C4",
"^#	c #84BEE9",
"/#	c #96CEFD",
"(#	c #5F9CBF",
"_#	c #71AFD6",
":#	c #CEFCFF",
"<#	c #83BEEC",
"[#	c #5492B0",
"}#	c #5E5E5C",
"|#	c #5F5F5F",
"1#	c #C2B5A7",
"2#	c #9F9F8D",
"3#	c #7E7E71",
"4#	c #53524E",
"5#	c #586060",
"6#	c #515557",
"7#	c #312F17",
"8#	c #6F6F70",
"9#	c #A3A1A0",
"0#	c #5D676B",
"a#	c #5D6467",
"b#	c #62868F",
"c#	c #7E807C",
"d#	c #4A6367",
"e#	c #69737C",
"f#	c #507576",
"g#	c #4B798C",
"h#	c #4F7C94",
"i#	c #486671",
"j#	c #506573",
"k#	c #73888C",
"l#	c #507282",
"m#	c #32505F",
"n#	c #504D4C",
"o#	c #565F5F",
"p#	c #7B7B7D",
"q#	c #C7BFAF",
"r#	c #959586",
"s#	c #5D6969",
"t#	c #5E6465",
"u#	c #232311",
"v#	c #A0A38D",
"w#	c #F5F5F0",
"x#	c #C1C2B5",
"y#	c #C4C4C5",
"z#	c #F9FCFD",
"A#	c #B9E4EC",
"B#	c #BBB9B9",
"C#	c #E8E7E6",
"D#	c #98B1BA",
"E#	c #9EC8EB",
"F#	c #A3D2FE",
"G#	c #6C9185",
"H#	c #4D5333",
"I#	c #7B8047",
"J#	c #6C6D38",
"K#	c #516F7A",
"L#	c #555252",
"M#	c #565555",
"N#	c #706D69",
"O#	c #CECDCC",
"P#	c #76726D",
"Q#	c #9A958D",
"R#	c #616667",
"S#	c #646E6E",
"T#	c #18191C",
"U#	c #243C00",
"V#	c #505917",
"W#	c #585E51",
"X#	c #847F78",
"Y#	c #DEDDE4",
"Z#	c #CAC7CC",
"`#	c #A4A49D",
" $	c #D9D9DE",
".$	c #ABAAAD",
"+$	c #E0DDDE",
"@$	c #D5EFF2",
"#$	c #606054",
"$$	c #333915",
"%$	c #455131",
"&$	c #414A23",
"*$	c #30464B",
"=$	c #5D5F5F",
"-$	c #4E4E4E",
";$	c #707065",
">$	c #646462",
",$	c #5E5C5B",
"'$	c #A7A596",
")$	c #827A73",
"!$	c #7C7875",
"~$	c #4B392B",
"{$	c #606326",
"]$	c #5F6227",
"^$	c #594926",
"/$	c #697621",
"($	c #7E9231",
"_$	c #787E45",
":$	c #82874C",
"<$	c #858850",
"[$	c #888954",
"}$	c #C9C094",
"|$	c #EAD4BA",
"1$	c #7B7D45",
"2$	c #5E5F24",
"3$	c #697039",
"4$	c #485530",
"5$	c #867D75",
"6$	c #4A4B4B",
"7$	c #545454",
"8$	c #75726F",
"9$	c #605E5C",
"0$	c #A69D92",
"a$	c #A9A49D",
"b$	c #898581",
"c$	c #7E7A77",
"d$	c #2F2824",
"e$	c #34180C",
"f$	c #43261C",
"g$	c #A26848",
"h$	c #9D6346",
"i$	c #8E5E40",
"j$	c #986042",
"k$	c #845238",
"l$	c #AC7850",
"m$	c #C38744",
"n$	c #B07837",
"o$	c #BC854A",
"p$	c #B77A43",
"q$	c #C38952",
"r$	c #AA733F",
"s$	c #684528",
"t$	c #4A3F2A",
"u$	c #B4B5AC",
"v$	c #646464",
"w$	c #87877B",
"x$	c #A9AA97",
"y$	c #8E8E8E",
"z$	c #6B6C6C",
"A$	c #857F79",
"B$	c #62524D",
"C$	c #A47620",
"D$	c #DD9D51",
"E$	c #F0A65C",
"F$	c #D0914F",
"G$	c #B87554",
"H$	c #DEA151",
"I$	c #F8C578",
"J$	c #D8984B",
"K$	c #E9AC5D",
"L$	c #DD9D4E",
"M$	c #DF9B63",
"N$	c #DDA955",
"O$	c #F9C97F",
"P$	c #DFB767",
"Q$	c #F6C073",
"R$	c #F6D78D",
"S$	c #D5A553",
"T$	c #776F6C",
"U$	c #565758",
"V$	c #82837D",
"W$	c #B2B2A0",
"X$	c #A3835B",
"Y$	c #A98860",
"Z$	c #B18251",
"`$	c #FFB25B",
" %	c #F7AD5F",
".%	c #FFB062",
"+%	c #FFB162",
"@%	c #FFB767",
"#%	c #FFCE7B",
"$%	c #FFCC7C",
"%%	c #FEC979",
"&%	c #FFCB7B",
"*%	c #FFCA7A",
"=%	c #FFD584",
"-%	c #FFE498",
";%	c #FEEEA4",
">%	c #FFEFA5",
",%	c #FEEDA2",
"'%	c #FFF0A6",
")%	c #FFFAA8",
"!%	c #B0A177",
"~%	c #B0A78A",
"{%	c #B8B491",
"]%	c #F5AB5C",
"^%	c #FEB060",
"/%	c #FFB262",
"(%	c #FCAF60",
"_%	c #FDB061",
":%	c #FFB061",
"<%	c #FFB465",
"[%	c #FFB565",
"}%	c #FFB364",
"|%	c #FFC979",
"1%	c #FFC878",
"2%	c #FFC777",
"3%	c #FFCF80",
"4%	c #FFCE7F",
"5%	c #FECE7F",
"6%	c #FFD080",
"  . + @ # $ % & * = - ; > ; , ' ) ! ~ { ; ] ^ / ( ",
"_ : < [ } | 1 2 3 1 4 5 6 7 8 9 0 a b c 5 d e f g ",
"h i j k l m n j o p q r s + t u v w x y z A B C D ",
"E F G H I J K L M N O P Q R S T U V W X Y Z `  ...",
"+.@.#.$.%.&.*.=.-.;.>.,.'.).!.~.{.].^./.(._.:.<.[.",
"}.|.1.2.3.4.5.6.7.8.9.0.a.b.c.d.e.f.g.h.i.j.k.l.m.",
"n.o.p.q.r.s.t.u.v.w.x.y.z.A.x.B.C.D.E.F.+ G.H.I.J.",
"K.L.M.N.O.P.Q.R.S.T.U.V.W.V.U.T.S.R.X.Y.Z.`. +.+++",
"@+#+$+%+&+*+=+-+;+>+,+'+)+'+,+>+;+!+~+{+]+^+/+(+_+",
":+<+[+}+|+1+2+3+4+5+6+7+8+9+6+0+4+a+b+c+d+e+f+g+h+",
"i+j+k+l+m+n+o+p+q+r+s+t+u+v+w+x+y+p+z+A+B+C+D+E+F+",
"G+H+I+J+K+L+M+N+O+P+Q+R+S+T+U+V+W+X+Y+Z+`+ @D+.@+@",
"@@#@$@%@&@*@=@-@;@>@,@'@)@!@~@{@]@^@Y+/@(@_@:@<@I+",
"[@}@|@1@2@3@4@5@6@7@8@9@0@a@,+b@c@d@e@f@g@h@i@j@k@",
"l@m@n@o@p@q@r@s@t@u@v@w@x@y@z@A@B@C@D@E@y@F@G@H@I@",
"J@K@L@M@N@O@P@Q@R@S@T@U@V@W@X@Y@Z@`@ #.#+#@###$#%#",
"+ &#*#=#-#;#>#,#'#)#!#~#{#]#^#/#(#_#:#<#[#}#|#1#2#",
"3#4#5#6#7#8#9#0#a#b#c#d#e#f#g#h#i#j#k#l#m#n#o#p#q#",
"r#( s#t#u#v#w#x#y#z#A#B#C#D#E#F#G#H#I#J#K#L#M#N#O#",
"P#Q#R#S#T#U#V#W#X#Y#Z#`# $.$+$@$#$$$%$&$*$=$-$;$>$",
",$'$)$!$~${$]$^$/$($_$:$<$[$}$|$1$2$3$4$5$6$7$8$9$",
"0$a$b$c$d$e$f$g$h$i$j$k$l$m$n$o$p$q$r$s$t$u$v$w$x$",
"y$z$A$B$C$D$E$F$G$H$I$J$K$L$M$N$O$P$Q$R$S$T$U$V$W$",
"X$Y$Z$`$ %.%+%@%#%$%%%&%*%&%=%-%;%>%;%,%'%)%!%~%{%",
"]%^%/%+%(%_%+%:%<%[%}%|%|%|%1%2%3%4%4%4%4%5%6%6%6%"};
