/* XPM */
static const char *graphics_xpm[] = {
"48 48 12 1",
" 	c None",
".	c #232629",
"+	c #242629",
"@	c #24272A",
"#	c #24262A",
"$	c #242628",
"%	c #222629",
"&	c #232729",
"*	c #232529",
"=	c #23262A",
"-	c #22262A",
";	c #232628",
"                                                ",
" .............................................. ",
" .............................................. ",
" .............................................. ",
" ...                                        ... ",
" ...                                        ... ",
" ...                                        ... ",
" ...      .......                           ... ",
" ...     .........+                         ... ",
" ...    ....@ #$...%                        ... ",
" ...   ....      ...                        ... ",
" ...   ...       &...                       ... ",
" ...   ..@        ...                       ... ",
" ...   ..         *..                       ... ",
" ...   ..#        ...                       ... ",
" ...   ..$        ..=                       ... ",
" ...   ...       ...=                       ... ",
" ...    ...&    ....                        ... ",
" ...    +..........                         ... ",
" ...     %........                          ... ",
" ...       .....=                           ... ",
" ...                            .           ... ",
" ...                           ...          ... ",
" ...                          .....         ... ",
" ...                         .......        ... ",
" ...                        .... ....       ... ",
" ...                       ....   ....      ... ",
" ...              #.      ....     ....     ... ",
" ...             #...    ....       ....    ... ",
" ...            -....@  ....         ....   ... ",
" ...           -......@....           ..;   ... ",
" ...          -...- ......             *    ... ",
" ...         -...-   ....                   ... ",
" ...        #...%     ..                    ... ",
" ...       -...-                            ... ",
" ...      #...%                             ... ",
" ...     #...%                              ... ",
" ...    #...%                               ... ",
" ...   #...%                                ... ",
" ...   ...-                                 ... ",
" ...    .%                                  ... ",
" ...                                        ... ",
" ...                                        ... ",
" ...                                        ... ",
" .............................................. ",
" .............................................. ",
" .............................................. ",
"                                                "};
