/* XPM */
static const char *hex_xpm[] = {
"36 38 2 1",
" 	c None",
".	c #000000",
"                                    ",
"      ........                      ",
"     ..........                     ",
"    ...      ...                    ",
"   ...        ...                   ",
"  ...          ...                  ",
"  ..            ..                  ",
" ...            ...                 ",
" ..              ..                 ",
" ..              ..                 ",
" ..              ..                 ",
" ..              ..                 ",
" ..              ..                 ",
" ..              ..                 ",
" ..              ..                 ",
" ..              ..                 ",
" ..              ..   ..         .  ",
" ..              ..   ..        ... ",
" ..              ..   ...      ...  ",
" ..              ..    ..      ..   ",
" ..              ..    ...    ...   ",
" ..              ..     ..    ..    ",
" ..              ..     ...  ...    ",
" ..              ..      ... ..     ",
" ..              ..       .....     ",
" ..              ..       ....      ",
" ..              ..        ...      ",
" ..              ..       ....      ",
" ..              ..       .....     ",
" ..              ..      ... ..     ",
" ...            ...      ..  ...    ",
"  ..            ..      ...   ..    ",
"  ...          ...     ...    ...   ",
"   ...        ...      ..      ..   ",
"    ...      ...      ...      ...  ",
"     ..........       ..        ... ",
"      ........        ..         .. ",
"                                    "};
