/* XPM */
static const char *open_xpm[] = {
"44 44 4 1",
" 	c None",
".	c #232629",
"+	c #222629",
"@	c #22262A",
"                                            ",
" ..................+                        ",
" ...................+                       ",
" ....................+                      ",
" .....................+                     ",
" ......................+                    ",
" .......................................... ",
" .......................................... ",
" .......................................... ",
" .......................................... ",
" .......................................... ",
" .......................................... ",
" .......................................... ",
" .......................................... ",
" ..............+                         .. ",
" .............+                          .. ",
" ............+                           .. ",
" ...........+                            .. ",
" ..........+                             .. ",
" ..@                                     .. ",
" ..                                      .. ",
" ..                                      .. ",
" ..                                      .. ",
" ..                                      .. ",
" ..                                      .. ",
" ..                                      .. ",
" ..                                      .. ",
" ..                                      .. ",
" ..                                      .. ",
" ..                                      .. ",
" ..                                      .. ",
" ..                                      .. ",
" ..                                      .. ",
" ..                                      .. ",
" ..                                      .. ",
" ..                                      .. ",
" ..                                      .. ",
" ..                                      .. ",
" ..                                      .. ",
" ..                                      .. ",
" ..@                                    @.. ",
" .......................................... ",
" .......................................... ",
"                                            "};
