/* XPM */
static const char *Ox_xpm[] = {
"25 25 2 1",
"  c #000000",
". c None",
".........................",
".........................",
".........................",
".........................",
".....    ................",
"...        ..............",
"..   ....   .............",
".   .......  ............",
".  ........  ............",
".  ........  ............",
"   ........  .........  .",
"  .........  ...  ....  .",
"  .........  ...   ..  ..",
"  .........  ....  ..  ..",
"  .........  ....     ...",
".  .......  ......    ...",
".  ......   .......   ...",
"..  ....   .......     ..",
"..       .......    .    ",
"...     ........  ....   ",
".........................",
".........................",
".........................",
".........................",
"........................."
};
