/* XPM */
static const char *paste_order_xpm[] = {
"44 44 2 1",
" 	c None",
".	c #000000",
"                                            ",
" .......................................... ",
" .......................................... ",
" ..           ..            ..           .. ",
" ..           ..            ..           .. ",
" ..           ..            ..          ... ",
" ..           ..            ..         .... ",
" ..           ..            ..        ..... ",
" ..           ..            ..       ... .. ",
" .............................      ...  .. ",
" .............................     ...   .. ",
" ..           ..            ..    ...    .. ",
" ..           ..            ..   ...     .. ",
" ..           ..            ..  ...      .. ",
" ..           ..            .. ...       .. ",
" ..           ..            .....       ... ",
" ..           ..            ....       .... ",
" ..............................       ..... ",
" .............................       ...... ",
" ..           ..            ..      ...  .. ",
" ..           ..            ..     ...   .. ",
" ..           ..            ..    ...    .. ",
" ..           ..            ..   ...     .. ",
" ..           ..            ..  ...      .. ",
" ..           ..            .. ....      .. ",
" .......................................... ",
" .......................................... ",
" ..           ..                            ",
" ..           ..                            ",
" ..           ..                            ",
" ..           ..              .             ",
" ..           ..              ...           ",
" ..           ..              ....          ",
" ..........................   .......       ",
" ..........................   .........     ",
" ..           ..              ..........    ",
" ..           ..              ............  ",
" ..           ..              ...........   ",
" ..           ..              .........     ",
" ..           ..              .......       ",
" ..           ..              .....         ",
" ..........................   ...           ",
" ..........................   .             ",
"                                            "};
