/* XPM */
static const char *Paste_xpm[] = {
"25 25 2 1",
"  c #22B14C",
". c None",
".........................",
".........................",
".........................",
".........................",
".....   .........   .....",
"....    ........    .....",
"...     .......     .....",
"..      ......      .....",
"..      ......      .....",
".....   .........   .....",
".....   .........   .....",
".....   .........   .....",
".....   ...   ...   .....",
".....   ...   ...   .....",
".....   ...   ...   .....",
".....   .........   .....",
".....   .........   .....",
".....   .........   .....",
".....   ...   ...   .....",
".....   ...   ...   .....",
".....   ...   ...   .....",
".....   .........   .....",
".....   .........   .....",
".....   .........   .....",
"........................."
};
