/* XPM */
static const char *Question_xpm[] = {
"25 25 3 1",
"  c #3F48CC",
"X c #3F6AE6",
", c None",
",,,,,,,,,,,,,,,,,,,,,,,,,",
",,,,,,,,,,,,,,,,,,,,,,,,,",
",,,,,,,,,,,,,,,,,,,,,,,,,",
",,,,,,,,,X   XX,,,,,,,,,,",
",,,,,,,X       XX,,,,,,,,",
",,,,,,X         XX,,,,,,,",
",,,,,,XX X,,,X   X,,,,,,,",
",,,,,,,,,,,,,,XX XX,,,,,,",
",,,,,,,,,,,,,,,X  X,,,,,,",
",,,,,,,,,,,,,,,XX X,,,,,,",
",,,,,,,,,,,,,,,XX X,,,,,,",
",,,,,,,,,,,,,,XX XX,,,,,,",
",,,,,,,,,,,,,XX  X,,,,,,,",
",,,,,,,,,,,,X   XX,,,,,,,",
",,,,,,,,,,,X   XX,,,,,,,,",
",,,,,,,,,,X   X,,,,,,,,,,",
",,,,,,,,,X   X,,,,,,,,,,,",
",,,,,,,,,X XX,,,,,,,,,,,,",
",,,,,,,,,,,,,,,,,,,,,,,,,",
",,,,,,,,,,,,,,,,,,,,,,,,,",
",,,,,,,,XX X,,,,,,,,,,,,,",
",,,,,,,,X  X,,,,,,,,,,,,,",
",,,,,,,,XXXX,,,,,,,,,,,,,",
",,,,,,,,,,,,,,,,,,,,,,,,,",
",,,,,,,,,,,,,,,,,,,,,,,,,"
};
