/* XPM */
static const char * save_xpm[] = {
"44 44 5 1",
" 	c None",
".	c #232629",
"+	c #22262A",
"@	c #232728",
"#	c #232729",
"                                            ",
" ..................................         ",
" ...................................        ",
" ..+       ...          ......... ...       ",
" ..        ...          @........  ...      ",
" ..        ...          @........   ...     ",
" ..        ...          @........    ...    ",
" ..        ...          @........     ...   ",
" ..        ...          @........      ...  ",
" ..        ...          @........       ... ",
" ..        ...          @........        .. ",
" ..        ...          @........        .. ",
" ..        ...          @........        .. ",
" ..        ...          @........        .. ",
" ..        ......................        .. ",
" ..        ......................        .. ",
" ..         ....................         .. ",
" ..                                      .. ",
" ..                                      .. ",
" ..                                      .. ",
" ..                                      .. ",
" ..                                      .. ",
" ..      ..........................      .. ",
" ..      ..........................      .. ",
" ..      ..#....................#..      .. ",
" ..      ..                      ..      .. ",
" ..      ..                      ..      .. ",
" ..      ..                      ..      .. ",
" ..      ..                      ..      .. ",
" ..      ..                      ..      .. ",
" ..      ..                      ..      .. ",
" ..      ..                      ..      .. ",
" ..      ..                      ..      .. ",
" ..      ..                      ..      .. ",
" ..      ..                      ..      .. ",
" ..      ..                      ..      .. ",
" ..      ..                      ..      .. ",
" ..      ..                      ..      .. ",
" ..      ..                      ..      .. ",
" ..      ..                      ..      .. ",
" ..+    +..+                    +..+    +.. ",
" .......................................... ",
" .......................................... ",
"                                            "};
