/* XPM */
static const char *SecondWindow_xpm[] = {
"25 10 3 1",
"  c #000000",
". c #00A2E8",
"X c #FFFFFF",
/* pixels */
" ........... ........... ",
"                         ",
" XXXXXXXXXXX XXXXXXXXXXX ",
" XXXXXXXXXXX XXXXXXXXXXX ",
" XXXXXXXXXXX XXXXXXXXXXX ",
" XXXXXXXXXXX XXXXXXXXXXX ",
" XXXXXXXXXXX XXXXXXXXXXX ",
" XXXXXXXXXXX XXXXXXXXXXX ",
" XXXXXXXXXXX XXXXXXXXXXX ",
"                         "};
