/* XPM */
static const char *selection_xpm[] = {
"44 44 2 1",
" 	c None",
".	c #000000",
"                                            ",
"         ..                                 ",
"         ..                                 ",
"         ..         ....................... ",
"         ..        ........................ ",
"         ..        ........................ ",
"         ..                                 ",
"         ..                                 ",
"         ..                                 ",
"         ..                        ........ ",
"         ..                        ........ ",
"         ..                                 ",
"         ..                                 ",
"         ..                                 ",
"         ..              .................. ",
"         ..              .................. ",
"         ..              .................. ",
" ...     ..     ...                         ",
" ....    ..    ....                         ",
"  ....   ..   ....  ....................... ",
"   ....  ..  ....  ........................ ",
"    .... .. ....   ........................ ",
"     ..........                             ",
"      ........                              ",
"       ......                               ",
"        ....                     .......... ",
"         ..                      .......... ",
"                                            ",
"                                            ",
"                                            ",
" .......................................... ",
" .......................................... ",
" .......................................... ",
"                                            ",
"                                            ",
"                      ..................... ",
"                      ..................... ",
"                      ..................... ",
"                                            ",
"                                            ",
"                                            ",
"                           ................ ",
"                           ................ ",
"                                            "};
