/* XPM */
static const char *show_unknown_xpm[] = {
"32 48 2 1",
" 	c None",
".	c #000000",
"             ......             ",
"          ............          ",
"        ................        ",
"      ....................      ",
"     .......        .......     ",
"    ......            ......    ",
"   .....                .....   ",
"   ....                  ....   ",
"  ....                    ....  ",
"  ....                    ....  ",
" ....                      .... ",
" ....                      .... ",
" ...                        ... ",
"....                        ....",
"....                        ....",
"....                        ....",
"                            ....",
"                            ....",
"                            ....",
"                            ... ",
"                           .... ",
"                           .... ",
"                          ....  ",
"                          ....  ",
"                         ....   ",
"                        .....   ",
"                      ......    ",
"                    .......     ",
"            ..............      ",
"            ............        ",
"            ..........          ",
"            .......             ",
"            ....                ",
"            ....                ",
"            ....                ",
"            ....                ",
"            ....                ",
"            ....                ",
"            ....                ",
"            ....                ",
"                                ",
"                                ",
"                                ",
"                                ",
"            ....                ",
"            ....                ",
"            ....                ",
"            ....                "};
