/* XPM */
static const char *TC_xpm[] = {
"25 25 254 2",
"  	c None",
". 	c #171FA1",
"+ 	c #09108E",
"@ 	c #050DAC",
"# 	c #00033E",
"$ 	c #2C36B2",
"% 	c #212DE2",
"& 	c #2330EF",
"* 	c #303DD8",
"= 	c #232CAE",
"- 	c #0D1490",
"; 	c #212FF5",
"> 	c #3F4EF8",
", 	c #5161FE",
"' 	c #4756FF",
") 	c #5D6BE0",
"! 	c #343CAB",
"~ 	c #1824DF",
"{ 	c #3A48EF",
"] 	c #4E5FFF",
"^ 	c #1A27EC",
"/ 	c #101CEB",
"( 	c #1A26DB",
"_ 	c #222ED2",
": 	c #555EB2",
"< 	c #4954C5",
"[ 	c #0B14CC",
"} 	c #191D54",
"| 	c #323FF8",
"1 	c #0F19CD",
"2 	c #151FCF",
"3 	c #0D17D9",
"4 	c #0D1056",
"5 	c #181C6E",
"6 	c #2E37B4",
"7 	c #5462DA",
"8 	c #1B26DB",
"9 	c #0C13A2",
"0 	c #171D65",
"a 	c #2532E4",
"b 	c #141FC7",
"c 	c #0F1AEB",
"d 	c #2B318A",
"e 	c #535357",
"f 	c #8D8D86",
"g 	c #7A7EB0",
"h 	c #5560CE",
"i 	c #4350D8",
"j 	c #0D1397",
"k 	c #3E4DEE",
"l 	c #222DD2",
"m 	c #2C39E8",
"n 	c #21289A",
"o 	c #45454E",
"p 	c #7B7B7A",
"q 	c #AAAAAA",
"r 	c #A4A4A3",
"s 	c #7F808C",
"t 	c #5360DA",
"u 	c #474D96",
"v 	c #0F169A",
"w 	c #2230F7",
"x 	c #2631D1",
"y 	c #33355F",
"z 	c #63625E",
"A 	c #878789",
"B 	c #8B8B8B",
"C 	c #8A8A8A",
"D 	c #8D8D8B",
"E 	c #6A6E7F",
"F 	c #505CCE",
"G 	c #1924E8",
"H 	c #1E2693",
"I 	c #0A13BE",
"J 	c #0E169D",
"K 	c #3D4282",
"L 	c #63625D",
"M 	c #565655",
"N 	c #252525",
"O 	c #373737",
"P 	c #6D6D6E",
"Q 	c #7A7974",
"R 	c #545982",
"S 	c #1A25DA",
"T 	c #333EBD",
"U 	c #0F17B7",
"V 	c #1019A3",
"W 	c #565974",
"X 	c #7F7F7D",
"Y 	c #4E4E4E",
"Z 	c #434343",
"` 	c #363636",
" .	c #383838",
"..	c #666666",
"+.	c #65666D",
"@.	c #2A32B1",
"#.	c #242EBA",
"$.	c #3542D8",
"%.	c #1922BC",
"&.	c #CFCFCF",
"*.	c #4C4C4C",
"=.	c #535456",
"-.	c #616161",
";.	c #343434",
">.	c #646464",
",.	c #444564",
"'.	c #414DDC",
").	c #5460D9",
"!.	c #1F2897",
"~.	c #D4D4D0",
"{.	c #D3D3D4",
"].	c #4F4F50",
"^.	c #7F7F7F",
"/.	c #6C6C6D",
"(.	c #2F2F2E",
"_.	c #3B3B3D",
":.	c #555556",
"<.	c #3642D9",
"[.	c #4453F8",
"}.	c #262956",
"|.	c #FFFFFF",
"1.	c #C4C4C4",
"2.	c #6B6B6B",
"3.	c #979799",
"4.	c #99999A",
"5.	c #676766",
"6.	c #242424",
"7.	c #464646",
"8.	c #3D3D3D",
"9.	c #4554F7",
"0.	c #2532D2",
"a.	c #636470",
"b.	c #B7B7B7",
"c.	c #535353",
"d.	c #737373",
"e.	c #A9A9A9",
"f.	c #C0C0C0",
"g.	c #9E9EA0",
"h.	c #4D4D4C",
"i.	c #29292A",
"j.	c #4A4A4A",
"k.	c #313BAD",
"l.	c #1E2CFB",
"m.	c #0008AA",
"n.	c #B2B2B0",
"o.	c #FEFEFE",
"p.	c #ACACAC",
"q.	c #575757",
"r.	c #7C7C7C",
"s.	c #E7E7E7",
"t.	c #DEDEDD",
"u.	c #8E8E91",
"v.	c #393939",
"w.	c #3B3B3B",
"x.	c #232DA1",
"y.	c #111772",
"z.	c #1D28D6",
"A.	c #181F93",
"B.	c #DBDBDA",
"C.	c #FBFBFB",
"D.	c #9D9D9E",
"E.	c #5B5B5B",
"F.	c #818181",
"G.	c #C5C5C5",
"H.	c #D6D6D5",
"I.	c #5A5A5A",
"J.	c #2B2B2B",
"K.	c #292929",
"L.	c #1A23BC",
"M.	c #0A12AB",
"N.	c #EFEFEF",
"O.	c #F7F7F7",
"P.	c #878787",
"Q.	c #5E5E5E",
"R.	c #848484",
"S.	c #C8C8C8",
"T.	c #FAFAFA",
"U.	c #9D9D9D",
"V.	c #282828",
"W.	c #2E2E2E",
"X.	c #767675",
"Y.	c #646465",
"Z.	c #353535",
"`.	c #F4F4F4",
" +	c #E9E9E9",
".+	c #717171",
"++	c #C3C3C3",
"@+	c #FDFDFD",
"#+	c #C4C4C5",
"$+	c #272727",
"%+	c #222222",
"&+	c #757575",
"*+	c #CCCCCC",
"=+	c #5F5F5F",
"-+	c #BCBCBC",
";+	c #F9F9F9",
">+	c #E0E0E0",
",+	c #0F0F0F",
"'+	c #727272",
")+	c #656565",
"!+	c #484848",
"~+	c #2F2F2F",
"{+	c #2D2D2D",
"]+	c #454545",
"^+	c #9E9E9E",
"/+	c #707070",
"(+	c #A7A7A7",
"_+	c #EAEAEA",
":+	c #DBDBDB",
"<+	c #6E6E6E",
"[+	c #C2C2C2",
"}+	c #6C6C6C",
"|+	c #4D4D4D",
"1+	c #323232",
"2+	c #4D4D4E",
"3+	c #B3B3B5",
"4+	c #7C7C7D",
"5+	c #424242",
"6+	c #595959",
"7+	c #858586",
"8+	c #C1C1C2",
"9+	c #E5E5E5",
"0+	c #D9D9D9",
"a+	c #AEAEAF",
"b+	c #ABABAC",
"c+	c #B4B4B4",
"d+	c #525252",
"e+	c #414141",
"f+	c #272729",
"g+	c #3A3A3A",
"h+	c #7E7E7E",
"i+	c #474747",
"j+	c #8C8C8C",
"k+	c #A6A6A6",
"l+	c #A4A4A7",
"m+	c #A7A7A6",
"n+	c #BBBBBD",
"o+	c #1D1D1D",
"p+	c #1C1C1C",
"q+	c #3E3E3E",
"r+	c #626262",
"s+	c #929292",
"t+	c #B5B5B4",
"u+	c #CECECE",
"v+	c #373738",
"w+	c #404040",
"x+	c #3C3C3C",
"y+	c #696969",
"z+	c #A7A7A8",
"A+	c #303030",
"B+	c #575758",
"C+	c #686869",
"D+	c #79797B",
"E+	c #6B6B6A",
"              . + @ #                             ",
"            $ % & * = -                           ",
"            ; > , ' ) ! ~                         ",
"          { ] ^ / ( _ : < [                       ",
"        } | 1 2 3 4 5 6 7 8 9                     ",
"        0 a b c d e f g h i j                     ",
"        k l m n o p q r s t u                     ",
"        v w x y z A B C D E F G                   ",
"        H I J K L M N O P Q R S                   ",
"        T U V W X Y Z `  ...+.@.                  ",
"        #.$.%.X &.*.=.-. .;.>.,.                  ",
"        '.).!.~.{.].-.^./.(._.:.                  ",
"        <.[.}.|.1.Y 2.3.4.5.6.7.8.                ",
"        9.0.a.|.b.c.d.e.f.g.h.i.j.N               ",
"      k.l.m.n.o.p.q.r.b.s.t.u.` v.w.              ",
"  x.y.z.A.  B.C.D.E.F.G.C.|.H.I.J.v.K.            ",
"    L.M.    N.O.P.Q.R.S.|.o.T.U.V.W.J.  X.Y.Z.    ",
"            `. +.+E.R.++o.o.@+#+` $+%+&+S.d.-.    ",
"            O.*+=+q.F.-+;+o.o.>+c.,+-.*+'+)+!+    ",
"      ~+{+]+>+^+c.Y /+(+_+|.@+:+I.<+[+'+}+|+Z Z.  ",
"    1+v.Z.2+3+4+7.5+6+7+8+9+0+a+b+c+-.<+d+e+Z.f+  ",
"    K.V.N g+h+E. .;.i+-.j+k+l+m+n+Y E.7.          ",
"    6.o+p+K.Q.Z $+6.{+q+r+s+t+u+v+                ",
"    7.Y w.;.w+x+` x+y+e.e.z+                      ",
"        N A+g+7.B+C+D+E+                          "};
