/* XPM */
static const char * Tech_xpm[] = {
"25 25 422 2",
"  	c #22221E",
". 	c #23231F",
"+ 	c #272823",
"@ 	c #5E5B58",
"# 	c #E5D7C0",
"$ 	c #ECD3BF",
"% 	c #B2AA88",
"& 	c #7A7F5D",
"* 	c #3D6326",
"= 	c #4C6A29",
"- 	c #5D762E",
"; 	c #768A3A",
"> 	c #728231",
", 	c #75893A",
"' 	c #5F782D",
") 	c #798E40",
"! 	c #6E7D44",
"~ 	c #45542F",
"{ 	c #373437",
"] 	c #363733",
"^ 	c #535355",
"/ 	c #35352E",
"( 	c #282821",
"_ 	c #2C2C22",
": 	c #262620",
"< 	c #282823",
"[ 	c #91847C",
"} 	c #FFF8EB",
"| 	c #757D59",
"1 	c #476921",
"2 	c #516E28",
"3 	c #83923E",
"4 	c #466829",
"5 	c #678034",
"6 	c #8DA359",
"7 	c #677C2E",
"8 	c #5D772C",
"9 	c #8C9F4F",
"0 	c #708130",
"a 	c #7A8F40",
"b 	c #5F7A34",
"c 	c #54712C",
"d 	c #607D2D",
"e 	c #384824",
"f 	c #1D1A18",
"g 	c #41413E",
"h 	c #2F2F28",
"i 	c #292921",
"j 	c #25251F",
"k 	c #292A27",
"l 	c #FFF3E0",
"m 	c #516936",
"n 	c #426529",
"o 	c #4C6C2A",
"p 	c #74893B",
"q 	c #5B742D",
"r 	c #7E8E3C",
"s 	c #859442",
"t 	c #778D3F",
"u 	c #637A30",
"v 	c #738433",
"w 	c #738331",
"x 	c #5A752D",
"y 	c #47692A",
"z 	c #5E782E",
"A 	c #4F6D2B",
"B 	c #2D4D23",
"C 	c #161413",
"D 	c #494946",
"E 	c #2E2E2A",
"F 	c #B3A09C",
"G 	c #4A6B25",
"H 	c #5F7C36",
"I 	c #4C6B2B",
"J 	c #2A5321",
"K 	c #6C7F30",
"L 	c #738738",
"M 	c #688035",
"N 	c #59752D",
"O 	c #4D6C2A",
"P 	c #456829",
"Q 	c #788B3A",
"R 	c #778A3A",
"S 	c #5D762D",
"T 	c #637E36",
"U 	c #526F2C",
"V 	c #3D6227",
"W 	c #1D471B",
"X 	c #36332F",
"Y 	c #3E3E3A",
"Z 	c #2F2F23",
"` 	c #282820",
" .	c #1D1E1D",
"..	c #45423A",
"+.	c #6D8248",
"@.	c #526F28",
"#.	c #607C36",
"$.	c #718537",
"%.	c #617B35",
"&.	c #446728",
"*.	c #667D2F",
"=.	c #4D6C29",
"-.	c #315924",
";.	c #718739",
">.	c #5C752E",
",.	c #667B2E",
"'.	c #657B2F",
").	c #627A2E",
"!.	c #325A24",
"~.	c #476627",
"{.	c #3F5D2E",
"].	c #575558",
"^.	c #28281F",
"/.	c #2B2B21",
"(.	c #1C1F1E",
"_.	c #7C552A",
":.	c #483C1E",
"<.	c #313130",
"[.	c #6F7463",
"}.	c #79884A",
"|.	c #7A8C37",
"1.	c #7A8C38",
"2.	c #89943F",
"3.	c #496A2A",
"4.	c #85933F",
"5.	c #486828",
"6.	c #2E5824",
"7.	c #3F6428",
"8.	c #698138",
"9.	c #496A29",
"0.	c #60792A",
"a.	c #345D1D",
"b.	c #627561",
"c.	c #7B8375",
"d.	c #615859",
"e.	c #28281E",
"f.	c #2D2E23",
"g.	c #343123",
"h.	c #1D251D",
"i.	c #754D22",
"j.	c #4E472A",
"k.	c #272724",
"l.	c #474649",
"m.	c #68676C",
"n.	c #6E7463",
"o.	c #7A835B",
"p.	c #7B835A",
"q.	c #5D7053",
"r.	c #576C58",
"s.	c #657B5E",
"t.	c #6D8163",
"u.	c #728669",
"v.	c #7A8A64",
"w.	c #87858C",
"x.	c #9C8B8A",
"y.	c #6A6462",
"z.	c #443F3C",
"A.	c #604623",
"B.	c #2A2C21",
"C.	c #2E2E23",
"D.	c #664917",
"E.	c #42391D",
"F.	c #2A2A21",
"G.	c #3C3C39",
"H.	c #686869",
"I.	c #434238",
"J.	c #706866",
"K.	c #82746F",
"L.	c #837571",
"M.	c #81746F",
"N.	c #90827B",
"O.	c #81746E",
"P.	c #7D6E69",
"Q.	c #5E5F61",
"R.	c #403F37",
"S.	c #30322A",
"T.	c #654D24",
"U.	c #946530",
"V.	c #584231",
"W.	c #2B2D21",
"X.	c #333123",
"Y.	c #392F23",
"Z.	c #303023",
"`.	c #2C2C1F",
" +	c #161916",
".+	c #825447",
"++	c #757063",
"@+	c #937366",
"#+	c #B5866E",
"$+	c #A1765E",
"%+	c #5B5953",
"&+	c #3E3630",
"*+	c #302E1F",
"=+	c #323023",
"-+	c #383323",
";+	c #544B2A",
">+	c #9D6B36",
",+	c #5E4332",
"'+	c #353221",
")+	c #26241C",
"!+	c #433925",
"~+	c #71602C",
"{+	c #B4482F",
"]+	c #E3A25A",
"^+	c #9E6E39",
"/+	c #FDAB41",
"(+	c #634B37",
"_+	c #2D2D21",
":+	c #363223",
"<+	c #534928",
"[+	c #A87E4D",
"}+	c #574132",
"|+	c #343223",
"1+	c #272720",
"2+	c #2A2B22",
"3+	c #262412",
"4+	c #5A4426",
"5+	c #2E3022",
"6+	c #953201",
"7+	c #D6A755",
"8+	c #EDC37E",
"9+	c #C5AA87",
"0+	c #CD5001",
"a+	c #2F3023",
"b+	c #313023",
"c+	c #373323",
"d+	c #584B27",
"e+	c #AA7C49",
"f+	c #21211E",
"g+	c #282921",
"h+	c #323022",
"i+	c #353324",
"j+	c #523B2A",
"k+	c #4A3E32",
"l+	c #C94F00",
"m+	c #E0AC38",
"n+	c #FFE984",
"o+	c #D68222",
"p+	c #F57B1B",
"q+	c #303424",
"r+	c #3C3523",
"s+	c #5B4D29",
"t+	c #2C2A20",
"u+	c #433523",
"v+	c #4E3C25",
"w+	c #3A2F1B",
"x+	c #B45035",
"y+	c #D19634",
"z+	c #C7733D",
"A+	c #79604B",
"B+	c #D69443",
"C+	c #715526",
"D+	c #373325",
"E+	c #3B3522",
"F+	c #3B3523",
"G+	c #3A3423",
"H+	c #202117",
"I+	c #513E26",
"J+	c #44370D",
"K+	c #785A4A",
"L+	c #FF9306",
"M+	c #362A1F",
"N+	c #BDB643",
"O+	c #743614",
"P+	c #744825",
"Q+	c #9E7962",
"R+	c #805000",
"S+	c #5A4011",
"T+	c #363325",
"U+	c #403723",
"V+	c #2E2A1D",
"W+	c #583C25",
"X+	c #2D2609",
"Y+	c #864E02",
"Z+	c #83552F",
"`+	c #503221",
" @	c #DE6F19",
".@	c #73532C",
"+@	c #604225",
"@@	c #7E441D",
"#@	c #675039",
"$@	c #835604",
"%@	c #5C4110",
"&@	c #393423",
"*@	c #3F3723",
"=@	c #303024",
"-@	c #2A2818",
";@	c #6D4F1C",
">@	c #926208",
",@	c #C09437",
"'@	c #A67F31",
")@	c #73481B",
"!@	c #927327",
"~@	c #E6BD6D",
"{@	c #AF8938",
"]@	c #866117",
"^@	c #936307",
"/@	c #815100",
"(@	c #4C3B1B",
"_@	c #342B1D",
":@	c #563F25",
"<@	c #4B3B1B",
"[@	c #674406",
"}@	c #845601",
"|@	c #624424",
"1@	c #855600",
"2@	c #805200",
"3@	c #815301",
"4@	c #6F4B08",
"5@	c #4E3221",
"6@	c #303125",
"7@	c #363222",
"8@	c #353223",
"9@	c #24241E",
"0@	c #483B24",
"a@	c #544129",
"b@	c #3D3624",
"c@	c #3B3525",
"d@	c #3D3623",
"e@	c #3C3624",
"f@	c #3E3723",
"g@	c #433723",
"h@	c #423723",
"i@	c #332F21",
"j@	c #373218",
"k@	c #7E6623",
"l@	c #373123",
"m@	c #3D3723",
"n@	c #3D3322",
"o@	c #47372A",
"p@	c #AC6A18",
"q@	c #98753B",
"r@	c #715015",
"s@	c #584524",
"t@	c #41341E",
"u@	c #473621",
"v@	c #473723",
"w@	c #322E21",
"x@	c #3E3623",
"y@	c #453522",
"z@	c #58452B",
"A@	c #423622",
"B@	c #3F3629",
"C@	c #C69359",
"D@	c #9F8C5D",
"E@	c #465542",
"F@	c #3D4430",
"G@	c #4D5237",
"H@	c #575D3D",
"I@	c #475C3F",
"J@	c #4A4749",
"K@	c #3E2F21",
"L@	c #463723",
"M@	c #393023",
"N@	c #3C3222",
"O@	c #7C6422",
"P@	c #40331E",
"Q@	c #A1897F",
"R@	c #324C22",
"S@	c #58751C",
"T@	c #73851F",
"U@	c #517233",
"V@	c #617B2E",
"W@	c #A39B35",
"X@	c #7E7B28",
"Y@	c #3F6D2B",
"Z@	c #B1891F",
"`@	c #523824",
" #	c #3F3523",
".#	c #443823",
"+#	c #594527",
"@#	c #48382A",
"##	c #333021",
"$#	c #565945",
"%#	c #305924",
"&#	c #A4AD28",
"*#	c #5A7635",
"=#	c #73763E",
"-#	c #A95116",
";#	c #993E0E",
">#	c #AD5918",
",#	c #7D3F0D",
"'#	c #854D29",
")#	c #231D14",
"!#	c #423422",
"~#	c #2A230F",
"{#	c #6E5228",
"]#	c #3E3423",
"^#	c #4B3723",
"/#	c #403521",
"(#	c #304426",
"_#	c #556532",
":#	c #95A31A",
"<#	c #B3A925",
"[#	c #3B4743",
"}#	c #1C3313",
"|#	c #464622",
"1#	c #5C3308",
"2#	c #000207",
"3#	c #040404",
"4#	c #4D3C26",
"5#	c #000000",
"6#	c #1E180F",
"7#	c #453723",
"8#	c #4B3623",
"9#	c #3A3422",
"0#	c #1C180E",
"a#	c #1B1915",
"b#	c #463C3F",
"c#	c #59555D",
"d#	c #7D652A",
"e#	c #AB8C70",
"f#	c #6B370E",
"g#	c #21231F",
"h#	c #010101",
"i#	c #493622",
"j#	c #251A10",
"k#	c #513C26",
"l#	c #4A3723",
"m#	c #493723",
"n#	c #423825",
"o#	c #120C08",
"  .   + @ # $ % & * = - ; > , ' ) ! ~ { ] ^ / ( _ ",
":   < [ } | 1 2 3 4 5 6 7 8 9 0 a b c d e f g h _ ",
"i j k l m n o p q r s t u v w x y z - A n B C D _ ",
"j i E F G H I J x K L M N O P Q R S T U V W X Y Z ",
"i `  ...+.@.#.$.%.&.*.=.-.;.>.,.'.y ).!.~.{.].^./.",
"` (._.:.<.[.}.|.1.2.3.4.5.6.7.8.9.0.a.b.c.d.e.f.g.",
"h.i.j._ _ k.l.m.n.o.p.q.r.s.t.u.v.w.x.y.z.A.B.g.C.",
"D.E._ /.Z /.F.G.H.I.J.K.L.M.N.O.P.Q.R.S.T.U.V.W.X.",
"Y.Z./.Z F.Z C.Z `. +.+++@+#+$+%+&+*+=+X.-+;+>+,+'+",
"Z /.Z f.g.C.g.Z )+!+~+{+]+^+/+(+_+X.X.-+:+-+<+[+}+",
"` i /.|+/.` 1+2+3+4+5+6+7+8+9+0+a+=+-+b+c+c+-+d+e+",
":   : f+: g+X.h+i+j+k+l+m+n+o+p+q+c+:+c+:+c+:+r+s+",
"i j i j i j _ t+u+v+w+x+y+z+A+B+C+D+E+:+r+:+F+G+F+",
"i i j i ` i ` H+I+J+K+L+M+N+O+P+Q+R+S+T+F+F+F+G+U+",
"i i i ` i ` Z V+W+X+Y+Z+`+ @.@+@@@#@$@%@&@F+G+*@G+",
"i i ` _ ` _ =@-@;@>@,@'@)@!@~@{@]@^@/@(@U+G+U+U+U+",
"_ ` _ /._ _ _ _@:@<@[@}@|@1@2@3@4@5@6@7@|+F+8@8@8@",
"/._ _ /.Z F.9@0@a@&@b@c@d@c@c@c@e@f@g@f@g@f@h@h@g@",
"/._ /.f.i@F+j@k@l@*@f@*@f@*@m@n@o@p@q@r@s@t@u@h@v@",
"c+w@F+U+x@f@y@z@A@f@g@f@g@f@B@C@D@E@F@G@H@I@J@K@L@",
"8@c+F+*@d@M@N@O@h@h@v@h@v@P@Q@R@S@T@U@V@W@X@Y@Z@`@",
"g@8@:+Z. #.#+#@#h@h@h@v@g@##$#%#&#*#=#-#;#>#,#'#)#",
"v@h@v@g@!#~#{#]#v@L@^#v@8@:+/#(#_#:#<#[#}#|#1#2#3#",
"L@v@L@v@4#5#6#v@L@L@7#8#&@F+9#0#a#b#c#d#e#f#g#5#h#",
"i#L@L@L@j#5#k#L@l#L@l#m#^#L@&@n#o#5#5#5#5#5#h#h#h#"};
