/* XPM */
static const char *Tree32_xpm[] = {
"32 32 7 1",
"  c #B97A57",
". c #22B14C",
"X c #3F48CC",
"o c #9AC5E6",
"O c #C3C3C3",
"+ c #F0F0F0",
"@ c #FFFFFF",
"oooooooooooooooooooooooooooooooo",
"oooooooooooooooooooooooooooooooo",
"oooooooooooooooooooooooooooooooo",
"oooooooooooooooooooooooooooooooo",
"o@@@@@@@@@@@@@@@@@@@@@@@@@@@@@@o",
"o@@@@@@@@@@@@@@@@@@@@@@@@@@@@@@o",
"o@@@@@@@@@@@@@@@@@@@@@@@@@@@@@@o",
"o@@@@@@@@@@@@@@@@@@@@@@@@@@@@@@o",
"o@@@@@@@@@@@@@@@@@@@@@@@@@@@@@@o",
"o@@@@@@@@@@@@@@@@@@@@@@@@@@@@@@o",
"o@@@@@@@@@@@@@@@@X@@@@@@@@@@@@@o",
"o@@@@@@@@@@@@@@@X.X@@@@@@@@@@@@o",
"o@@@@@@@@@@@@XXX..XX@@@@@@@@@@@o",
"o@@@@@@@@@@@X.......X@@@@@@@@@@o",
"o@@@@@@@@@@@@X......X@@@@@@@@@@o",
"o@@@@@@@@@@XX........X@@@@@@@@@o",
"o@@@@@@XX@X..........X@@@@@@@@@o",
"o@@@@@XOOXX...........X@@@@@@@@o",
"o@@@@XOOOOOO.........X@@@@@@@@@o",
"o@@@@XOOOOO...@@  XX.X@@@@@@@@@o",
"o@@@@@XOOOOOO@@@  X@X@@@@@@@@@@o",
"o@@@@@@XOOOOOOO@  X@@@@@@@@@@@@o",
"o@@@@@@@XOOOXXOO  X@@@@@@@@@@@@o",
"o@@@@@@@@XXX@@XXXX@@@@@@@@@@@@@o",
"o@@@@@@@@@@@@@@@@@@@@@@@@@@@@@@o",
"o@@@@@@@@@@@@@@@@@@@@@@@@@@@@@@o",
"o@@@@@@@@@@@@@@@@@@@@@@@@@@@@@@o",
"o@@@@@@@@@@@@@@@@@@@@@@@@@@@@@@o",
"o++++++++++++++++++++++++++++++o",
"o++++++++++++++++++++++++++++++o",
"o++++++++++++++++++++++++++++++o",
"oooooooooooooooooooooooooooooooo"
};
