/* XPM */
static const char *Villager32_xpm[] = {
"32 32 33 1 ",
"  c #000100",
". c #181802",
"X c #261007",
"o c #2D3A10",
"O c #222421",
"+ c #452209",
"@ c #714C0D",
"# c #674429",
"$ c #010052",
"% c #444441",
"& c #416142",
"* c #516B43",
"= c #656664",
"- c #8D4D09",
"; c #BF7B00",
": c #996A35",
"> c #939458",
", c #AA8968",
"< c #D39F76",
"1 c #E6B57A",
"2 c #0A1380",
"3 c #0E31A1",
"4 c #2A5DB8",
"5 c #1600FF",
"6 c #4479D0",
"7 c #78B0F1",
"8 c #94958B",
"9 c #B4B3A4",
"0 c #E9C59A",
"q c #C5EBA5",
"w c #E0DFD7",
"e c #FDFFFC",
"r c None",
"rrrrrrrrrrrrrrrrrrrrrrrrrrrrrrrr",
"rrrrrrrrrrrrrrrr555rrrrrrrrrrrrr",
"rrrrrrrrrrrrrrr5+++5rrrrrrrrrrrr",
"rrrrrrrrrrrrrr5o+++5rrrrrrrrrrrr",
"rrrrrrrrrrrrrr5#@#:5rrrrrrrrrrrr",
"rrrrrrrrrrrrr5 +@##X5rrrrrrrrrrr",
"rrrrrrrrrrrr561<:@:X&5rrrrrrrrrr",
"rrrrrrrrrrr567e<@,#+45rrrrrrrrrr",
"rrrrrrrrrrr5767<:<@=35rrrrrrrrrr",
"rrrrrrrrrrr5764e:<,9645rrrrrrrrr",
"rrrrrrrrrrr5433w88=w=5rrrrrrrrrr",
"rrrrrrrrrrr5%e3we9=*ee5rrrrrrrrr",
"rrrrrrrrrr5ee33OOOO5ww5rrrrrrrrr",
"rrrrrrrrrr5w89=$$$O5><5rrrrrrrrr",
"rrrrrrrrrr5qe9;22225515rrrrrrrrr",
"rrrrrrrrrrr5,9;22225515rrrrrrrrr",
"rrrrrrrrrrr5<9;22225505rrrrrrrrr",
"rrrrrrrrrrr5,0-2222=5,5rrrrrrrrr",
"rrrrrrrrrrr5,0-2233%5>5rrrrrrrrr",
"rrrrrrrrrrr58,-2233%55rrrrrrrrrr",
"rrrrrrrrrrr59%=2332%5rrrrrrrrrrr",
"rrrrrrrrrrr59;23332%5rrrrrrrrrrr",
"rrrrrrrrrrr58;23322%5rrrrrrrrrrr",
"rrrrrrrrrrr598,>>>%5rrrrrrrrrrrr",
"rrrrrrrrrrr58899==%5rrrrrrrrrrrr",
"rrrrrrrrrrr58888%%+5rrrrrrrrrrrr",
"rrrrrrrrrrr5%%8=%*.o5rrrrrrrrrrr",
"rrrrrrrrrr55.      X5rrrrrrrrrrr",
"rrrrrrrrr5  .       5rrrrrrrrrrr",
"rrrrrrrrr5  .      5rrrrrrrrrrrr",
"rrrrrrrrrr5 +    5rrrrrrrrrrrrrr",
"rrrrrrrrrrr555555rrrrrrrrrrrrrrr"
};
