/* XPM */
static const char *Villie_xpm[] = {
"25 25 267 2",
"  	c #010101",
". 	c #090A08",
"+ 	c #191810",
"@ 	c #191911",
"# 	c #0C0C08",
"$ 	c #060707",
"% 	c #51442E",
"& 	c #61472D",
"* 	c #55381E",
"= 	c #7F5938",
"- 	c #0A0C0E",
"; 	c #171610",
"> 	c #362B1E",
", 	c #3C301D",
"' 	c #7E614A",
") 	c #906240",
"! 	c #1D170E",
"~ 	c #2D1E19",
"{ 	c #8D684B",
"] 	c #A98A73",
"^ 	c #947457",
"/ 	c #564333",
"( 	c #573826",
"_ 	c #000000",
": 	c #060A0C",
"< 	c #221C19",
"[ 	c #312A23",
"} 	c #8A6546",
"| 	c #8B6550",
"1 	c #D1B18B",
"2 	c #765C3F",
"3 	c #583F27",
"4 	c #1F1A18",
"5 	c #916747",
"6 	c #846047",
"7 	c #755541",
"8 	c #A57E5D",
"9 	c #BA946F",
"0 	c #8A6748",
"a 	c #463D29",
"b 	c #14120D",
"c 	c #76594A",
"d 	c #755746",
"e 	c #9A6A45",
"f 	c #986E4B",
"g 	c #523A2E",
"h 	c #78583F",
"i 	c #312E1F",
"j 	c #69462B",
"k 	c #7C5B44",
"l 	c #38281E",
"m 	c #120C0C",
"n 	c #926D4C",
"o 	c #9A6944",
"p 	c #CCA37A",
"q 	c #996E52",
"r 	c #845D3F",
"s 	c #765742",
"t 	c #74573F",
"u 	c #3F3524",
"v 	c #AA7B57",
"w 	c #DFBC90",
"x 	c #886341",
"y 	c #0E0A0A",
"z 	c #624835",
"A 	c #765846",
"B 	c #AD7F59",
"C 	c #FCD5A9",
"D 	c #AE835D",
"E 	c #896652",
"F 	c #BB9372",
"G 	c #DDBB96",
"H 	c #E5C59E",
"I 	c #CEA37A",
"J 	c #E1B88D",
"K 	c #F6EBD1",
"L 	c #F2C89C",
"M 	c #34261E",
"N 	c #805F47",
"O 	c #634841",
"P 	c #AF815B",
"Q 	c #C8946C",
"R 	c #6F513E",
"S 	c #9E714F",
"T 	c #C39267",
"U 	c #EACEA7",
"V 	c #F1E8CE",
"W 	c #E9C59A",
"X 	c #B1825B",
"Y 	c #D5B791",
"Z 	c #E8D0AD",
"` 	c #BBA086",
" .	c #110C0B",
"..	c #B1855B",
"+.	c #AC805C",
"@.	c #6E5246",
"#.	c #745645",
"$.	c #866449",
"%.	c #60453D",
"&.	c #996E4B",
"*.	c #AA7F5B",
"=.	c #CDA77B",
"-.	c #EBC69C",
";.	c #D3AB81",
">.	c #6A4F3E",
",.	c #8B6443",
"'.	c #C69A6D",
").	c #D6B48C",
"!.	c #483526",
"~.	c #6B4D39",
"{.	c #F6E7BD",
"].	c #DCB88F",
"^.	c #604430",
"/.	c #0A0703",
"(.	c #5C3F31",
"_.	c #4B3725",
":.	c #725640",
"<.	c #9D7250",
"[.	c #B48159",
"}.	c #D4AD85",
"|.	c #A57C59",
"1.	c #302515",
"2.	c #302A1B",
"3.	c #7B5940",
"4.	c #C1956A",
"5.	c #CD9B71",
"6.	c #0E0909",
"7.	c #BA8961",
"8.	c #FAF7CD",
"9.	c #C89F75",
"0.	c #4C3B26",
"a.	c #624538",
"b.	c #5E4133",
"c.	c #5E433C",
"d.	c #82664E",
"e.	c #9D724F",
"f.	c #9F7757",
"g.	c #432E15",
"h.	c #0A0A00",
"i.	c #181308",
"j.	c #846044",
"k.	c #F1D4B3",
"l.	c #674833",
"m.	c #35261D",
"n.	c #E1C19A",
"o.	c #D9B086",
"p.	c #3A271D",
"q.	c #30281B",
"r.	c #543D2D",
"s.	c #664C3A",
"t.	c #81624E",
"u.	c #7F6049",
"v.	c #9B7252",
"w.	c #B18562",
"x.	c #493419",
"y.	c #050500",
"z.	c #040400",
"A.	c #413221",
"B.	c #D2A780",
"C.	c #AF865E",
"D.	c #7D6149",
"E.	c #D2AC81",
"F.	c #19110C",
"G.	c #090A21",
"H.	c #4D3920",
"I.	c #71544A",
"J.	c #614434",
"K.	c #825F45",
"L.	c #896447",
"M.	c #4F3A37",
"N.	c #20266B",
"O.	c #060908",
"P.	c #7E5335",
"Q.	c #BB906B",
"R.	c #533C08",
"S.	c #140E08",
"T.	c #F5D3B0",
"U.	c #3E2C1D",
"V.	c #00002A",
"W.	c #0A1978",
"X.	c #2E3B5E",
"Y.	c #2B4280",
"Z.	c #222B56",
"`.	c #2C437F",
" +	c #395A9F",
".+	c #1D3184",
"++	c #030736",
"@+	c #000001",
"#+	c #6A4A13",
"$+	c #D1A76E",
"%+	c #504027",
"&+	c #5B422C",
"*+	c #9A7A5F",
"=+	c #000012",
"-+	c #182980",
";+	c #1F3385",
">+	c #18297D",
",+	c #15257A",
"'+	c #4D6EAB",
")+	c #587CB3",
"!+	c #345299",
"~+	c #010430",
"{+	c #342219",
"]+	c #A06F4B",
"^+	c #7B5D44",
"/+	c #171414",
"(+	c #A57E62",
"_+	c #402A1B",
":+	c #192A83",
"<+	c #02065D",
"[+	c #324F99",
"}+	c #17277C",
"|+	c #4363A3",
"1+	c #6C92C0",
"2+	c #3F5DA1",
"3+	c #0B123C",
"4+	c #59412E",
"5+	c #956F55",
"6+	c #885F45",
"7+	c #050B68",
"8+	c #02045B",
"9+	c #4364A4",
"0+	c #233A8D",
"a+	c #4568A6",
"b+	c #B8D9EA",
"c+	c #496BA8",
"d+	c #121E47",
"e+	c #3B2719",
"f+	c #744B30",
"g+	c #150C05",
"h+	c #060E52",
"i+	c #101A6F",
"j+	c #496CA7",
"k+	c #1E3283",
"l+	c #658CBE",
"m+	c #85AED0",
"n+	c #4B6DA9",
"o+	c #0E1842",
"p+	c #000028",
"q+	c #304C95",
"r+	c #355097",
"s+	c #29408B",
"t+	c #79A0C7",
"u+	c #7199C6",
"v+	c #4E72AF",
"w+	c #00000D",
"x+	c #000025",
"y+	c #4B6FAA",
"z+	c #2C4592",
"A+	c #324E96",
"B+	c #799FC7",
"C+	c #749CC8",
"D+	c #2C4395",
"E+	c #132048",
"F+	c #5073AC",
"G+	c #1F3487",
"H+	c #335097",
"I+	c #577BB3",
"J+	c #5F85BB",
"K+	c #4B4B50",
"L+	c #3A599C",
"M+	c #192A7E",
"N+	c #213689",
"O+	c #4668A5",
"P+	c #2F4F9E",
"Q+	c #B88655",
"R+	c #6E5138",
"                                                  ",
"                      . + @ #                     ",
"                    $ % & * = -                   ",
"                    ; > , ' ) !                   ",
"                    ~ { ] ^ / ( _                 ",
"              _ : < [ } | 1 2 3 _                 ",
"              4 5 6 7 8 9 0 a b                   ",
"            _ c d e f g h i j k l _               ",
"            m n o p q r s t u v w x y             ",
"          _ z A B C D E F G H I J K L _           ",
"          M N O P Q R S T U V W X Y Z ` _         ",
"         ...+.@.#.$.%.&.*.=.-.;.>.,.'.).!.        ",
"      _ ~.{.].^./.(._.:.<.[.}.|.1.2.3.4.5.6.      ",
"      _ 7.8.9._ _ 0.a.b.c.d.e.f.g.h.i.j.k.l._     ",
"      m.n.o.p.  _ q.r.s.t.u.v.w.x.y.z.A.B.C._     ",
"    _ D.E.F._     G.H.I.J.K.L.M.N._   O.P.Q.R.    ",
"    S.T.U.        V.W.X.Y.Z.`. +.+++  @+#+$+%+    ",
"    &+*+_         =+-+;+>+,+'+)+!+~+    {+]+^+_   ",
"    /+(+_+        _ :+<+[+}+|+1+2+3+    4+5+6+_   ",
"      _ _         _ 7+8+9+0+a+b+c+d+    e+f+g+    ",
"                  _ h+i+j+k+l+m+n+o+    _ _       ",
"                    p+q+r+s+t+u+v+w+              ",
"                    x+y+z+A+B+C+D+_               ",
"                    E+F+G+H+I+J+K+_               ",
"                    d+L+M+N+O+P+Q+R+_             "};
