/* XPM */
static const char *window_new_xpm[] = {
"44 44 3 1",
" 	c None",
".	c #232629",
"+	c #232628",
"                                            ",
" .......................................... ",
" .......................................... ",
" .......................................... ",
" .......................................... ",
" .......................................... ",
" .......................................... ",
" .......................................... ",
" .......................................... ",
" .......................................... ",
" .......................................... ",
" ..                                      .. ",
" ..                                      .. ",
" ..                                      .. ",
" ..                                      .. ",
" ..                                      .. ",
" ..                                      .. ",
" ..                                      .. ",
" ..                                      .. ",
" ..                                      .. ",
" ..                                      .. ",
" ..                                      .. ",
" ..                                      .. ",
" ..                                      .. ",
" ..                                      .. ",
" ..                                      .. ",
" ..                                      .. ",
" ..                                         ",
" ..                                         ",
" ..                                         ",
" ..                                 ..      ",
" ..                                 ..      ",
" ..                                 ..      ",
" ..                                 ..      ",
" ..                                 ..      ",
" ..                                +..      ",
" ..                           ............. ",
" ..                           ............. ",
" ..                                 ..      ",
" ..                                 ..      ",
" ..                                 ..      ",
" ..........................         ..      ",
" ..........................         ..      ",
"                                            "};
